<svg xmlns="http://www.w3.org/2000/svg" viewBox="0 0 955 957.94"><defs><style>.cls-1{font-size:17px;}.cls-1,.cls-59,.cls-7{fill:#fff;}.cls-1,.cls-12,.cls-23,.cls-59,.cls-76,.cls-9{font-family:MyriadPro-Regular, Myriad Pro;}.cls-2{letter-spacing:-0.01em;}.cls-3{letter-spacing:-0.02em;}.cls-4{letter-spacing:-0.01em;}.cls-5{letter-spacing:-0.01em;}.cls-11,.cls-6,.cls-8{fill:none;stroke:#000;stroke-miterlimit:10;}.cls-6,.cls-8{stroke-width:4px;}.cls-11,.cls-8{stroke-linecap:round;}.cls-12,.cls-9{font-size:15px;}.cls-48,.cls-9{letter-spacing:-0.01em;}.cls-10{letter-spacing:0em;}.cls-11{stroke-width:5px;}.cls-13{letter-spacing:-0.01em;}.cls-14{letter-spacing:0.03em;}.cls-15{letter-spacing:-0.02em;}.cls-16{letter-spacing:-0.01em;}.cls-17{letter-spacing:0.03em;}.cls-18{letter-spacing:-0.02em;}.cls-19{letter-spacing:0.01em;}.cls-20{letter-spacing:0em;}.cls-21{letter-spacing:0.01em;}.cls-22{letter-spacing:0em;}.cls-23,.cls-59,.cls-76{font-size:16px;}.cls-24{letter-spacing:0.01em;}.cls-25{letter-spacing:-0.01em;}.cls-26{letter-spacing:0em;}.cls-27{letter-spacing:0.02em;}.cls-28{letter-spacing:-0.01em;}.cls-29{letter-spacing:0em;}.cls-30{letter-spacing:0em;}.cls-31{letter-spacing:0.01em;}.cls-32{letter-spacing:0em;}.cls-33{letter-spacing:0.01em;}.cls-34{letter-spacing:-0.01em;}.cls-35{letter-spacing:0em;}.cls-36{letter-spacing:0.02em;}.cls-37{letter-spacing:0.01em;}.cls-38{letter-spacing:0em;}.cls-39{letter-spacing:0.01em;}.cls-40,.cls-76{letter-spacing:-0.01em;}.cls-41{letter-spacing:-0.01em;}.cls-42{letter-spacing:0.02em;}.cls-43{letter-spacing:-0.01em;}.cls-44{letter-spacing:-0.02em;}.cls-45{letter-spacing:-0.01em;}.cls-46{letter-spacing:0.03em;}.cls-47{letter-spacing:0.01em;}.cls-49{letter-spacing:0.01em;}.cls-50{letter-spacing:0.01em;}.cls-51{letter-spacing:-0.01em;}.cls-52{letter-spacing:0.01em;}.cls-53{letter-spacing:0em;}.cls-54{letter-spacing:0.01em;}.cls-55{letter-spacing:-0.01em;}.cls-56{letter-spacing:-0.01em;}.cls-57{letter-spacing:0.03em;}.cls-58{letter-spacing:0em;}.cls-60{letter-spacing:-0.04em;}.cls-61{letter-spacing:-0.04em;}.cls-62{letter-spacing:-0.03em;}.cls-63{letter-spacing:-0.01em;}.cls-64{letter-spacing:-0.01em;}.cls-65{letter-spacing:0em;}.cls-66{letter-spacing:-0.01em;}.cls-67{letter-spacing:-0.01em;}.cls-68{letter-spacing:0em;}.cls-69{letter-spacing:0em;}.cls-70{letter-spacing:-0.01em;}.cls-71{letter-spacing:-0.01em;}.cls-72{letter-spacing:0.02em;}.cls-73{letter-spacing:-0.01em;}.cls-74{letter-spacing:0.01em;}.cls-75{letter-spacing:0em;}.cls-77{letter-spacing:0em;}.cls-78{letter-spacing:-0.03em;}.cls-79{letter-spacing:0em;}</style></defs><title>allprocesses-svg</title><g id="Layer_2" data-name="Layer 2"><g id="Layer_1-2" data-name="Layer 1"><rect x="4.49" y="559" width="168" height="26"/><text class="cls-1" transform="translate(11.53 577.82)"><tspan class="cls-2">C</tspan><tspan x="9.67" y="0">ommit Guru </tspan><tspan class="cls-3" x="99.45" y="0">P</tspan><tspan class="cls-4" x="108.22" y="0">r</tspan><tspan x="113.61" y="0">o</tspan><tspan class="cls-5" x="122.94" y="0">c</tspan><tspan x="130.46" y="0">ess</tspan></text><line class="cls-6" x1="6" y1="618.94" x2="58" y2="618.94"/><circle class="cls-7" cx="20" cy="618.94" r="6"/><path d="M20,614.94a4,4,0,1,1-4,4,4,4,0,0,1,4-4m0-4a8,8,0,1,0,8,8,8,8,0,0,0-8-8Z"/><path d="M47,639.94a7,7,0,0,1,0,14H30a7,7,0,0,1,0-14H47m0-4H30a11,11,0,0,0,0,22H47a11,11,0,0,0,0-22Z"/><line class="cls-6" x1="21" y1="646.94" x2="21" y2="630.94"/><line class="cls-8" x1="21" y1="630.94" x2="34" y2="637.94"/><circle class="cls-6" cx="24.5" cy="636.44" r="1.5"/><path d="M46.5,644.94a1.5,1.5,0,1,0,1.5,1.5,1.5,1.5,0,0,0-1.5-1.5Z"/><path d="M38.5,644.94a1.5,1.5,0,1,0,1.5,1.5,1.5,1.5,0,0,0-1.5-1.5Z"/><path d="M30.5,644.94a1.5,1.5,0,1,0,1.5,1.5,1.5,1.5,0,0,0-1.5-1.5Z"/><text class="cls-9" transform="translate(6.87 672.49)">C<tspan class="cls-10" x="8.53" y="0">ommit</tspan></text><line class="cls-11" x1="120.5" y1="634.44" x2="70.5" y2="634.44"/><line class="cls-11" x1="106.5" y1="625.44" x2="120.5" y2="634.44"/><line class="cls-11" x1="106.5" y1="643.44" x2="120.5" y2="634.44"/><text class="cls-12" transform="translate(84.72 657.49)">on <tspan class="cls-13" x="-15.9" y="9">c</tspan><tspan x="-9.27" y="9">ommit</tspan></text><line class="cls-6" x1="141" y1="600.94" x2="141" y2="668.94"/><circle class="cls-7" cx="141" cy="614.94" r="6"/><path d="M141,610.94a4,4,0,1,1-4,4,4,4,0,0,1,4-4m0-4a8,8,0,1,0,8,8,8,8,0,0,0-8-8Z"/><circle class="cls-7" cx="141" cy="634.94" r="6"/><path d="M141,630.94a4,4,0,1,1-4,4,4,4,0,0,1,4-4m0-4a8,8,0,1,0,8,8,8,8,0,0,0-8-8Z"/><circle class="cls-7" cx="141" cy="654.94" r="6"/><path d="M141,650.94a4,4,0,1,1-4,4,4,4,0,0,1,4-4m0-4a8,8,0,1,0,8,8,8,8,0,0,0-8-8Z"/><text class="cls-12" transform="translate(151 623.49)">local<tspan class="cls-13" x="0" y="18">c</tspan><tspan x="6.63" y="18">ommit</tspan><tspan x="0" y="36">his</tspan><tspan class="cls-13" x="17.77" y="36">t</tspan><tspan x="22.65" y="36">o</tspan><tspan class="cls-14" x="30.88" y="36">r</tspan><tspan x="36.16" y="36">y</tspan></text><line class="cls-11" x1="253.5" y1="634.44" x2="203.5" y2="634.44"/><line class="cls-11" x1="239.5" y1="625.44" x2="253.5" y2="634.44"/><line class="cls-11" x1="239.5" y1="643.44" x2="253.5" y2="634.44"/><text class="cls-12" transform="translate(217.72 657.49)">on<tspan x="-7.25" y="15">push</tspan></text><path d="M376,615.94v37H272v-37H376m5-5H267v47H381v-47Z"/><text class="cls-12" transform="translate(278.11 638.59)"><tspan class="cls-15">P</tspan><tspan class="cls-16" x="7.74" y="0">r</tspan><tspan class="cls-17" x="12.5" y="0">e</tspan><tspan x="20.43" y="0">-</tspan><tspan class="cls-18" x="25.03" y="0">P</tspan><tspan x="32.79" y="0">ush Hook</tspan></text><path d="M584,615.94v37H480v-37H584m5-5H475v47H589v-47Z"/><line class="cls-11" x1="462.5" y1="634.44" x2="394.5" y2="635.44"/><line class="cls-11" x1="448.5" y1="625.44" x2="462.5" y2="634.44"/><line class="cls-11" x1="448.5" y1="643.44" x2="462.5" y2="634.44"/><text class="cls-12" transform="translate(405.32 659.49)"><tspan class="cls-13">c</tspan><tspan x="6.63" y="0">ommit </tspan><tspan x="-8.28" y="15">changeset</tspan></text><text class="cls-12" transform="translate(485.97 638.59)">E<tspan class="cls-19" x="7.38" y="0">x</tspan><tspan x="14.52" y="0">t</tspan><tspan class="cls-20" x="19.48" y="0">r</tspan><tspan x="24.31" y="0">a</tspan><tspan class="cls-19" x="31.54" y="0">c</tspan><tspan x="38.46" y="0">t </tspan><tspan class="cls-16" x="46.6" y="0">v</tspan><tspan x="53.67" y="0">e</tspan><tspan class="cls-21" x="61.18" y="0">c</tspan><tspan class="cls-13" x="68.1" y="0">t</tspan><tspan x="72.97" y="0">ors</tspan></text><path d="M775,615.94v37H671v-37H775m5-5H666v47H780v-47Z"/><line class="cls-11" x1="653.5" y1="634.44" x2="603.5" y2="634.44"/><line class="cls-11" x1="639.5" y1="625.44" x2="653.5" y2="634.44"/><line class="cls-11" x1="639.5" y1="643.44" x2="653.5" y2="634.44"/><text class="cls-12" transform="translate(603.28 657.49)"><tspan class="cls-16">v</tspan><tspan x="7.06" y="0">e</tspan><tspan class="cls-19" x="14.58" y="0">c</tspan><tspan class="cls-13" x="21.49" y="0">t</tspan><tspan x="26.37" y="0">ors</tspan></text><text class="cls-12" transform="translate(683.18 638.59)">classific<tspan class="cls-22" x="47.44" y="0">a</tspan><tspan x="54.61" y="0">tion</tspan></text><line class="cls-11" x1="846.5" y1="634.44" x2="796.5" y2="634.44"/><line class="cls-11" x1="832.5" y1="625.44" x2="846.5" y2="634.44"/><line class="cls-11" x1="832.5" y1="643.44" x2="846.5" y2="634.44"/><text class="cls-23" transform="translate(782.31 658.2)">faul<tspan class="cls-24" x="24.98" y="0">t</tspan><tspan x="30.42" y="0">y/ non </tspan><tspan x="17.71" y="15">faul</tspan><tspan class="cls-24" x="42.69" y="15">t</tspan><tspan x="48.13" y="15">y</tspan></text><text class="cls-23" transform="translate(871.27 632.3)"><tspan class="cls-25">r</tspan><tspan class="cls-26" x="5.07" y="0">epo</tspan><tspan class="cls-27" x="30.98" y="0">r</tspan><tspan x="36.59" y="0">t on </tspan><tspan class="cls-28" x="-11.86" y="15">c</tspan><tspan class="cls-29" x="-4.78" y="15">ommi</tspan><tspan class="cls-30" x="34.43" y="15">t</tspan><tspan x="39.68" y="15">.guru</tspan></text><line class="cls-11" x1="845.99" y1="714.5" x2="753.99" y2="714.5"/><line class="cls-11" x1="831.99" y1="705.5" x2="845.99" y2="714.5"/><line class="cls-11" x1="831.99" y1="723.5" x2="845.99" y2="714.5"/><text class="cls-12" transform="translate(883.8 710.65)">E-<tspan class="cls-31" x="11.98" y="0">M</tspan><tspan x="24.13" y="0">ail</tspan><tspan x="-17.47" y="15">Notific</tspan><tspan class="cls-22" x="23.68" y="15">a</tspan><tspan x="30.85" y="15">tion</tspan></text><line class="cls-11" x1="752.99" y1="714.5" x2="752.99" y2="656.5"/><rect x="4.49" y="813" width="196" height="26"/><text class="cls-1" transform="translate(11.53 831.82)">Unusual <tspan class="cls-2" x="61.71" y="0">C</tspan><tspan x="71.38" y="0">ommits </tspan><tspan class="cls-3" x="129.01" y="0">P</tspan><tspan class="cls-4" x="137.78" y="0">r</tspan><tspan x="143.17" y="0">o</tspan><tspan class="cls-5" x="152.51" y="0">c</tspan><tspan x="160.02" y="0">ess</tspan></text><line class="cls-6" x1="8" y1="854.94" x2="8" y2="922.94"/><circle class="cls-7" cx="8" cy="868.94" r="6"/><path d="M8,864.94a4,4,0,1,1-4,4,4,4,0,0,1,4-4m0-4a8,8,0,1,0,8,8,8,8,0,0,0-8-8Z"/><circle class="cls-7" cx="8" cy="888.94" r="6"/><path d="M8,884.94a4,4,0,1,1-4,4,4,4,0,0,1,4-4m0-4a8,8,0,1,0,8,8,8,8,0,0,0-8-8Z"/><circle class="cls-7" cx="8" cy="908.94" r="6"/><path d="M8,904.94a4,4,0,1,1-4,4,4,4,0,0,1,4-4m0-4a8,8,0,1,0,8,8,8,8,0,0,0-8-8Z"/><text class="cls-12" transform="translate(18 877.49)">GitHub <tspan class="cls-32" x="0" y="18">R</tspan><tspan x="8.13" y="18">emo</tspan><tspan class="cls-13" x="36.39" y="18">t</tspan><tspan x="41.26" y="18">e </tspan><tspan class="cls-33" x="0" y="36">H</tspan><tspan x="9.93" y="36">is</tspan><tspan class="cls-13" x="19.38" y="36">t</tspan><tspan x="24.25" y="36">o</tspan><tspan class="cls-14" x="32.49" y="36">r</tspan><tspan x="37.77" y="36">y</tspan></text><line class="cls-11" x1="129.5" y1="888.44" x2="79.5" y2="888.44"/><line class="cls-11" x1="115.5" y1="879.44" x2="129.5" y2="888.44"/><line class="cls-11" x1="115.5" y1="897.44" x2="129.5" y2="888.44"/><text class="cls-12" transform="translate(76.58 911.49)">opening <tspan x="-6.25" y="15">in B</tspan><tspan class="cls-16" x="16.89" y="15">r</tspan><tspan class="cls-34" x="21.64" y="15">o</tspan><tspan class="cls-13" x="29.77" y="15">w</tspan><tspan x="40.72" y="15">ser</tspan></text><path d="M256,869.94v37H152v-37H256m5-5H147v47H261v-47Z"/><text class="cls-12" transform="translate(162.23 892.59)"><tspan class="cls-35">A</tspan><tspan x="9.14" y="0">nal</tspan><tspan class="cls-13" x="28.23" y="0">y</tspan><tspan x="35.21" y="0">sis </tspan><tspan class="cls-35" x="53.77" y="0">S</tspan><tspan x="61.12" y="0">ta</tspan><tspan class="cls-36" x="73.32" y="0">r</tspan><tspan x="78.58" y="0">t</tspan></text><path d="M464,869.94v37H360v-37H464m5-5H355v47H469v-47Z"/><line class="cls-11" x1="342.5" y1="888.44" x2="274.5" y2="889.44"/><line class="cls-11" x1="328.5" y1="879.44" x2="342.5" y2="888.44"/><line class="cls-11" x1="328.5" y1="897.44" x2="342.5" y2="888.44"/><text class="cls-12" transform="translate(285.32 913.49)"><tspan class="cls-13">c</tspan><tspan x="6.63" y="0">ommit </tspan><tspan x="-8.28" y="15">changeset</tspan></text><text class="cls-12" transform="translate(365.97 892.59)">E<tspan class="cls-19" x="7.38" y="0">x</tspan><tspan x="14.52" y="0">t</tspan><tspan class="cls-20" x="19.48" y="0">r</tspan><tspan x="24.31" y="0">a</tspan><tspan class="cls-19" x="31.54" y="0">c</tspan><tspan x="38.46" y="0">t </tspan><tspan class="cls-16" x="46.6" y="0">v</tspan><tspan x="53.67" y="0">e</tspan><tspan class="cls-21" x="61.18" y="0">c</tspan><tspan class="cls-13" x="68.1" y="0">t</tspan><tspan x="72.97" y="0">ors</tspan></text><path d="M655,869.94v37H551v-37H655m5-5H546v47H660v-47Z"/><line class="cls-11" x1="533.5" y1="888.44" x2="483.5" y2="888.44"/><line class="cls-11" x1="519.5" y1="879.44" x2="533.5" y2="888.44"/><line class="cls-11" x1="519.5" y1="897.44" x2="533.5" y2="888.44"/><text class="cls-12" transform="translate(483.28 911.49)"><tspan class="cls-16">v</tspan><tspan x="7.06" y="0">e</tspan><tspan class="cls-19" x="14.58" y="0">c</tspan><tspan class="cls-13" x="21.49" y="0">t</tspan><tspan x="26.37" y="0">ors</tspan></text><text class="cls-12" transform="translate(563.93 885.65)"><tspan class="cls-35">A</tspan><tspan x="9.14" y="0">bno</tspan><tspan class="cls-32" x="34.23" y="0">r</tspan><tspan x="39.19" y="0">mali</tspan><tspan class="cls-37" x="65.98" y="0">t</tspan><tspan x="71.08" y="0">y </tspan><tspan class="cls-34" x="4.03" y="15">C</tspan><tspan x="12.62" y="15">alcul</tspan><tspan class="cls-22" x="41.92" y="15">a</tspan><tspan x="49.09" y="15">tion</tspan></text><line class="cls-11" x1="739.5" y1="888.44" x2="689.5" y2="888.44"/><line class="cls-11" x1="725.5" y1="879.44" x2="739.5" y2="888.44"/><line class="cls-11" x1="725.5" y1="897.44" x2="739.5" y2="888.44"/><text class="cls-23" transform="translate(677.58 912.2)">abno<tspan class="cls-38" x="34.48" y="0">r</tspan><tspan x="39.78" y="0">mali</tspan><tspan class="cls-39" x="68.35" y="0">t</tspan><tspan x="73.79" y="0">y </tspan><tspan x="23.02" y="15">s</tspan><tspan class="cls-40" x="29.36" y="15">c</tspan><tspan x="36.43" y="15">o</tspan><tspan class="cls-41" x="45.22" y="15">r</tspan><tspan x="50.29" y="15">e</tspan></text><text class="cls-23" transform="translate(789.04 886.3)"><tspan class="cls-25">r</tspan><tspan class="cls-26" x="5.07" y="0">epo</tspan><tspan class="cls-27" x="30.98" y="0">r</tspan><tspan x="36.59" y="0">t in </tspan><tspan class="cls-40" x="-21.59" y="15">c</tspan><tspan x="-14.52" y="15">ommit his</tspan><tspan class="cls-28" x="52.34" y="15">t</tspan><tspan x="57.54" y="15">o</tspan><tspan class="cls-42" x="66.33" y="15">r</tspan><tspan x="71.96" y="15">y</tspan></text></g><g id="Layer_2-2" data-name="Layer 2"><line class="cls-6" x1="140.49" y1="46" x2="192.49" y2="46"/><path class="cls-7" d="M154.49,52a6,6,0,1,1,6-6,6,6,0,0,1-6,6"/><path d="M154.49,42a4,4,0,1,1-4,4,4,4,0,0,1,4-4m0-4a8,8,0,1,0,8,8,8,8,0,0,0-8-8"/><path d="M181.49,67a7,7,0,0,1,0,14h-17a7,7,0,0,1,0-14h17m0-4h-17a11,11,0,0,0,0,22h17a11,11,0,0,0,0-22"/><line class="cls-6" x1="155.49" y1="74" x2="155.49" y2="58"/><line class="cls-8" x1="155.49" y1="58" x2="168.49" y2="65"/><circle class="cls-6" cx="158.99" cy="63.5" r="1.5"/><path d="M181,72a1.5,1.5,0,1,0,1.5,1.5A1.5,1.5,0,0,0,181,72"/><path d="M173,72a1.5,1.5,0,1,0,1.5,1.5A1.5,1.5,0,0,0,173,72"/><path d="M165,72a1.5,1.5,0,1,0,1.5,1.5A1.5,1.5,0,0,0,165,72"/><text class="cls-12" transform="translate(141.36 102.55)"><tspan class="cls-16">C</tspan><tspan x="8.55" y="0">ommit</tspan></text><path d="M382.49,80h-104V43h104Zm5-42h-114V85h114Z"/><line class="cls-11" x1="260.99" y1="61.5" x2="210.99" y2="61.5"/><line class="cls-11" x1="246.99" y1="52.5" x2="260.99" y2="61.5"/><line class="cls-11" x1="246.99" y1="70.5" x2="260.99" y2="61.5"/><text class="cls-12" transform="translate(225.21 87.55)">on </text><text class="cls-12" transform="translate(209.31 102.55)"><tspan class="cls-43">c</tspan><tspan x="6.65" y="0">ommit</tspan></text><text class="cls-12" transform="translate(292.74 58.64)"><tspan class="cls-44">P</tspan><tspan class="cls-45" x="7.74" y="0">r</tspan><tspan class="cls-46" x="12.51" y="0">e</tspan><tspan class="cls-47" x="20.44" y="0">-</tspan><tspan class="cls-48" x="25.26" y="0">C</tspan><tspan x="33.79" y="0">ommit </tspan></text><text class="cls-12" transform="translate(313.85 73.64)">Hook</text><path d="M603.49,132h-104V95h104Zm5-42h-114v47h114Z"/><line class="cls-11" x1="481.99" y1="113.5" x2="413.99" y2="114.5"/><line class="cls-11" x1="467.99" y1="104.5" x2="481.99" y2="113.5"/><line class="cls-11" x1="467.99" y1="122.5" x2="481.99" y2="113.5"/><text class="cls-12" transform="translate(427.81 138.55)"><tspan class="cls-43">c</tspan><tspan x="6.65" y="0">ommit </tspan></text><text class="cls-12" transform="translate(419.53 153.55)">changeset</text><text class="cls-12" transform="translate(505.46 117.65)">E<tspan class="cls-49" x="7.38" y="0">x</tspan><tspan x="14.5" y="0">t</tspan><tspan class="cls-22" x="19.47" y="0">r</tspan><tspan x="24.31" y="0">a</tspan><tspan class="cls-50" x="31.54" y="0">c</tspan><tspan class="cls-10" x="38.44" y="0">t </tspan><tspan class="cls-51" x="46.59" y="0">v</tspan><tspan class="cls-10" x="53.67" y="0">e</tspan><tspan class="cls-49" x="61.18" y="0">c</tspan><tspan class="cls-13" x="68.08" y="0">t</tspan><tspan x="72.96" y="0">ors</tspan></text><path d="M794.49,132h-104V95h104Zm5-42h-114v47h114Z"/><line class="cls-11" x1="672.99" y1="113.5" x2="622.99" y2="113.5"/><line class="cls-11" x1="658.99" y1="104.5" x2="672.99" y2="113.5"/><line class="cls-11" x1="658.99" y1="122.5" x2="672.99" y2="113.5"/><text class="cls-12" transform="translate(622.76 136.55)"><tspan class="cls-45">v</tspan><tspan x="7.08" y="0">e</tspan><tspan class="cls-52" x="14.59" y="0">c</tspan><tspan class="cls-43" x="21.5" y="0">t</tspan><tspan class="cls-53" x="26.38" y="0">ors</tspan></text><path d="M708.94,117.38a4.89,4.89,0,0,1-2.09.42,3.45,3.45,0,0,1-3.61-3.71,3.69,3.69,0,0,1,3.9-3.85,4.42,4.42,0,0,1,1.83.37l-.3,1a3.08,3.08,0,0,0-1.53-.34,2.74,2.74,0,0,0,0,5.46,3.81,3.81,0,0,0,1.62-.36ZM710.48,107h1.32v10.65h-1.32ZM718,117.65l-.1-.92h-.05a2.69,2.69,0,0,1-2.22,1.08,2.06,2.06,0,0,1-2.22-2.08c0-1.76,1.56-2.72,4.37-2.7v-.15a1.5,1.5,0,0,0-1.65-1.68,3.6,3.6,0,0,0-1.89.54l-.3-.87a4.5,4.5,0,0,1,2.38-.65c2.22,0,2.76,1.52,2.76,3v2.72a10.26,10.26,0,0,0,.12,1.74Zm-.19-3.71c-1.44,0-3.08.23-3.08,1.64a1.17,1.17,0,0,0,1.25,1.26,1.8,1.8,0,0,0,1.75-1.22,1.2,1.2,0,0,0,.08-.42Zm3.22,2.36a3.51,3.51,0,0,0,1.74.52c1,0,1.41-.48,1.41-1.08s-.37-1-1.35-1.33c-1.3-.47-1.92-1.19-1.92-2.06a2.24,2.24,0,0,1,2.51-2.13,3.6,3.6,0,0,1,1.78.45l-.33,1a2.81,2.81,0,0,0-1.48-.42c-.78,0-1.22.45-1.22,1s.44.87,1.38,1.23c1.26.48,1.91,1.11,1.91,2.19,0,1.28-1,2.18-2.72,2.18a4.15,4.15,0,0,1-2-.5Zm5.94,0a3.51,3.51,0,0,0,1.74.52c1,0,1.41-.48,1.41-1.08s-.37-1-1.35-1.33c-1.3-.47-1.92-1.19-1.92-2.06a2.24,2.24,0,0,1,2.51-2.13,3.6,3.6,0,0,1,1.78.45l-.33,1a2.81,2.81,0,0,0-1.48-.42c-.78,0-1.22.45-1.22,1s.44.87,1.38,1.23c1.26.48,1.91,1.11,1.91,2.19,0,1.28-1,2.18-2.72,2.18a4.15,4.15,0,0,1-2-.5Zm7.59-8a.77.77,0,0,1-.84.81.78.78,0,0,1-.79-.81.8.8,0,0,1,.82-.83A.78.78,0,0,1,734.6,108.35Zm-1.47,9.3v-7.26h1.32v7.26Zm3.65,0v-6.26h-1v-1h1V110a2.91,2.91,0,0,1,3.16-3.17,3.65,3.65,0,0,1,1.85.48l-.38,1a2.71,2.71,0,0,0-1.53-.42c-1.39,0-1.8,1-1.8,2.13v.36h4.22v7.26H741v-6.26h-2.91v6.26Zm12.88-.27a4.83,4.83,0,0,1-2.08.42,3.46,3.46,0,0,1-3.62-3.71,3.69,3.69,0,0,1,3.9-3.85,4.42,4.42,0,0,1,1.83.37l-.3,1a3.05,3.05,0,0,0-1.53-.34,2.74,2.74,0,0,0,0,5.46,3.84,3.84,0,0,0,1.62-.36Zm5.57.27-.11-.92h0a2.72,2.72,0,0,1-2.22,1.08,2.06,2.06,0,0,1-2.22-2.08c0-1.76,1.56-2.72,4.36-2.7v-.15a1.49,1.49,0,0,0-1.65-1.68,3.63,3.63,0,0,0-1.89.54l-.3-.87a4.51,4.51,0,0,1,2.39-.65c2.22,0,2.76,1.52,2.76,3v2.72a10.26,10.26,0,0,0,.12,1.74Zm-.2-3.71c-1.44,0-3.07.23-3.07,1.64a1.17,1.17,0,0,0,1.24,1.26,1.81,1.81,0,0,0,1.76-1.22,1.48,1.48,0,0,0,.07-.42ZM760,108.3v2.09h1.89v1H760v3.92c0,.9.25,1.41,1,1.41a3.13,3.13,0,0,0,.76-.09l.06,1a3.32,3.32,0,0,1-1.17.18,1.82,1.82,0,0,1-1.42-.56,2.66,2.66,0,0,1-.51-1.89v-4h-1.13v-1h1.13v-1.74Zm4.84,0a.77.77,0,0,1-.84.81.78.78,0,0,1-.79-.81.8.8,0,0,1,.82-.83A.78.78,0,0,1,764.81,108.35Zm-1.47,9.3v-7.26h1.32v7.26ZM773.42,114a3.55,3.55,0,0,1-3.61,3.85,3.45,3.45,0,0,1-3.48-3.73,3.55,3.55,0,0,1,3.6-3.86A3.44,3.44,0,0,1,773.42,114Zm-5.76.07c0,1.59.92,2.79,2.21,2.79s2.2-1.18,2.2-2.82c0-1.23-.61-2.79-2.17-2.79S767.66,112.65,767.66,114Zm7.43-1.68c0-.75,0-1.36-.06-2h1.17l.07,1.2h0a2.67,2.67,0,0,1,2.4-1.37c1,0,2.57.6,2.57,3.09v4.34H780v-4.19c0-1.17-.44-2.14-1.68-2.14a1.94,1.94,0,0,0-1.86,2v4.37h-1.32Z"/><line class="cls-11" x1="865.99" y1="113.5" x2="815.99" y2="113.5"/><line class="cls-11" x1="851.99" y1="104.5" x2="865.99" y2="113.5"/><line class="cls-11" x1="851.99" y1="122.5" x2="865.99" y2="113.5"/><text class="cls-23" transform="translate(801.8 137.26)">faul<tspan class="cls-54" x="24.98" y="0">t</tspan><tspan x="30.4" y="0">y/ non </tspan></text><text class="cls-23" transform="translate(819.51 152.25)">faul<tspan class="cls-54" x="24.98" y="0">t</tspan><tspan x="30.4" y="0">y</tspan></text><text class="cls-23" transform="translate(883.4 112.35)">use</text><text class="cls-23" transform="translate(876.33 125.34)"><tspan class="cls-55">r</tspan><tspan x="5.09" y="0">esult</tspan></text><line class="cls-6" x1="3.49" y1="152" x2="55.49" y2="152"/><path class="cls-7" d="M17.49,158a6,6,0,1,1,6-6,6,6,0,0,1-6,6"/><path d="M17.49,148a4,4,0,1,1-4,4,4,4,0,0,1,4-4m0-4a8,8,0,1,0,8,8,8,8,0,0,0-8-8"/><path d="M44.49,173a7,7,0,1,1,0,14h-17a7,7,0,0,1,0-14h17m0-4h-17a11,11,0,0,0,0,22h17a11,11,0,1,0,0-22"/><line class="cls-6" x1="18.49" y1="180" x2="18.49" y2="164"/><line class="cls-8" x1="18.49" y1="164" x2="31.49" y2="171"/><circle class="cls-6" cx="21.99" cy="169.5" r="1.5"/><path d="M44,178a1.5,1.5,0,1,0,1.5,1.5A1.5,1.5,0,0,0,44,178"/><path d="M36,178a1.5,1.5,0,1,0,1.5,1.5A1.5,1.5,0,0,0,36,178"/><path d="M28,178a1.5,1.5,0,1,0,1.5,1.5A1.5,1.5,0,0,0,28,178"/><text class="cls-12" transform="translate(4.36 205.55)"><tspan class="cls-16">C</tspan><tspan x="8.55" y="0">ommit</tspan></text><line class="cls-11" x1="120.99" y1="167.5" x2="70.99" y2="167.5"/><line class="cls-11" x1="106.99" y1="158.5" x2="120.99" y2="167.5"/><line class="cls-11" x1="106.99" y1="176.5" x2="120.99" y2="167.5"/><text class="cls-12" transform="translate(85.21 190.55)">on </text><text class="cls-12" transform="translate(69.31 199.55)"><tspan class="cls-56">c</tspan><tspan x="6.63" y="0">ommit</tspan></text><line class="cls-6" x1="142.49" y1="134" x2="142.49" y2="202"/><path class="cls-7" d="M142.49,154a6,6,0,1,1,6-6,6,6,0,0,1-6,6"/><path d="M142.49,144a4,4,0,1,1-4,4,4,4,0,0,1,4-4m0-4a8,8,0,1,0,8,8,8,8,0,0,0-8-8"/><path class="cls-7" d="M142.49,174a6,6,0,1,1,6-6,6,6,0,0,1-6,6"/><path d="M142.49,164a4,4,0,1,1-4,4,4,4,0,0,1,4-4m0-4a8,8,0,1,0,8,8,8,8,0,0,0-8-8"/><path class="cls-7" d="M142.49,194a6,6,0,1,1,6-6,6,6,0,0,1-6,6"/><path d="M142.49,184a4,4,0,1,1-4,4,4,4,0,0,1,4-4m0-4a8,8,0,1,0,8,8,8,8,0,0,0-8-8"/><text class="cls-12" transform="translate(152.49 156.55)">local</text><text class="cls-12" transform="translate(152.49 174.55)"><tspan class="cls-43">c</tspan><tspan x="6.65" y="0">ommit</tspan></text><text class="cls-12" transform="translate(152.49 192.55)">his<tspan class="cls-43" x="17.77" y="0">t</tspan><tspan x="22.66" y="0">o</tspan><tspan class="cls-57" x="30.9" y="0">r</tspan><tspan x="36.18" y="0">y</tspan></text><line class="cls-11" x1="260.99" y1="167.5" x2="210.99" y2="167.5"/><line class="cls-11" x1="246.99" y1="158.5" x2="260.99" y2="167.5"/><line class="cls-11" x1="246.99" y1="176.5" x2="260.99" y2="167.5"/><text class="cls-12" transform="translate(225.21 190.55)">on</text><text class="cls-12" transform="translate(217.96 205.55)">push</text><path d="M383.49,186h-104V149h104Zm5-42h-114v47h114Z"/><text class="cls-12" transform="translate(285.6 171.65)"><tspan class="cls-44">P</tspan><tspan class="cls-45" x="7.74" y="0">r</tspan><tspan class="cls-46" x="12.51" y="0">e</tspan><tspan x="20.44" y="0">-</tspan><tspan class="cls-18" x="25.05" y="0">P</tspan><tspan class="cls-58" x="32.8" y="0">ush Hook</tspan></text><line class="cls-11" x1="387.49" y1="62" x2="413.49" y2="62"/><line class="cls-11" x1="388.49" y1="168" x2="413.49" y2="168"/><line class="cls-11" x1="413.99" y1="62.5" x2="413.99" y2="167.5"/><rect x="2.49" width="241" height="26"/><text class="cls-59" transform="translate(10.28 17.89)"><tspan class="cls-60">T</tspan><tspan class="cls-26" x="7.33" y="0">ypical </tspan><tspan class="cls-41" x="49.76" y="0">C</tspan><tspan x="58.88" y="0">ommit</tspan><tspan class="cls-61" x="103.39" y="0"> </tspan><tspan class="cls-62" x="106.21" y="0">V</tspan><tspan x="114.62" y="0">alid</tspan><tspan class="cls-30" x="138.88" y="0">a</tspan><tspan x="146.54" y="0">tion </tspan><tspan class="cls-63" x="176.64" y="0">P</tspan><tspan class="cls-25" x="184.91" y="0">r</tspan><tspan x="189.98" y="0">o</tspan><tspan class="cls-64" x="198.77" y="0">c</tspan><tspan class="cls-29" x="205.85" y="0">ess</tspan></text></g><g id="Layer_3" data-name="Layer 3"><line class="cls-6" x1="0.49" y1="340" x2="52.49" y2="340"/><path class="cls-7" d="M14.49,346a6,6,0,1,1,6-6,6,6,0,0,1-6,6"/><path d="M14.49,336a4,4,0,1,1-4,4,4,4,0,0,1,4-4m0-4a8,8,0,1,0,8,8,8,8,0,0,0-8-8"/><path d="M41.49,361a7,7,0,1,1,0,14h-17a7,7,0,0,1,0-14h17m0-4h-17a11,11,0,0,0,0,22h17a11,11,0,1,0,0-22"/><line class="cls-6" x1="15.49" y1="368" x2="15.49" y2="352"/><line class="cls-8" x1="15.49" y1="352" x2="28.49" y2="359"/><circle class="cls-6" cx="18.99" cy="357.5" r="1.5"/><path d="M41,366a1.5,1.5,0,1,0,1.5,1.5A1.5,1.5,0,0,0,41,366"/><path d="M33,366a1.5,1.5,0,1,0,1.5,1.5A1.5,1.5,0,0,0,33,366"/><path d="M25,366a1.5,1.5,0,1,0,1.5,1.5A1.5,1.5,0,0,0,25,366"/><text class="cls-12" transform="translate(1.36 396.55)"><tspan class="cls-16">C</tspan><tspan x="8.55" y="0">ommit</tspan></text><path d="M239.49,374h-104V337h104Zm5-42h-114v47h114Z"/><line class="cls-11" x1="117.99" y1="355.5" x2="67.99" y2="355.5"/><line class="cls-11" x1="103.99" y1="346.5" x2="117.99" y2="355.5"/><line class="cls-11" x1="103.99" y1="364.5" x2="117.99" y2="355.5"/><text class="cls-12" transform="translate(82.21 381.55)">on </text><text class="cls-12" transform="translate(66.31 396.55)"><tspan class="cls-56">c</tspan><tspan x="6.63" y="0">ommit</tspan></text><text class="cls-12" transform="translate(149.74 352.64)"><tspan class="cls-44">P</tspan><tspan class="cls-45" x="7.74" y="0">r</tspan><tspan class="cls-46" x="12.51" y="0">e</tspan><tspan class="cls-47" x="20.44" y="0">-</tspan><tspan class="cls-48" x="25.26" y="0">C</tspan><tspan x="33.79" y="0">ommit </tspan></text><text class="cls-12" transform="translate(170.85 367.64)">Hook</text><path d="M435.49,372h-104V335h104Zm5-42h-114v47h114Z"/><line class="cls-11" x1="313.99" y1="353.5" x2="245.99" y2="354.5"/><line class="cls-11" x1="299.99" y1="344.5" x2="313.99" y2="353.5"/><line class="cls-11" x1="299.99" y1="362.5" x2="313.99" y2="353.5"/><text class="cls-12" transform="translate(259.81 378.55)"><tspan class="cls-43">c</tspan><tspan x="6.65" y="0">ommit </tspan></text><text class="cls-12" transform="translate(251.53 393.55)">changeset</text><text class="cls-12" transform="translate(337.46 357.65)">E<tspan class="cls-49" x="7.38" y="0">x</tspan><tspan x="14.5" y="0">t</tspan><tspan class="cls-22" x="19.47" y="0">r</tspan><tspan x="24.31" y="0">a</tspan><tspan class="cls-50" x="31.54" y="0">c</tspan><tspan class="cls-10" x="38.44" y="0">t </tspan><tspan class="cls-51" x="46.59" y="0">v</tspan><tspan class="cls-10" x="53.67" y="0">e</tspan><tspan class="cls-49" x="61.18" y="0">c</tspan><tspan class="cls-43" x="68.08" y="0">t</tspan><tspan class="cls-10" x="72.97" y="0">ors</tspan></text><path d="M626.49,372h-104V335h104Zm5-42h-114v47h114Z"/><line class="cls-11" x1="504.99" y1="353.5" x2="454.99" y2="353.5"/><line class="cls-11" x1="490.99" y1="344.5" x2="504.99" y2="353.5"/><line class="cls-11" x1="490.99" y1="362.5" x2="504.99" y2="353.5"/><text class="cls-12" transform="translate(454.76 376.55)"><tspan class="cls-51">v</tspan><tspan class="cls-10" x="7.08" y="0">e</tspan><tspan class="cls-50" x="14.59" y="0">c</tspan><tspan class="cls-20" x="21.49" y="0">t</tspan><tspan x="26.38" y="0">ors</tspan></text><path d="M540.94,357.38a4.89,4.89,0,0,1-2.09.42,3.45,3.45,0,0,1-3.61-3.71,3.69,3.69,0,0,1,3.9-3.85,4.42,4.42,0,0,1,1.83.37l-.3,1a3.08,3.08,0,0,0-1.53-.34,2.74,2.74,0,0,0,0,5.46,3.81,3.81,0,0,0,1.62-.36ZM542.48,347h1.32v10.65h-1.32ZM550,357.65l-.1-.92h-.05a2.69,2.69,0,0,1-2.22,1.08,2.06,2.06,0,0,1-2.22-2.08c0-1.76,1.56-2.72,4.37-2.7v-.15a1.5,1.5,0,0,0-1.65-1.68,3.6,3.6,0,0,0-1.89.54l-.3-.87a4.5,4.5,0,0,1,2.38-.65c2.22,0,2.76,1.52,2.76,3v2.72a10.26,10.26,0,0,0,.12,1.74Zm-.19-3.71c-1.44,0-3.08.23-3.08,1.64a1.17,1.17,0,0,0,1.25,1.26,1.8,1.8,0,0,0,1.75-1.22,1.2,1.2,0,0,0,.08-.42Zm3.22,2.36a3.51,3.51,0,0,0,1.74.52c1,0,1.41-.48,1.41-1.08s-.37-1-1.35-1.33c-1.3-.47-1.92-1.19-1.92-2.06a2.24,2.24,0,0,1,2.51-2.13,3.6,3.6,0,0,1,1.78.45l-.33,1a2.81,2.81,0,0,0-1.48-.42c-.78,0-1.22.45-1.22,1s.44.87,1.38,1.23c1.26.48,1.91,1.11,1.91,2.19,0,1.28-1,2.18-2.72,2.18a4.15,4.15,0,0,1-2-.5Zm5.94,0a3.51,3.51,0,0,0,1.74.52c1,0,1.41-.48,1.41-1.08s-.37-1-1.35-1.33c-1.3-.47-1.92-1.19-1.92-2.06a2.24,2.24,0,0,1,2.51-2.13,3.6,3.6,0,0,1,1.78.45l-.33,1a2.81,2.81,0,0,0-1.48-.42c-.78,0-1.22.45-1.22,1s.44.87,1.38,1.23c1.26.48,1.91,1.11,1.91,2.19,0,1.28-1,2.18-2.72,2.18a4.15,4.15,0,0,1-2-.5Zm7.59-7.95a.77.77,0,0,1-.84.81.78.78,0,0,1-.79-.81.8.8,0,0,1,.82-.83A.78.78,0,0,1,566.6,348.35Zm-1.47,9.3v-7.26h1.32v7.26Zm3.65,0v-6.26h-1v-1h1V350a2.91,2.91,0,0,1,3.16-3.17,3.65,3.65,0,0,1,1.85.48l-.38,1a2.71,2.71,0,0,0-1.53-.42c-1.39,0-1.8,1-1.8,2.13v.36h4.22v7.26H573v-6.26h-2.91v6.26Zm12.88-.27a4.83,4.83,0,0,1-2.08.42,3.46,3.46,0,0,1-3.62-3.71,3.69,3.69,0,0,1,3.9-3.85,4.42,4.42,0,0,1,1.83.37l-.3,1a3.05,3.05,0,0,0-1.53-.34,2.74,2.74,0,0,0,0,5.46,3.84,3.84,0,0,0,1.62-.36Zm5.57.27-.11-.92h0a2.72,2.72,0,0,1-2.22,1.08,2.06,2.06,0,0,1-2.22-2.08c0-1.76,1.56-2.72,4.36-2.7v-.15a1.49,1.49,0,0,0-1.65-1.68,3.63,3.63,0,0,0-1.89.54l-.3-.87a4.51,4.51,0,0,1,2.39-.65c2.22,0,2.76,1.52,2.76,3v2.72a10.26,10.26,0,0,0,.12,1.74Zm-.2-3.71c-1.44,0-3.07.23-3.07,1.64a1.17,1.17,0,0,0,1.24,1.26,1.81,1.81,0,0,0,1.76-1.22,1.48,1.48,0,0,0,.07-.42ZM592,348.3v2.09h1.89v1H592v3.92c0,.9.25,1.41,1,1.41a3.13,3.13,0,0,0,.76-.09l.06,1a3.32,3.32,0,0,1-1.17.18,1.82,1.82,0,0,1-1.42-.56,2.66,2.66,0,0,1-.51-1.89v-4h-1.13v-1h1.13v-1.74Zm4.84.05a.77.77,0,0,1-.84.81.78.78,0,0,1-.79-.81.8.8,0,0,1,.82-.83A.78.78,0,0,1,596.81,348.35Zm-1.47,9.3v-7.26h1.32v7.26ZM605.42,354a3.55,3.55,0,0,1-3.61,3.85,3.45,3.45,0,0,1-3.48-3.73,3.55,3.55,0,0,1,3.6-3.86A3.44,3.44,0,0,1,605.42,354Zm-5.76.07c0,1.59.92,2.79,2.21,2.79s2.2-1.18,2.2-2.82c0-1.23-.61-2.79-2.17-2.79S599.66,352.65,599.66,354Zm7.43-1.68c0-.75,0-1.36-.06-2h1.17l.07,1.2h0a2.67,2.67,0,0,1,2.4-1.37c1,0,2.57.6,2.57,3.09v4.34H612v-4.19c0-1.17-.44-2.14-1.68-2.14a1.94,1.94,0,0,0-1.86,2v4.37h-1.32Z"/><line class="cls-11" x1="697.99" y1="353.5" x2="647.99" y2="353.5"/><line class="cls-11" x1="683.99" y1="344.5" x2="697.99" y2="353.5"/><line class="cls-11" x1="683.99" y1="362.5" x2="697.99" y2="353.5"/><text class="cls-23" transform="translate(651.51 377.26)">faul<tspan class="cls-54" x="24.98" y="0">t</tspan><tspan x="30.4" y="0">y </tspan></text><text class="cls-23" transform="translate(651.83 392.25)"><tspan class="cls-55">r</tspan><tspan x="5.09" y="0">esult</tspan></text><rect x="5.49" y="277" width="116" height="26"/><text class="cls-59" transform="translate(13.28 294.89)">CL<tspan class="cls-54" x="16.83" y="0">E</tspan><tspan x="24.83" y="0">VER </tspan><tspan class="cls-63" x="53.63" y="0">P</tspan><tspan class="cls-41" x="61.9" y="0">r</tspan><tspan class="cls-29" x="66.97" y="0">o</tspan><tspan class="cls-28" x="75.76" y="0">c</tspan><tspan class="cls-29" x="82.83" y="0">ess</tspan></text><path d="M820.49,371h-104V334h104Zm5-42h-114v47h114Z"/><text class="cls-12" transform="translate(723.05 350.65)">No<tspan class="cls-65" x="18.1" y="0">r</tspan><tspan x="23.05" y="0">mali</tspan><tspan class="cls-66" x="49.84" y="0">z</tspan><tspan x="56.16" y="0">e and </tspan></text><text class="cls-12" transform="translate(739.49 365.65)"><tspan class="cls-67">f</tspan><tspan class="cls-53" x="4.2" y="0">o</tspan><tspan class="cls-68" x="12.43" y="0">r</tspan><tspan class="cls-69" x="17.4" y="0">mali</tspan><tspan class="cls-13" x="44.19" y="0">z</tspan><tspan x="50.52" y="0">e</tspan></text><path d="M820.49,488h-104V451h104Zm5-42h-114v47h114Z"/><text class="cls-12" transform="translate(724.32 467.65)"><tspan class="cls-70">C</tspan><tspan x="8.55" y="0">ompa</tspan><tspan class="cls-71" x="45.06" y="0">r</tspan><tspan class="cls-69" x="49.83" y="0">e with </tspan></text><text class="cls-12" transform="translate(722.6 482.65)"><tspan class="cls-72">k</tspan><tspan x="7.29" y="0">n</tspan><tspan class="cls-73" x="15.62" y="0">o</tspan><tspan x="23.76" y="0">wn de</tspan><tspan class="cls-67" x="62.28" y="0">f</tspan><tspan x="66.48" y="0">e</tspan><tspan class="cls-74" x="73.99" y="0">c</tspan><tspan x="80.91" y="0">ts</tspan></text><line class="cls-11" x1="768.99" y1="435.5" x2="768.99" y2="385.5"/><line class="cls-11" x1="777.99" y1="421.5" x2="768.99" y2="435.5"/><line class="cls-11" x1="759.99" y1="421.5" x2="768.99" y2="435.5"/><text class="cls-23" transform="translate(788.59 405.26)">m<tspan class="cls-75" x="13.34" y="0">a</tspan><tspan class="cls-64" x="20.99" y="0">t</tspan><tspan x="26.21" y="0">ching </tspan></text><text class="cls-76" transform="translate(791.53 420.25)">c<tspan class="cls-77" x="7.07" y="0">ommits</tspan></text><path d="M626.49,488h-104V451h104Zm5-42h-114v47h114Z"/><text class="cls-12" transform="translate(529.39 466.65)"><tspan class="cls-78">F</tspan><tspan x="6.92" y="0">ind m</tspan><tspan class="cls-35" x="42.9" y="0">a</tspan><tspan class="cls-20" x="50.08" y="0">t</tspan><tspan x="54.97" y="0">ching </tspan></text><path d="M561.71,481.65v-6.26h-1v-1h1V474a2.91,2.91,0,0,1,3.16-3.17,3.65,3.65,0,0,1,1.85.48l-.38,1a2.71,2.71,0,0,0-1.53-.42c-1.39,0-1.79,1-1.79,2.13v.36h4.21v7.26h-1.31v-6.26H563v6.26Zm8.32-7.26,1,1.56c.27.4.49.78.73,1.18h.05c.24-.43.48-.81.72-1.2l1-1.54H575l-2.47,3.51,2.55,3.75h-1.5L572.52,480c-.28-.42-.52-.82-.78-1.26h0c-.24.44-.49.83-.76,1.26l-1.05,1.64h-1.45l2.57-3.71-2.45-3.55Zm6.84,3.87a2.33,2.33,0,0,0,2.49,2.52,4.73,4.73,0,0,0,2-.38l.23,1a5.91,5.91,0,0,1-2.42.45,3.37,3.37,0,0,1-3.57-3.66c0-2.19,1.29-3.92,3.41-3.92,2.37,0,3,2.09,3,3.42a4.15,4.15,0,0,1,0,.62Zm3.87-.95a1.87,1.87,0,0,0-1.83-2.14,2.18,2.18,0,0,0-2,2.14Zm2.74,3a3.51,3.51,0,0,0,1.74.52c1,0,1.4-.48,1.4-1.08s-.37-1-1.34-1.33c-1.31-.47-1.92-1.19-1.92-2.06a2.23,2.23,0,0,1,2.5-2.13,3.6,3.6,0,0,1,1.78.45l-.33,1a2.81,2.81,0,0,0-1.48-.42c-.78,0-1.21.45-1.21,1s.43.87,1.38,1.23c1.25.48,1.9,1.11,1.9,2.19,0,1.28-1,2.18-2.71,2.18a4.13,4.13,0,0,1-2-.5Z"/><line class="cls-11" x1="645.99" y1="469.5" x2="695.99" y2="469.5"/><line class="cls-11" x1="659.99" y1="478.5" x2="645.99" y2="469.5"/><line class="cls-11" x1="659.99" y1="460.5" x2="645.99" y2="469.5"/><text class="cls-12" transform="translate(645.76 492.55)"><tspan class="cls-45">v</tspan><tspan x="7.08" y="0">e</tspan><tspan class="cls-52" x="14.59" y="0">c</tspan><tspan class="cls-43" x="21.5" y="0">t</tspan><tspan class="cls-53" x="26.38" y="0">ors</tspan></text><path d="M434.49,488h-104V451h104Zm5-42h-114v47h114Z"/><path d="M342.43,463.47l-1.05,3.18H340l3.43-10.11H345l3.45,10.11h-1.39L346,463.47Zm3.31-1-1-2.91c-.22-.66-.37-1.26-.52-1.85h0c-.15.6-.32,1.22-.51,1.83l-1,2.93ZM356,456v8.77c0,.65,0,1.38.06,1.88h-1.18l-.06-1.26h0a2.68,2.68,0,0,1-2.47,1.42c-1.76,0-3.11-1.48-3.11-3.69,0-2.41,1.49-3.9,3.26-3.9a2.42,2.42,0,0,1,2.18,1.11h0V456Zm-1.32,6.34a2.06,2.06,0,0,0-.06-.55,1.93,1.93,0,0,0-1.9-1.53c-1.36,0-2.17,1.2-2.17,2.8s.72,2.69,2.14,2.69a2,2,0,0,0,1.93-1.58,2.08,2.08,0,0,0,.06-.57Zm7.53,4.31-.1-.92h-.05a2.68,2.68,0,0,1-2.21,1.08,2.06,2.06,0,0,1-2.22-2.08c0-1.76,1.56-2.72,4.36-2.7v-.15a1.5,1.5,0,0,0-1.65-1.68,3.63,3.63,0,0,0-1.89.54l-.3-.87a4.5,4.5,0,0,1,2.38-.65c2.22,0,2.76,1.52,2.76,3v2.72a10.26,10.26,0,0,0,.12,1.74Zm-.19-3.71c-1.44,0-3.07.23-3.07,1.64a1.17,1.17,0,0,0,1.24,1.26,1.8,1.8,0,0,0,1.75-1.22,1.2,1.2,0,0,0,.08-.42Zm3.41-1.18c0-.93,0-1.68-.06-2.37h1.18l.06,1.24h0a2.86,2.86,0,0,1,2.58-1.41c1.75,0,3.07,1.49,3.07,3.69,0,2.61-1.59,3.9-3.3,3.9a2.53,2.53,0,0,1-2.23-1.14h0v3.95h-1.3Zm1.3,1.93a2.87,2.87,0,0,0,.06.54,2,2,0,0,0,2,1.55c1.39,0,2.2-1.14,2.2-2.81,0-1.45-.76-2.7-2.16-2.7a2.1,2.1,0,0,0-2,1.64,1.91,1.91,0,0,0-.09.54Zm8.82-6.39v2.09h1.89v1h-1.89v3.92c0,.9.25,1.41,1,1.41a3.13,3.13,0,0,0,.76-.09l.06,1a3.32,3.32,0,0,1-1.17.18,1.82,1.82,0,0,1-1.42-.56,2.71,2.71,0,0,1-.51-1.89v-4h-1.12v-1h1.12v-1.74Zm6.69,9.35v-6.26h-1v-1h1V459a2.91,2.91,0,0,1,3.16-3.17,3.65,3.65,0,0,1,1.85.48l-.38,1a2.71,2.71,0,0,0-1.53-.42c-1.39,0-1.8,1-1.8,2.13v.36h4.22v7.26h-1.31v-6.26h-2.91v6.26Zm8.32-7.26,1,1.56c.27.4.49.78.73,1.18h.05c.24-.43.48-.81.72-1.2l1-1.54h1.42l-2.47,3.51,2.55,3.75h-1.5L393.06,465c-.28-.42-.52-.82-.78-1.26h0c-.24.44-.49.83-.76,1.26l-1.05,1.64H389l2.58-3.71-2.46-3.55Zm6.84,3.87a2.33,2.33,0,0,0,2.49,2.52,4.73,4.73,0,0,0,2-.38l.23,1a5.91,5.91,0,0,1-2.42.45,3.37,3.37,0,0,1-3.57-3.66c0-2.19,1.29-3.92,3.41-3.92,2.37,0,3,2.09,3,3.42a4.15,4.15,0,0,1-.05.62Zm3.87-.95a1.87,1.87,0,0,0-1.83-2.14,2.18,2.18,0,0,0-2,2.14Zm2.73,3a3.51,3.51,0,0,0,1.74.52c1,0,1.41-.48,1.41-1.08s-.37-1-1.35-1.33c-1.3-.47-1.92-1.19-1.92-2.06a2.24,2.24,0,0,1,2.51-2.13,3.6,3.6,0,0,1,1.78.45l-.33,1a2.81,2.81,0,0,0-1.48-.42c-.78,0-1.22.45-1.22,1s.44.87,1.38,1.23c1.26.48,1.91,1.11,1.91,2.19,0,1.28-1,2.18-2.72,2.18a4.15,4.15,0,0,1-2-.5Zm10.89-8v2.09h1.89v1H414.9v3.92c0,.9.26,1.41,1,1.41a3.22,3.22,0,0,0,.77-.09l.06,1a3.37,3.37,0,0,1-1.17.18,1.84,1.84,0,0,1-1.43-.56,2.71,2.71,0,0,1-.51-1.89v-4h-1.12v-1h1.12v-1.74Zm9.86,5.66a3.55,3.55,0,0,1-3.62,3.85,3.45,3.45,0,0,1-3.48-3.73,3.55,3.55,0,0,1,3.6-3.86A3.44,3.44,0,0,1,424.76,463ZM419,463c0,1.59.91,2.79,2.2,2.79s2.21-1.18,2.21-2.82c0-1.23-.62-2.79-2.18-2.79S419,461.65,419,463Z"/><text class="cls-12" transform="translate(343.67 481.65)">new <tspan class="cls-20" x="30.06" y="0">c</tspan><tspan x="36.7" y="0">o</tspan><tspan class="cls-22" x="44.94" y="0">n</tspan><tspan class="cls-20" x="53.2" y="0">t</tspan><tspan class="cls-79" x="58.09" y="0">e</tspan><tspan class="cls-74" x="65.58" y="0">x</tspan><tspan x="72.72" y="0">t</tspan></text><line class="cls-11" x1="453.99" y1="469.5" x2="503.99" y2="469.5"/><line class="cls-11" x1="467.99" y1="478.5" x2="453.99" y2="469.5"/><line class="cls-11" x1="467.99" y1="460.5" x2="453.99" y2="469.5"/><text class="cls-12" transform="translate(453.76 492.55)"><tspan class="cls-51">v</tspan><tspan class="cls-10" x="7.08" y="0">e</tspan><tspan class="cls-50" x="14.59" y="0">c</tspan><tspan class="cls-20" x="21.49" y="0">t</tspan><tspan x="26.38" y="0">ors</tspan></text><line class="cls-11" x1="260.99" y1="470.5" x2="310.99" y2="470.5"/><line class="cls-11" x1="274.99" y1="479.5" x2="260.99" y2="470.5"/><line class="cls-11" x1="274.99" y1="461.5" x2="260.99" y2="470.5"/><text class="cls-12" transform="translate(194.84 468.55)">adap<tspan class="cls-43" x="31.45" y="0">t</tspan><tspan class="cls-10" x="36.34" y="0">ed </tspan></text><path d="M208.22,483.55v-6.26h-1v-1h1v-.39a2.91,2.91,0,0,1,3.16-3.17,3.65,3.65,0,0,1,1.85.48l-.38,1a2.71,2.71,0,0,0-1.53-.42c-1.39,0-1.8,1-1.8,2.13v.36h4.22v7.26h-1.31v-6.26h-2.91v6.26Zm8.32-7.26,1,1.56c.27.4.49.78.73,1.18h.05c.24-.43.48-.81.72-1.2l1-1.54h1.42l-2.47,3.51,2.55,3.75h-1.5L219,481.91c-.28-.42-.52-.82-.78-1.26h0c-.24.44-.49.83-.76,1.26l-1.05,1.64H215l2.58-3.71-2.46-3.55Zm6.84,3.87a2.33,2.33,0,0,0,2.49,2.52,4.73,4.73,0,0,0,2-.38l.23.95a5.91,5.91,0,0,1-2.42.45,3.37,3.37,0,0,1-3.57-3.66c0-2.19,1.29-3.92,3.41-3.92,2.37,0,3,2.09,3,3.42a4.15,4.15,0,0,1-.05.62Zm3.87-1a1.87,1.87,0,0,0-1.83-2.14,2.18,2.18,0,0,0-2,2.14Zm2.73,3a3.51,3.51,0,0,0,1.74.52c1,0,1.41-.48,1.41-1.08s-.37-1-1.35-1.33c-1.3-.47-1.92-1.19-1.92-2.06a2.24,2.24,0,0,1,2.51-2.13,3.6,3.6,0,0,1,1.78.45l-.33,1a2.81,2.81,0,0,0-1.48-.42c-.78,0-1.22.45-1.22,1s.44.87,1.38,1.23c1.26.48,1.91,1.11,1.91,2.19,0,1.28-1,2.18-2.72,2.18a4.15,4.15,0,0,1-2-.5Z"/></g></g></svg>