<svg xmlns="http://www.w3.org/2000/svg" viewBox="0 0 750.8 963.3"><defs><style>.cls-1,.cls-3,.cls-6{fill:none;stroke:#000;stroke-miterlimit:10;}.cls-1,.cls-3{stroke-width:4px;}.cls-2{fill:#fff;}.cls-3,.cls-6{stroke-linecap:round;}.cls-4,.cls-7{font-size:15px;}.cls-18,.cls-4,.cls-66,.cls-7{font-family:MyriadPro-Regular, Myriad Pro;}.cls-4,.cls-43{letter-spacing:-0.01em;}.cls-5{letter-spacing:0em;}.cls-6{stroke-width:5px;}.cls-8{letter-spacing:-0.01em;}.cls-9{letter-spacing:0.03em;}.cls-10{letter-spacing:-0.02em;}.cls-11{letter-spacing:-0.01em;}.cls-12{letter-spacing:0.03em;}.cls-13{letter-spacing:-0.02em;}.cls-14{letter-spacing:0.01em;}.cls-15{letter-spacing:0em;}.cls-16{letter-spacing:0.01em;}.cls-17{letter-spacing:0em;}.cls-18,.cls-66{font-size:16px;}.cls-19{letter-spacing:0.01em;}.cls-20{letter-spacing:-0.01em;}.cls-21{letter-spacing:0em;}.cls-22{letter-spacing:0.02em;}.cls-23{letter-spacing:-0.01em;}.cls-24{letter-spacing:0em;}.cls-25{letter-spacing:0em;}.cls-26{letter-spacing:0.01em;}.cls-27{letter-spacing:0em;}.cls-28{letter-spacing:0.01em;}.cls-29{letter-spacing:-0.01em;}.cls-30{letter-spacing:0em;}.cls-31{letter-spacing:0.02em;}.cls-32{letter-spacing:0.01em;}.cls-33{letter-spacing:0em;}.cls-34{letter-spacing:0.01em;}.cls-35,.cls-66{letter-spacing:-0.01em;}.cls-36{letter-spacing:-0.01em;}.cls-37{letter-spacing:0.02em;}.cls-38{letter-spacing:-0.01em;}.cls-39{letter-spacing:-0.02em;}.cls-40{letter-spacing:-0.01em;}.cls-41{letter-spacing:0.03em;}.cls-42{letter-spacing:0.01em;}.cls-44{letter-spacing:0.01em;}.cls-45{letter-spacing:0.01em;}.cls-46{letter-spacing:-0.01em;}.cls-47{letter-spacing:0.01em;}.cls-48{letter-spacing:0em;}.cls-49{letter-spacing:0.01em;}.cls-50{letter-spacing:-0.01em;}.cls-51{letter-spacing:-0.01em;}.cls-52{letter-spacing:0.03em;}.cls-53{letter-spacing:0em;}.cls-54{letter-spacing:0em;}.cls-55{letter-spacing:-0.01em;}.cls-56{letter-spacing:-0.01em;}.cls-57{letter-spacing:0em;}.cls-58{letter-spacing:0em;}.cls-59{letter-spacing:-0.01em;}.cls-60{letter-spacing:-0.01em;}.cls-61{letter-spacing:0.02em;}.cls-62{letter-spacing:-0.01em;}.cls-63{letter-spacing:0.01em;}.cls-64{letter-spacing:0em;}.cls-65{letter-spacing:-0.01em;}.cls-67{letter-spacing:0em;}.cls-68{letter-spacing:-0.03em;}.cls-69{letter-spacing:0em;}</style></defs><title>allprocesses-svg</title><g id="Layer_2" data-name="Layer 2"><g id="Layer_1-2" data-name="Layer 1"><line class="cls-1" x1="6" y1="580.94" x2="58" y2="580.94"/><circle class="cls-2" cx="20" cy="580.94" r="6"/><path d="M20,576.94a4,4,0,1,1-4,4,4,4,0,0,1,4-4m0-4a8,8,0,1,0,8,8,8,8,0,0,0-8-8Z"/><path d="M47,601.94a7,7,0,0,1,0,14H30a7,7,0,0,1,0-14H47m0-4H30a11,11,0,0,0,0,22H47a11,11,0,0,0,0-22Z"/><line class="cls-1" x1="21" y1="608.94" x2="21" y2="592.94"/><line class="cls-3" x1="21" y1="592.94" x2="34" y2="599.94"/><circle class="cls-1" cx="24.5" cy="598.44" r="1.5"/><path d="M46.5,606.94a1.5,1.5,0,1,0,1.5,1.5,1.5,1.5,0,0,0-1.5-1.5Z"/><path d="M38.5,606.94a1.5,1.5,0,1,0,1.5,1.5,1.5,1.5,0,0,0-1.5-1.5Z"/><path d="M30.5,606.94a1.5,1.5,0,1,0,1.5,1.5,1.5,1.5,0,0,0-1.5-1.5Z"/><text class="cls-4" transform="translate(6.87 634.49)">C<tspan class="cls-5" x="8.53" y="0">ommit</tspan></text><line class="cls-6" x1="120.5" y1="596.44" x2="70.5" y2="596.44"/><line class="cls-6" x1="106.5" y1="587.44" x2="120.5" y2="596.44"/><line class="cls-6" x1="106.5" y1="605.44" x2="120.5" y2="596.44"/><text class="cls-7" transform="translate(84.72 619.49)">on <tspan class="cls-8" x="-15.9" y="9">c</tspan><tspan x="-9.27" y="9">ommit</tspan></text><line class="cls-1" x1="141" y1="562.94" x2="141" y2="630.94"/><circle class="cls-2" cx="141" cy="576.94" r="6"/><path d="M141,572.94a4,4,0,1,1-4,4,4,4,0,0,1,4-4m0-4a8,8,0,1,0,8,8,8,8,0,0,0-8-8Z"/><circle class="cls-2" cx="141" cy="596.94" r="6"/><path d="M141,592.94a4,4,0,1,1-4,4,4,4,0,0,1,4-4m0-4a8,8,0,1,0,8,8,8,8,0,0,0-8-8Z"/><circle class="cls-2" cx="141" cy="616.94" r="6"/><path d="M141,612.94a4,4,0,1,1-4,4,4,4,0,0,1,4-4m0-4a8,8,0,1,0,8,8,8,8,0,0,0-8-8Z"/><text class="cls-7" transform="translate(151 585.49)">local<tspan class="cls-8" x="0" y="18">c</tspan><tspan x="6.63" y="18">ommit</tspan><tspan x="0" y="36">his</tspan><tspan class="cls-8" x="17.77" y="36">t</tspan><tspan x="22.65" y="36">o</tspan><tspan class="cls-9" x="30.88" y="36">r</tspan><tspan x="36.16" y="36">y</tspan></text><line class="cls-6" x1="253.5" y1="596.44" x2="203.5" y2="596.44"/><line class="cls-6" x1="239.5" y1="587.44" x2="253.5" y2="596.44"/><line class="cls-6" x1="239.5" y1="605.44" x2="253.5" y2="596.44"/><text class="cls-7" transform="translate(217.72 619.49)">on<tspan x="-7.25" y="15">push</tspan></text><path d="M376,577.94v37H272v-37H376m5-5H267v47H381v-47Z"/><text class="cls-7" transform="translate(278.11 600.59)"><tspan class="cls-10">P</tspan><tspan class="cls-11" x="7.74" y="0">r</tspan><tspan class="cls-12" x="12.5" y="0">e</tspan><tspan x="20.43" y="0">-</tspan><tspan class="cls-13" x="25.03" y="0">P</tspan><tspan x="32.79" y="0">ush Hook</tspan></text><path d="M584,577.94v37H480v-37H584m5-5H475v47H589v-47Z"/><line class="cls-6" x1="462.5" y1="596.44" x2="394.5" y2="597.44"/><line class="cls-6" x1="448.5" y1="587.44" x2="462.5" y2="596.44"/><line class="cls-6" x1="448.5" y1="605.44" x2="462.5" y2="596.44"/><text class="cls-7" transform="translate(405.32 621.49)"><tspan class="cls-8">c</tspan><tspan x="6.63" y="0">ommit </tspan><tspan x="-8.28" y="15">changeset</tspan></text><text class="cls-7" transform="translate(485.97 600.59)">E<tspan class="cls-14" x="7.38" y="0">x</tspan><tspan x="14.52" y="0">t</tspan><tspan class="cls-15" x="19.48" y="0">r</tspan><tspan x="24.31" y="0">a</tspan><tspan class="cls-14" x="31.54" y="0">c</tspan><tspan x="38.46" y="0">t </tspan><tspan class="cls-11" x="46.6" y="0">v</tspan><tspan x="53.67" y="0">e</tspan><tspan class="cls-16" x="61.18" y="0">c</tspan><tspan class="cls-8" x="68.1" y="0">t</tspan><tspan x="72.97" y="0">ors</tspan></text><path d="M583.49,685v37h-104V685h104m5-5h-114v47h114V680Z"/><line class="cls-6" x1="528.99" y1="667.5" x2="528.99" y2="632.5"/><line class="cls-6" x1="537.99" y1="653.5" x2="528.99" y2="667.5"/><line class="cls-6" x1="519.99" y1="653.5" x2="528.99" y2="667.5"/><text class="cls-7" transform="translate(548.28 654.49)"><tspan class="cls-11">v</tspan><tspan x="7.06" y="0">e</tspan><tspan class="cls-14" x="14.58" y="0">c</tspan><tspan class="cls-8" x="21.49" y="0">t</tspan><tspan x="26.37" y="0">ors</tspan></text><text class="cls-7" transform="translate(491.66 707.65)">classific<tspan class="cls-17" x="47.44" y="0">a</tspan><tspan x="54.61" y="0">tion</tspan></text><line class="cls-6" x1="401.99" y1="704.5" x2="451.99" y2="704.5"/><line class="cls-6" x1="415.99" y1="713.5" x2="401.99" y2="704.5"/><line class="cls-6" x1="415.99" y1="695.5" x2="401.99" y2="704.5"/><text class="cls-18" transform="translate(387.8 728.26)">faul<tspan class="cls-19" x="24.98" y="0">t</tspan><tspan x="30.42" y="0">y/ non </tspan><tspan x="17.71" y="15">faul</tspan><tspan class="cls-19" x="42.69" y="15">t</tspan><tspan x="48.13" y="15">y</tspan></text><text class="cls-18" transform="translate(299.27 702.3)"><tspan class="cls-20">r</tspan><tspan class="cls-21" x="5.07" y="0">epo</tspan><tspan class="cls-22" x="30.98" y="0">r</tspan><tspan x="36.59" y="0">t on </tspan><tspan class="cls-23" x="-11.86" y="15">c</tspan><tspan class="cls-24" x="-4.78" y="15">ommi</tspan><tspan class="cls-25" x="34.43" y="15">t</tspan><tspan x="39.68" y="15">.guru</tspan></text><text class="cls-7" transform="translate(676.8 702.65)">E-<tspan class="cls-26" x="11.98" y="0">M</tspan><tspan x="24.13" y="0">ail</tspan><tspan x="-17.47" y="15">Notific</tspan><tspan class="cls-17" x="23.68" y="15">a</tspan><tspan x="30.85" y="15">tion</tspan></text><line class="cls-1" x1="8" y1="816.94" x2="8" y2="884.94"/><circle class="cls-2" cx="8" cy="830.94" r="6"/><path d="M8,826.94a4,4,0,1,1-4,4,4,4,0,0,1,4-4m0-4a8,8,0,1,0,8,8,8,8,0,0,0-8-8Z"/><circle class="cls-2" cx="8" cy="850.94" r="6"/><path d="M8,846.94a4,4,0,1,1-4,4,4,4,0,0,1,4-4m0-4a8,8,0,1,0,8,8,8,8,0,0,0-8-8Z"/><circle class="cls-2" cx="8" cy="870.94" r="6"/><path d="M8,866.94a4,4,0,1,1-4,4,4,4,0,0,1,4-4m0-4a8,8,0,1,0,8,8,8,8,0,0,0-8-8Z"/><text class="cls-7" transform="translate(18 839.49)">GitHub <tspan class="cls-27" x="0" y="18">R</tspan><tspan x="8.13" y="18">emo</tspan><tspan class="cls-8" x="36.39" y="18">t</tspan><tspan x="41.26" y="18">e </tspan><tspan class="cls-28" x="0" y="36">H</tspan><tspan x="9.93" y="36">is</tspan><tspan class="cls-8" x="19.38" y="36">t</tspan><tspan x="24.25" y="36">o</tspan><tspan class="cls-9" x="32.49" y="36">r</tspan><tspan x="37.77" y="36">y</tspan></text><line class="cls-6" x1="129.5" y1="850.44" x2="79.5" y2="850.44"/><line class="cls-6" x1="115.5" y1="841.44" x2="129.5" y2="850.44"/><line class="cls-6" x1="115.5" y1="859.44" x2="129.5" y2="850.44"/><text class="cls-7" transform="translate(76.58 873.49)">opening <tspan x="-6.25" y="15">in B</tspan><tspan class="cls-11" x="16.89" y="15">r</tspan><tspan class="cls-29" x="21.64" y="15">o</tspan><tspan class="cls-8" x="29.77" y="15">w</tspan><tspan x="40.72" y="15">ser</tspan></text><path d="M256,831.94v37H152v-37H256m5-5H147v47H261v-47Z"/><text class="cls-7" transform="translate(162.23 854.59)"><tspan class="cls-30">A</tspan><tspan x="9.14" y="0">nal</tspan><tspan class="cls-8" x="28.23" y="0">y</tspan><tspan x="35.21" y="0">sis </tspan><tspan class="cls-30" x="53.77" y="0">S</tspan><tspan x="61.12" y="0">ta</tspan><tspan class="cls-31" x="73.32" y="0">r</tspan><tspan x="78.58" y="0">t</tspan></text><path d="M464,831.94v37H360v-37H464m5-5H355v47H469v-47Z"/><line class="cls-6" x1="342.5" y1="850.44" x2="274.5" y2="851.44"/><line class="cls-6" x1="328.5" y1="841.44" x2="342.5" y2="850.44"/><line class="cls-6" x1="328.5" y1="859.44" x2="342.5" y2="850.44"/><text class="cls-7" transform="translate(285.32 875.49)"><tspan class="cls-8">c</tspan><tspan x="6.63" y="0">ommit </tspan><tspan x="-8.28" y="15">changeset</tspan></text><text class="cls-7" transform="translate(365.97 854.59)">E<tspan class="cls-14" x="7.38" y="0">x</tspan><tspan x="14.52" y="0">t</tspan><tspan class="cls-15" x="19.48" y="0">r</tspan><tspan x="24.31" y="0">a</tspan><tspan class="cls-14" x="31.54" y="0">c</tspan><tspan x="38.46" y="0">t </tspan><tspan class="cls-11" x="46.6" y="0">v</tspan><tspan x="53.67" y="0">e</tspan><tspan class="cls-16" x="61.18" y="0">c</tspan><tspan class="cls-8" x="68.1" y="0">t</tspan><tspan x="72.97" y="0">ors</tspan></text><path d="M655,831.94v37H551v-37H655m5-5H546v47H660v-47Z"/><line class="cls-6" x1="533.5" y1="850.44" x2="483.5" y2="850.44"/><line class="cls-6" x1="519.5" y1="841.44" x2="533.5" y2="850.44"/><line class="cls-6" x1="519.5" y1="859.44" x2="533.5" y2="850.44"/><text class="cls-7" transform="translate(483.28 873.49)"><tspan class="cls-11">v</tspan><tspan x="7.06" y="0">e</tspan><tspan class="cls-14" x="14.58" y="0">c</tspan><tspan class="cls-8" x="21.49" y="0">t</tspan><tspan x="26.37" y="0">ors</tspan></text><text class="cls-7" transform="translate(563.93 847.65)"><tspan class="cls-30">A</tspan><tspan x="9.14" y="0">bno</tspan><tspan class="cls-27" x="34.23" y="0">r</tspan><tspan x="39.19" y="0">mali</tspan><tspan class="cls-32" x="65.98" y="0">t</tspan><tspan x="71.08" y="0">y </tspan><tspan class="cls-29" x="4.03" y="15">C</tspan><tspan x="12.62" y="15">alcul</tspan><tspan class="cls-17" x="41.92" y="15">a</tspan><tspan x="49.09" y="15">tion</tspan></text><line class="cls-6" x1="602.99" y1="923.5" x2="602.99" y2="884.5"/><line class="cls-6" x1="611.99" y1="909.5" x2="602.99" y2="923.5"/><line class="cls-6" x1="593.99" y1="909.5" x2="602.99" y2="923.5"/><text class="cls-18" transform="translate(625.58 901.2)">abno<tspan class="cls-33" x="34.48" y="0">r</tspan><tspan x="39.78" y="0">mali</tspan><tspan class="cls-34" x="68.35" y="0">t</tspan><tspan x="73.79" y="0">y </tspan><tspan x="23.02" y="15">s</tspan><tspan class="cls-35" x="29.36" y="15">c</tspan><tspan x="36.43" y="15">o</tspan><tspan class="cls-36" x="45.22" y="15">r</tspan><tspan x="50.29" y="15">e</tspan></text><text class="cls-18" transform="translate(573.04 944.3)"><tspan class="cls-20">r</tspan><tspan class="cls-21" x="5.07" y="0">epo</tspan><tspan class="cls-22" x="30.98" y="0">r</tspan><tspan x="36.59" y="0">t in </tspan><tspan class="cls-35" x="-21.59" y="15">c</tspan><tspan x="-14.52" y="15">ommit his</tspan><tspan class="cls-23" x="52.34" y="15">t</tspan><tspan x="57.54" y="15">o</tspan><tspan class="cls-37" x="66.33" y="15">r</tspan><tspan x="71.96" y="15">y</tspan></text><line class="cls-6" x1="647.99" y1="704.5" x2="597.99" y2="704.5"/><line class="cls-6" x1="633.99" y1="695.5" x2="647.99" y2="704.5"/><line class="cls-6" x1="633.99" y1="713.5" x2="647.99" y2="704.5"/></g><g id="Layer_2-2" data-name="Layer 2"><line class="cls-1" x1="140.49" y1="8" x2="192.49" y2="8"/><path class="cls-2" d="M154.49,14a6,6,0,1,1,6-6,6,6,0,0,1-6,6"/><path d="M154.49,4a4,4,0,1,1-4,4,4,4,0,0,1,4-4m0-4a8,8,0,1,0,8,8,8,8,0,0,0-8-8"/><path d="M181.49,29a7,7,0,0,1,0,14h-17a7,7,0,0,1,0-14h17m0-4h-17a11,11,0,0,0,0,22h17a11,11,0,0,0,0-22"/><line class="cls-1" x1="155.49" y1="36" x2="155.49" y2="20"/><line class="cls-3" x1="155.49" y1="20" x2="168.49" y2="27"/><circle class="cls-1" cx="158.99" cy="25.5" r="1.5"/><path d="M181,34a1.5,1.5,0,1,0,1.5,1.5A1.5,1.5,0,0,0,181,34"/><path d="M173,34a1.5,1.5,0,1,0,1.5,1.5A1.5,1.5,0,0,0,173,34"/><path d="M165,34a1.5,1.5,0,1,0,1.5,1.5A1.5,1.5,0,0,0,165,34"/><text class="cls-7" transform="translate(141.36 64.55)"><tspan class="cls-11">C</tspan><tspan x="8.55" y="0">ommit</tspan></text><path d="M382.49,42h-104V5h104Zm5-42h-114V47h114Z"/><line class="cls-6" x1="260.99" y1="23.5" x2="210.99" y2="23.5"/><line class="cls-6" x1="246.99" y1="14.5" x2="260.99" y2="23.5"/><line class="cls-6" x1="246.99" y1="32.5" x2="260.99" y2="23.5"/><text class="cls-7" transform="translate(225.21 49.55)">on </text><text class="cls-7" transform="translate(209.31 64.55)"><tspan class="cls-38">c</tspan><tspan x="6.65" y="0">ommit</tspan></text><text class="cls-7" transform="translate(292.74 20.65)"><tspan class="cls-39">P</tspan><tspan class="cls-40" x="7.74" y="0">r</tspan><tspan class="cls-41" x="12.51" y="0">e</tspan><tspan class="cls-42" x="20.44" y="0">-</tspan><tspan class="cls-43" x="25.26" y="0">C</tspan><tspan x="33.79" y="0">ommit </tspan></text><text class="cls-7" transform="translate(313.85 35.65)">Hook</text><path d="M603.49,50h-104V13h104Zm5-42h-114V55h114Z"/><line class="cls-6" x1="481.99" y1="31.5" x2="413.99" y2="32.5"/><line class="cls-6" x1="467.99" y1="22.5" x2="481.99" y2="31.5"/><line class="cls-6" x1="467.99" y1="40.5" x2="481.99" y2="31.5"/><text class="cls-7" transform="translate(427.81 56.55)"><tspan class="cls-38">c</tspan><tspan x="6.65" y="0">ommit </tspan></text><text class="cls-7" transform="translate(419.53 71.55)">changeset</text><text class="cls-7" transform="translate(505.46 35.65)">E<tspan class="cls-44" x="7.38" y="0">x</tspan><tspan x="14.5" y="0">t</tspan><tspan class="cls-17" x="19.47" y="0">r</tspan><tspan x="24.31" y="0">a</tspan><tspan class="cls-45" x="31.54" y="0">c</tspan><tspan class="cls-5" x="38.44" y="0">t </tspan><tspan class="cls-46" x="46.59" y="0">v</tspan><tspan class="cls-5" x="53.67" y="0">e</tspan><tspan class="cls-44" x="61.18" y="0">c</tspan><tspan class="cls-8" x="68.08" y="0">t</tspan><tspan x="72.96" y="0">ors</tspan></text><path d="M603.49,148h-104V111h104Zm5-42h-114v47h114Z"/><line class="cls-6" x1="551.99" y1="97.5" x2="551.99" y2="65"/><line class="cls-6" x1="560.99" y1="83.5" x2="551.99" y2="97.5"/><line class="cls-6" x1="542.99" y1="83.5" x2="551.99" y2="97.5"/><text class="cls-7" transform="translate(571.76 84.55)"><tspan class="cls-40">v</tspan><tspan x="7.08" y="0">e</tspan><tspan class="cls-47" x="14.59" y="0">c</tspan><tspan class="cls-38" x="21.5" y="0">t</tspan><tspan class="cls-48" x="26.38" y="0">ors</tspan></text><path d="M517.94,133.38a4.89,4.89,0,0,1-2.09.42,3.45,3.45,0,0,1-3.61-3.7,3.69,3.69,0,0,1,3.9-3.86,4.4,4.4,0,0,1,1.83.38l-.3,1a3.07,3.07,0,0,0-1.53-.35,2.74,2.74,0,0,0,0,5.46,3.81,3.81,0,0,0,1.62-.36ZM519.48,123h1.32v10.65h-1.32ZM527,133.65l-.1-.92h-.05a2.69,2.69,0,0,1-2.22,1.08,2.06,2.06,0,0,1-2.22-2.08c0-1.75,1.56-2.71,4.37-2.7v-.15a1.5,1.5,0,0,0-1.65-1.68,3.6,3.6,0,0,0-1.89.54l-.3-.87a4.5,4.5,0,0,1,2.38-.64c2.22,0,2.76,1.51,2.76,3v2.71a10.26,10.26,0,0,0,.12,1.74Zm-.19-3.7c-1.44,0-3.08.22-3.08,1.63a1.17,1.17,0,0,0,1.25,1.26,1.81,1.81,0,0,0,1.75-1.21,1.3,1.3,0,0,0,.08-.42Zm3.22,2.35a3.51,3.51,0,0,0,1.74.52c1,0,1.41-.48,1.41-1.08s-.37-1-1.35-1.33c-1.3-.46-1.92-1.18-1.92-2a2.24,2.24,0,0,1,2.51-2.13,3.6,3.6,0,0,1,1.78.45l-.33,1a2.81,2.81,0,0,0-1.48-.42c-.78,0-1.22.45-1.22,1s.44.87,1.38,1.23c1.26.48,1.91,1.11,1.91,2.19,0,1.27-1,2.17-2.72,2.17a4.15,4.15,0,0,1-2-.5Zm5.94,0a3.51,3.51,0,0,0,1.74.52c1,0,1.41-.48,1.41-1.08s-.37-1-1.35-1.33c-1.3-.46-1.92-1.18-1.92-2a2.24,2.24,0,0,1,2.51-2.13,3.6,3.6,0,0,1,1.78.45l-.33,1a2.81,2.81,0,0,0-1.48-.42c-.78,0-1.22.45-1.22,1s.44.87,1.38,1.23c1.26.48,1.91,1.11,1.91,2.19,0,1.27-1,2.17-2.72,2.17a4.15,4.15,0,0,1-2-.5Zm7.59-8a.77.77,0,0,1-.84.81.78.78,0,0,1-.79-.81.8.8,0,0,1,.82-.82A.78.78,0,0,1,543.6,124.35Zm-1.47,9.3v-7.26h1.32v7.26Zm3.65,0V127.4h-1v-1h1V126a2.9,2.9,0,0,1,3.16-3.16,3.65,3.65,0,0,1,1.85.48l-.38,1a2.79,2.79,0,0,0-1.53-.42c-1.39,0-1.8,1-1.8,2.13v.36h4.22v7.26H550V127.4h-2.91v6.25Zm12.88-.27a4.83,4.83,0,0,1-2.08.42,3.45,3.45,0,0,1-3.62-3.7,3.69,3.69,0,0,1,3.9-3.86,4.4,4.4,0,0,1,1.83.38l-.3,1a3,3,0,0,0-1.53-.35,2.74,2.74,0,0,0,0,5.46,3.84,3.84,0,0,0,1.62-.36Zm5.57.27-.11-.92h0a2.72,2.72,0,0,1-2.22,1.08,2.06,2.06,0,0,1-2.22-2.08c0-1.75,1.56-2.71,4.36-2.7v-.15a1.49,1.49,0,0,0-1.65-1.68,3.63,3.63,0,0,0-1.89.54l-.3-.87a4.51,4.51,0,0,1,2.39-.64c2.22,0,2.76,1.51,2.76,3v2.71a10.26,10.26,0,0,0,.12,1.74ZM564,130c-1.44,0-3.07.22-3.07,1.63a1.17,1.17,0,0,0,1.24,1.26,1.81,1.81,0,0,0,1.76-1.21,1.6,1.6,0,0,0,.07-.42Zm4.94-5.64v2.08h1.89v1H569v3.91c0,.9.25,1.41,1,1.41a3.13,3.13,0,0,0,.76-.09l.06,1a3.32,3.32,0,0,1-1.17.18,1.82,1.82,0,0,1-1.42-.56,2.66,2.66,0,0,1-.51-1.89V127.4h-1.13v-1h1.13v-1.74Zm4.84,0a.77.77,0,0,1-.84.81.78.78,0,0,1-.79-.81.8.8,0,0,1,.82-.82A.78.78,0,0,1,573.81,124.35Zm-1.47,9.3v-7.26h1.32v7.26ZM582.42,130a3.55,3.55,0,0,1-3.61,3.85,3.45,3.45,0,0,1-3.48-3.73,3.54,3.54,0,0,1,3.6-3.85A3.43,3.43,0,0,1,582.42,130Zm-5.76.08c0,1.59.92,2.78,2.21,2.78s2.2-1.18,2.2-2.81c0-1.23-.61-2.79-2.17-2.79S576.66,128.66,576.66,130Zm7.43-1.68c0-.75,0-1.37-.06-2h1.17l.07,1.2h0a2.67,2.67,0,0,1,2.4-1.36c1,0,2.57.6,2.57,3.09v4.33H589v-4.18c0-1.17-.44-2.15-1.68-2.15a1.88,1.88,0,0,0-1.77,1.35,1.93,1.93,0,0,0-.09.62v4.36h-1.32Z"/><line class="cls-6" x1="675.99" y1="129.5" x2="636.49" y2="129.5"/><line class="cls-6" x1="664.93" y1="122.39" x2="675.99" y2="129.5"/><line class="cls-6" x1="664.93" y1="136.61" x2="675.99" y2="129.5"/><text class="cls-18" transform="translate(619.8 157.26)">faul<tspan class="cls-49" x="24.98" y="0">t</tspan><tspan x="30.4" y="0">y/ non </tspan></text><text class="cls-18" transform="translate(637.51 172.25)">faul<tspan class="cls-49" x="24.98" y="0">t</tspan><tspan x="30.4" y="0">y</tspan></text><text class="cls-18" transform="translate(706.4 129.35)">use</text><text class="cls-18" transform="translate(699.33 142.34)"><tspan class="cls-50">r</tspan><tspan x="5.09" y="0">esult</tspan></text><line class="cls-1" x1="3.49" y1="114" x2="55.49" y2="114"/><path class="cls-2" d="M17.49,120a6,6,0,1,1,6-6,6,6,0,0,1-6,6"/><path d="M17.49,110a4,4,0,1,1-4,4,4,4,0,0,1,4-4m0-4a8,8,0,1,0,8,8,8,8,0,0,0-8-8"/><path d="M44.49,135a7,7,0,1,1,0,14h-17a7,7,0,0,1,0-14h17m0-4h-17a11,11,0,0,0,0,22h17a11,11,0,1,0,0-22"/><line class="cls-1" x1="18.49" y1="142" x2="18.49" y2="126"/><line class="cls-3" x1="18.49" y1="126" x2="31.49" y2="133"/><circle class="cls-1" cx="21.99" cy="131.5" r="1.5"/><path d="M44,140a1.5,1.5,0,1,0,1.5,1.5A1.5,1.5,0,0,0,44,140"/><path d="M36,140a1.5,1.5,0,1,0,1.5,1.5A1.5,1.5,0,0,0,36,140"/><path d="M28,140a1.5,1.5,0,1,0,1.5,1.5A1.5,1.5,0,0,0,28,140"/><text class="cls-7" transform="translate(4.36 167.55)"><tspan class="cls-11">C</tspan><tspan x="8.55" y="0">ommit</tspan></text><line class="cls-6" x1="120.99" y1="129.5" x2="70.99" y2="129.5"/><line class="cls-6" x1="106.99" y1="120.5" x2="120.99" y2="129.5"/><line class="cls-6" x1="106.99" y1="138.5" x2="120.99" y2="129.5"/><text class="cls-7" transform="translate(85.21 152.55)">on </text><text class="cls-7" transform="translate(69.31 161.55)"><tspan class="cls-51">c</tspan><tspan x="6.63" y="0">ommit</tspan></text><line class="cls-1" x1="142.49" y1="96" x2="142.49" y2="164"/><path class="cls-2" d="M142.49,116a6,6,0,1,1,6-6,6,6,0,0,1-6,6"/><path d="M142.49,106a4,4,0,1,1-4,4,4,4,0,0,1,4-4m0-4a8,8,0,1,0,8,8,8,8,0,0,0-8-8"/><path class="cls-2" d="M142.49,136a6,6,0,1,1,6-6,6,6,0,0,1-6,6"/><path d="M142.49,126a4,4,0,1,1-4,4,4,4,0,0,1,4-4m0-4a8,8,0,1,0,8,8,8,8,0,0,0-8-8"/><path class="cls-2" d="M142.49,156a6,6,0,1,1,6-6,6,6,0,0,1-6,6"/><path d="M142.49,146a4,4,0,1,1-4,4,4,4,0,0,1,4-4m0-4a8,8,0,1,0,8,8,8,8,0,0,0-8-8"/><text class="cls-7" transform="translate(152.49 118.55)">local</text><text class="cls-7" transform="translate(152.49 136.55)"><tspan class="cls-38">c</tspan><tspan x="6.65" y="0">ommit</tspan></text><text class="cls-7" transform="translate(152.49 154.55)">his<tspan class="cls-38" x="17.77" y="0">t</tspan><tspan x="22.66" y="0">o</tspan><tspan class="cls-52" x="30.9" y="0">r</tspan><tspan x="36.18" y="0">y</tspan></text><line class="cls-6" x1="260.99" y1="129.5" x2="210.99" y2="129.5"/><line class="cls-6" x1="246.99" y1="120.5" x2="260.99" y2="129.5"/><line class="cls-6" x1="246.99" y1="138.5" x2="260.99" y2="129.5"/><text class="cls-7" transform="translate(225.21 152.55)">on</text><text class="cls-7" transform="translate(217.96 167.55)">push</text><path d="M383.49,148h-104V111h104Zm5-42h-114v47h114Z"/><text class="cls-7" transform="translate(285.6 133.65)"><tspan class="cls-39">P</tspan><tspan class="cls-40" x="7.74" y="0">r</tspan><tspan class="cls-41" x="12.51" y="0">e</tspan><tspan x="20.44" y="0">-</tspan><tspan class="cls-13" x="25.05" y="0">P</tspan><tspan class="cls-53" x="32.8" y="0">ush Hook</tspan></text><line class="cls-6" x1="387.49" y1="24" x2="413.49" y2="24"/><line class="cls-6" x1="388.49" y1="130" x2="413.49" y2="130"/><line class="cls-6" x1="413.99" y1="24.5" x2="413.99" y2="129.5"/></g><g id="Layer_3" data-name="Layer 3"><line class="cls-1" x1="0.49" y1="302" x2="52.49" y2="302"/><path class="cls-2" d="M14.49,308a6,6,0,1,1,6-6,6,6,0,0,1-6,6"/><path d="M14.49,298a4,4,0,1,1-4,4,4,4,0,0,1,4-4m0-4a8,8,0,1,0,8,8,8,8,0,0,0-8-8"/><path d="M41.49,323a7,7,0,1,1,0,14h-17a7,7,0,0,1,0-14h17m0-4h-17a11,11,0,0,0,0,22h17a11,11,0,1,0,0-22"/><line class="cls-1" x1="15.49" y1="330" x2="15.49" y2="314"/><line class="cls-3" x1="15.49" y1="314" x2="28.49" y2="321"/><circle class="cls-1" cx="18.99" cy="319.5" r="1.5"/><path d="M41,328a1.5,1.5,0,1,0,1.5,1.5A1.5,1.5,0,0,0,41,328"/><path d="M33,328a1.5,1.5,0,1,0,1.5,1.5A1.5,1.5,0,0,0,33,328"/><path d="M25,328a1.5,1.5,0,1,0,1.5,1.5A1.5,1.5,0,0,0,25,328"/><text class="cls-7" transform="translate(1.36 358.55)"><tspan class="cls-11">C</tspan><tspan x="8.55" y="0">ommit</tspan></text><path d="M239.49,336h-104V299h104Zm5-42h-114v47h114Z"/><line class="cls-6" x1="117.99" y1="317.5" x2="67.99" y2="317.5"/><line class="cls-6" x1="103.99" y1="308.5" x2="117.99" y2="317.5"/><line class="cls-6" x1="103.99" y1="326.5" x2="117.99" y2="317.5"/><text class="cls-7" transform="translate(82.21 343.55)">on </text><text class="cls-7" transform="translate(66.31 358.55)"><tspan class="cls-51">c</tspan><tspan x="6.63" y="0">ommit</tspan></text><text class="cls-7" transform="translate(149.74 314.65)"><tspan class="cls-39">P</tspan><tspan class="cls-40" x="7.74" y="0">r</tspan><tspan class="cls-41" x="12.51" y="0">e</tspan><tspan class="cls-42" x="20.44" y="0">-</tspan><tspan class="cls-43" x="25.26" y="0">C</tspan><tspan x="33.79" y="0">ommit </tspan></text><text class="cls-7" transform="translate(170.85 329.65)">Hook</text><path d="M435.49,334h-104V297h104Zm5-42h-114v47h114Z"/><line class="cls-6" x1="313.99" y1="315.5" x2="245.99" y2="316.5"/><line class="cls-6" x1="299.99" y1="306.5" x2="313.99" y2="315.5"/><line class="cls-6" x1="299.99" y1="324.5" x2="313.99" y2="315.5"/><text class="cls-7" transform="translate(259.81 340.55)"><tspan class="cls-38">c</tspan><tspan x="6.65" y="0">ommit </tspan></text><text class="cls-7" transform="translate(251.53 355.55)">changeset</text><text class="cls-7" transform="translate(337.46 319.65)">E<tspan class="cls-44" x="7.38" y="0">x</tspan><tspan x="14.5" y="0">t</tspan><tspan class="cls-17" x="19.47" y="0">r</tspan><tspan x="24.31" y="0">a</tspan><tspan class="cls-45" x="31.54" y="0">c</tspan><tspan class="cls-5" x="38.44" y="0">t </tspan><tspan class="cls-46" x="46.59" y="0">v</tspan><tspan class="cls-5" x="53.67" y="0">e</tspan><tspan class="cls-44" x="61.18" y="0">c</tspan><tspan class="cls-38" x="68.08" y="0">t</tspan><tspan class="cls-5" x="72.97" y="0">ors</tspan></text><path d="M626.49,334h-104V297h104Zm5-42h-114v47h114Z"/><line class="cls-6" x1="504.99" y1="315.5" x2="454.99" y2="315.5"/><line class="cls-6" x1="490.99" y1="306.5" x2="504.99" y2="315.5"/><line class="cls-6" x1="490.99" y1="324.5" x2="504.99" y2="315.5"/><text class="cls-7" transform="translate(454.76 338.55)"><tspan class="cls-46">v</tspan><tspan class="cls-5" x="7.08" y="0">e</tspan><tspan class="cls-45" x="14.59" y="0">c</tspan><tspan class="cls-15" x="21.49" y="0">t</tspan><tspan x="26.38" y="0">ors</tspan></text><path d="M540.94,319.38a4.89,4.89,0,0,1-2.09.42,3.44,3.44,0,0,1-3.61-3.7,3.69,3.69,0,0,1,3.9-3.86,4.4,4.4,0,0,1,1.83.38l-.3,1a3.07,3.07,0,0,0-1.53-.35,2.51,2.51,0,0,0-2.57,2.75,2.48,2.48,0,0,0,2.52,2.71,3.81,3.81,0,0,0,1.62-.36ZM542.48,309h1.32v10.65h-1.32ZM550,319.65l-.1-.92h-.05a2.69,2.69,0,0,1-2.22,1.08,2.06,2.06,0,0,1-2.22-2.08c0-1.75,1.56-2.71,4.37-2.7v-.15a1.5,1.5,0,0,0-1.65-1.68,3.6,3.6,0,0,0-1.89.54l-.3-.87a4.5,4.5,0,0,1,2.38-.64c2.22,0,2.76,1.51,2.76,3v2.71a10.26,10.26,0,0,0,.12,1.74Zm-.19-3.7c-1.44,0-3.08.22-3.08,1.63a1.17,1.17,0,0,0,1.25,1.26,1.81,1.81,0,0,0,1.75-1.21,1.3,1.3,0,0,0,.08-.42Zm3.22,2.35a3.51,3.51,0,0,0,1.74.52c1,0,1.41-.48,1.41-1.08s-.37-1-1.35-1.33c-1.3-.46-1.92-1.18-1.92-2.05a2.24,2.24,0,0,1,2.51-2.13,3.6,3.6,0,0,1,1.78.45l-.33,1a2.81,2.81,0,0,0-1.48-.42c-.78,0-1.22.45-1.22,1s.44.87,1.38,1.23c1.26.48,1.91,1.11,1.91,2.19,0,1.27-1,2.17-2.72,2.17a4.15,4.15,0,0,1-2-.5Zm5.94,0a3.51,3.51,0,0,0,1.74.52c1,0,1.41-.48,1.41-1.08s-.37-1-1.35-1.33c-1.3-.46-1.92-1.18-1.92-2.05a2.24,2.24,0,0,1,2.51-2.13,3.6,3.6,0,0,1,1.78.45l-.33,1a2.81,2.81,0,0,0-1.48-.42c-.78,0-1.22.45-1.22,1s.44.87,1.38,1.23c1.26.48,1.91,1.11,1.91,2.19,0,1.27-1,2.17-2.72,2.17a4.15,4.15,0,0,1-2-.5Zm7.59-7.95a.77.77,0,0,1-.84.81.78.78,0,0,1-.79-.81.8.8,0,0,1,.82-.82A.78.78,0,0,1,566.6,310.35Zm-1.47,9.3v-7.26h1.32v7.26Zm3.65,0V313.4h-1v-1h1V312a2.9,2.9,0,0,1,3.16-3.16,3.65,3.65,0,0,1,1.85.48l-.38,1a2.79,2.79,0,0,0-1.53-.42c-1.39,0-1.8,1-1.8,2.13v.36h4.22v7.26H573V313.4h-2.91v6.25Zm12.88-.27a4.83,4.83,0,0,1-2.08.42,3.45,3.45,0,0,1-3.62-3.7,3.69,3.69,0,0,1,3.9-3.86,4.4,4.4,0,0,1,1.83.38l-.3,1a3,3,0,0,0-1.53-.35A2.51,2.51,0,0,0,577.3,316a2.48,2.48,0,0,0,2.52,2.71,3.84,3.84,0,0,0,1.62-.36Zm5.57.27-.11-.92h0a2.72,2.72,0,0,1-2.22,1.08,2.06,2.06,0,0,1-2.22-2.08c0-1.75,1.56-2.71,4.36-2.7v-.15a1.49,1.49,0,0,0-1.65-1.68,3.63,3.63,0,0,0-1.89.54l-.3-.87a4.51,4.51,0,0,1,2.39-.64c2.22,0,2.76,1.51,2.76,3v2.71a10.26,10.26,0,0,0,.12,1.74ZM587,316c-1.44,0-3.07.22-3.07,1.63a1.17,1.17,0,0,0,1.24,1.26,1.81,1.81,0,0,0,1.76-1.21,1.6,1.6,0,0,0,.07-.42Zm4.94-5.64v2.08h1.89v1H592v3.91c0,.9.25,1.41,1,1.41a3.13,3.13,0,0,0,.76-.09l.06,1a3.32,3.32,0,0,1-1.17.18,1.82,1.82,0,0,1-1.42-.56,2.65,2.65,0,0,1-.51-1.88v-4h-1.13v-1h1.13v-1.74Zm4.84,0a.77.77,0,0,1-.84.81.78.78,0,0,1-.79-.81.8.8,0,0,1,.82-.82A.78.78,0,0,1,596.81,310.35Zm-1.47,9.3v-7.26h1.32v7.26ZM605.42,316a3.55,3.55,0,0,1-3.61,3.85,3.44,3.44,0,0,1-3.48-3.73,3.54,3.54,0,0,1,3.6-3.85A3.43,3.43,0,0,1,605.42,316Zm-5.76.08c0,1.59.92,2.78,2.21,2.78s2.2-1.18,2.2-2.81c0-1.23-.61-2.79-2.17-2.79S599.66,314.66,599.66,316Zm7.43-1.68c0-.75,0-1.37-.06-2h1.17l.07,1.2h0a2.67,2.67,0,0,1,2.4-1.36c1,0,2.57.6,2.57,3.09v4.33H612v-4.18c0-1.17-.44-2.15-1.68-2.15a1.88,1.88,0,0,0-1.77,1.35,1.93,1.93,0,0,0-.09.62v4.36h-1.32Z"/><text class="cls-18" transform="translate(694.51 329.26)">faul<tspan class="cls-49" x="24.98" y="0">t</tspan><tspan x="30.4" y="0">y </tspan></text><text class="cls-18" transform="translate(694.83 344.25)"><tspan class="cls-50">r</tspan><tspan x="5.09" y="0">esult</tspan></text><path d="M734.49,400h-104V363h104Zm5-42h-114v47h114Z"/><text class="cls-7" transform="translate(637.05 379.65)">No<tspan class="cls-54" x="18.1" y="0">r</tspan><tspan x="23.05" y="0">mali</tspan><tspan class="cls-55" x="49.84" y="0">z</tspan><tspan x="56.16" y="0">e and </tspan></text><text class="cls-7" transform="translate(653.49 394.65)"><tspan class="cls-56">f</tspan><tspan class="cls-48" x="4.2" y="0">o</tspan><tspan class="cls-57" x="12.43" y="0">r</tspan><tspan class="cls-58" x="17.4" y="0">mali</tspan><tspan class="cls-8" x="44.19" y="0">z</tspan><tspan x="50.52" y="0">e</tspan></text><path d="M628.49,470h-104V433h104Zm5-42h-114v47h114Z"/><text class="cls-7" transform="translate(532.32 449.65)"><tspan class="cls-59">C</tspan><tspan x="8.55" y="0">ompa</tspan><tspan class="cls-60" x="45.06" y="0">r</tspan><tspan class="cls-58" x="49.83" y="0">e with </tspan></text><text class="cls-7" transform="translate(530.6 464.65)"><tspan class="cls-61">k</tspan><tspan x="7.29" y="0">n</tspan><tspan class="cls-62" x="15.62" y="0">o</tspan><tspan x="23.76" y="0">wn de</tspan><tspan class="cls-56" x="62.28" y="0">f</tspan><tspan x="66.48" y="0">e</tspan><tspan class="cls-63" x="73.99" y="0">c</tspan><tspan x="80.91" y="0">ts</tspan></text><text class="cls-18" transform="translate(683.59 443.26)">m<tspan class="cls-64" x="13.34" y="0">a</tspan><tspan class="cls-65" x="20.99" y="0">t</tspan><tspan x="26.21" y="0">ching </tspan></text><text class="cls-66" transform="translate(686.53 458.25)">c<tspan class="cls-67" x="7.07" y="0">ommits</tspan></text><path d="M434.49,470h-104V433h104Zm5-42h-114v47h114Z"/><text class="cls-7" transform="translate(337.39 448.65)"><tspan class="cls-68">F</tspan><tspan x="6.92" y="0">ind m</tspan><tspan class="cls-30" x="42.9" y="0">a</tspan><tspan class="cls-15" x="50.08" y="0">t</tspan><tspan x="54.97" y="0">ching </tspan></text><path d="M369.71,463.65v-6.26h-1v-1h1V456a2.91,2.91,0,0,1,3.16-3.17,3.65,3.65,0,0,1,1.85.48l-.38,1a2.71,2.71,0,0,0-1.53-.42c-1.39,0-1.79,1-1.79,2.13v.36h4.21v7.26h-1.31v-6.26H371v6.26Zm8.32-7.26,1,1.56c.27.4.49.78.73,1.18h.05c.24-.43.48-.81.72-1.2l1-1.54H383l-2.47,3.51,2.55,3.75h-1.5L380.52,462c-.28-.42-.52-.82-.78-1.26h0c-.24.44-.49.83-.76,1.26l-1.05,1.64h-1.45l2.57-3.71-2.45-3.55Zm6.84,3.87a2.33,2.33,0,0,0,2.49,2.52,4.73,4.73,0,0,0,2-.38l.23,1a5.91,5.91,0,0,1-2.42.45,3.37,3.37,0,0,1-3.57-3.66c0-2.19,1.29-3.92,3.41-3.92,2.37,0,3,2.09,3,3.42a4.15,4.15,0,0,1,0,.62Zm3.87-.95a1.87,1.87,0,0,0-1.83-2.14,2.18,2.18,0,0,0-2,2.14Zm2.74,3a3.51,3.51,0,0,0,1.74.52c1,0,1.4-.48,1.4-1.08s-.37-1-1.34-1.33c-1.31-.47-1.92-1.19-1.92-2.06a2.23,2.23,0,0,1,2.5-2.13,3.6,3.6,0,0,1,1.78.45l-.33,1a2.81,2.81,0,0,0-1.48-.42c-.78,0-1.21.45-1.21,1s.43.87,1.38,1.23c1.25.48,1.9,1.11,1.9,2.19,0,1.28-1,2.18-2.71,2.18a4.13,4.13,0,0,1-2-.5Z"/><line class="cls-6" x1="453.99" y1="451.5" x2="503.99" y2="451.5"/><line class="cls-6" x1="467.99" y1="460.5" x2="453.99" y2="451.5"/><line class="cls-6" x1="467.99" y1="442.5" x2="453.99" y2="451.5"/><text class="cls-7" transform="translate(453.76 474.55)"><tspan class="cls-40">v</tspan><tspan x="7.08" y="0">e</tspan><tspan class="cls-47" x="14.59" y="0">c</tspan><tspan class="cls-38" x="21.5" y="0">t</tspan><tspan class="cls-48" x="26.38" y="0">ors</tspan></text><path d="M242.49,470h-104V433h104Zm5-42h-114v47h114Z"/><path d="M150.43,445.47l-1.05,3.18H148l3.43-10.11H153l3.45,10.11h-1.39L154,445.47Zm3.31-1-1-2.91c-.22-.66-.37-1.26-.52-1.85h0c-.15.6-.32,1.22-.51,1.83l-1,2.93ZM164,438v8.77c0,.65,0,1.38.06,1.88h-1.18l-.06-1.26h0a2.68,2.68,0,0,1-2.47,1.42c-1.76,0-3.11-1.48-3.11-3.69,0-2.41,1.49-3.9,3.26-3.9a2.42,2.42,0,0,1,2.18,1.11h0V438Zm-1.32,6.34a2.06,2.06,0,0,0-.06-.55,1.93,1.93,0,0,0-1.9-1.53c-1.36,0-2.17,1.2-2.17,2.8s.72,2.69,2.14,2.69a2,2,0,0,0,1.93-1.58,2.08,2.08,0,0,0,.06-.57Zm7.53,4.31-.1-.92h-.05a2.68,2.68,0,0,1-2.21,1.08,2.06,2.06,0,0,1-2.22-2.08c0-1.76,1.56-2.72,4.36-2.7v-.15a1.5,1.5,0,0,0-1.65-1.68,3.63,3.63,0,0,0-1.89.54l-.3-.87a4.5,4.5,0,0,1,2.38-.65c2.22,0,2.76,1.52,2.76,3v2.72a10.26,10.26,0,0,0,.12,1.74Zm-.19-3.71c-1.44,0-3.07.23-3.07,1.64a1.17,1.17,0,0,0,1.24,1.26,1.8,1.8,0,0,0,1.75-1.22,1.2,1.2,0,0,0,.08-.42Zm3.41-1.18c0-.93,0-1.68-.06-2.37h1.18l.06,1.24h0a2.86,2.86,0,0,1,2.58-1.41c1.75,0,3.07,1.49,3.07,3.69,0,2.61-1.59,3.9-3.3,3.9a2.53,2.53,0,0,1-2.23-1.14h0v3.95h-1.3Zm1.3,1.93a2.87,2.87,0,0,0,.06.54,2,2,0,0,0,2,1.55c1.39,0,2.2-1.14,2.2-2.81,0-1.45-.76-2.7-2.16-2.7a2.1,2.1,0,0,0-2,1.64,1.91,1.91,0,0,0-.09.54Zm8.82-6.39v2.09h1.89v1h-1.89v3.92c0,.9.25,1.41,1,1.41a3.13,3.13,0,0,0,.76-.09l.06,1a3.32,3.32,0,0,1-1.17.18,1.82,1.82,0,0,1-1.42-.56,2.71,2.71,0,0,1-.51-1.89v-4h-1.12v-1h1.12v-1.74Zm6.69,9.35v-6.26h-1v-1h1V441a2.91,2.91,0,0,1,3.16-3.17,3.65,3.65,0,0,1,1.85.48l-.38,1a2.71,2.71,0,0,0-1.53-.42c-1.39,0-1.8,1-1.8,2.13v.36h4.22v7.26h-1.31v-6.26h-2.91v6.26Zm8.32-7.26,1,1.56c.27.4.49.78.73,1.18h0c.24-.43.48-.81.72-1.2l1-1.54h1.42l-2.47,3.51,2.55,3.75h-1.5L201.06,447c-.28-.42-.52-.82-.78-1.26h0c-.24.44-.49.83-.76,1.26l-1.05,1.64H197l2.58-3.71-2.46-3.55Zm6.84,3.87a2.33,2.33,0,0,0,2.49,2.52,4.73,4.73,0,0,0,2-.38l.23,1a5.91,5.91,0,0,1-2.42.45,3.37,3.37,0,0,1-3.57-3.66c0-2.19,1.29-3.92,3.41-3.92,2.37,0,3,2.09,3,3.42a4.15,4.15,0,0,1-.05.62Zm3.87-.95a1.87,1.87,0,0,0-1.83-2.14,2.18,2.18,0,0,0-2,2.14Zm2.73,3a3.51,3.51,0,0,0,1.74.52c1,0,1.41-.48,1.41-1.08s-.37-1-1.35-1.33c-1.3-.47-1.92-1.19-1.92-2.06a2.24,2.24,0,0,1,2.51-2.13,3.6,3.6,0,0,1,1.78.45l-.33,1a2.81,2.81,0,0,0-1.48-.42c-.78,0-1.22.45-1.22,1s.44.87,1.38,1.23c1.26.48,1.91,1.11,1.91,2.19,0,1.28-1,2.18-2.72,2.18a4.15,4.15,0,0,1-2-.5Zm10.89-8v2.09h1.89v1H222.9v3.92c0,.9.26,1.41,1,1.41a3.22,3.22,0,0,0,.77-.09l.06,1a3.37,3.37,0,0,1-1.17.18,1.84,1.84,0,0,1-1.43-.56,2.71,2.71,0,0,1-.51-1.89v-4h-1.12v-1h1.12v-1.74Zm9.86,5.66a3.55,3.55,0,0,1-3.62,3.85,3.45,3.45,0,0,1-3.48-3.73,3.55,3.55,0,0,1,3.6-3.86A3.44,3.44,0,0,1,232.76,445ZM227,445c0,1.59.91,2.79,2.2,2.79s2.21-1.18,2.21-2.82c0-1.23-.62-2.79-2.18-2.79S227,443.65,227,445Z"/><text class="cls-7" transform="translate(151.67 463.65)">new <tspan class="cls-15" x="30.06" y="0">c</tspan><tspan x="36.7" y="0">o</tspan><tspan class="cls-17" x="44.94" y="0">n</tspan><tspan class="cls-15" x="53.2" y="0">t</tspan><tspan class="cls-69" x="58.09" y="0">e</tspan><tspan class="cls-63" x="65.58" y="0">x</tspan><tspan x="72.72" y="0">t</tspan></text><line class="cls-6" x1="261.99" y1="451.5" x2="311.99" y2="451.5"/><line class="cls-6" x1="275.99" y1="460.5" x2="261.99" y2="451.5"/><line class="cls-6" x1="275.99" y1="442.5" x2="261.99" y2="451.5"/><text class="cls-7" transform="translate(261.76 474.55)"><tspan class="cls-46">v</tspan><tspan class="cls-5" x="7.08" y="0">e</tspan><tspan class="cls-45" x="14.59" y="0">c</tspan><tspan class="cls-15" x="21.49" y="0">t</tspan><tspan x="26.38" y="0">ors</tspan></text><line class="cls-6" x1="68.99" y1="452.5" x2="118.99" y2="452.5"/><line class="cls-6" x1="82.99" y1="461.5" x2="68.99" y2="452.5"/><line class="cls-6" x1="82.99" y1="443.5" x2="68.99" y2="452.5"/><text class="cls-7" transform="translate(2.84 450.55)">adap<tspan class="cls-38" x="31.45" y="0">t</tspan><tspan class="cls-5" x="36.34" y="0">ed </tspan></text><path d="M16.22,465.55V459.3h-1v-1h1v-.39a2.9,2.9,0,0,1,3.16-3.16,3.65,3.65,0,0,1,1.85.48l-.38,1a2.79,2.79,0,0,0-1.53-.42c-1.39,0-1.8,1-1.8,2.13v.36h4.22v7.26H20.43V459.3H17.52v6.25Zm8.32-7.26,1,1.56c.27.41.49.78.73,1.19h.05c.24-.44.48-.81.72-1.2l1-1.55h1.42l-2.47,3.51,2.55,3.75H28.1L27,463.91c-.28-.42-.52-.82-.78-1.25h0c-.24.43-.49.82-.76,1.25l-1.05,1.64H23l2.58-3.7-2.46-3.56Zm6.84,3.87a2.32,2.32,0,0,0,2.49,2.52,4.73,4.73,0,0,0,2-.38l.23.95a5.91,5.91,0,0,1-2.42.45A3.37,3.37,0,0,1,30.12,462c0-2.19,1.29-3.91,3.41-3.91,2.37,0,3,2.08,3,3.42a3.87,3.87,0,0,1-.05.61Zm3.87-.94a1.88,1.88,0,0,0-1.83-2.15,2.18,2.18,0,0,0-2,2.15Zm2.73,3a3.51,3.51,0,0,0,1.74.52c1,0,1.41-.48,1.41-1.07s-.37-1-1.35-1.34c-1.3-.46-1.92-1.18-1.92-2.05a2.24,2.24,0,0,1,2.51-2.13,3.6,3.6,0,0,1,1.78.45l-.33,1a2.81,2.81,0,0,0-1.48-.42c-.78,0-1.22.45-1.22,1s.44.87,1.38,1.23c1.26.48,1.91,1.11,1.91,2.19,0,1.27-1,2.17-2.72,2.17a4.15,4.15,0,0,1-2-.5Z"/><line class="cls-6" x1="674.99" y1="346.5" x2="674.99" y2="315.5"/><line class="cls-6" x1="683.99" y1="332.5" x2="674.99" y2="346.5"/><line class="cls-6" x1="665.99" y1="332.5" x2="674.99" y2="346.5"/><line class="cls-6" x1="643.99" y1="315.5" x2="674.99" y2="315.5"/><line class="cls-6" x1="643.99" y1="451.5" x2="674.99" y2="451.5"/><line class="cls-6" x1="657.99" y1="460.5" x2="643.99" y2="451.5"/><line class="cls-6" x1="657.99" y1="442.5" x2="643.99" y2="451.5"/><line class="cls-6" x1="674.99" y1="420.5" x2="674.99" y2="451.5"/></g></g></svg>