<svg xmlns="http://www.w3.org/2000/svg" viewBox="0 0 855.31 219.3"><defs><style>.cls-1,.cls-3,.cls-6{fill:none;stroke:#000;stroke-miterlimit:10;}.cls-1,.cls-3{stroke-width:4px;}.cls-2,.cls-23{fill:#fff;}.cls-3,.cls-6{stroke-linecap:round;}.cls-4{font-size:15px;}.cls-20,.cls-23,.cls-4,.cls-42{font-family:MyriadPro-Regular, Myriad Pro;}.cls-5{letter-spacing:-0.01em;}.cls-6{stroke-width:5px;}.cls-7{letter-spacing:-0.01em;}.cls-8{letter-spacing:-0.02em;}.cls-9{letter-spacing:-0.01em;}.cls-10{letter-spacing:0.03em;}.cls-11{letter-spacing:0.01em;}.cls-12{letter-spacing:-0.01em;}.cls-13{letter-spacing:-0.01em;}.cls-14{letter-spacing:0.01em;}.cls-15{letter-spacing:0em;}.cls-16{letter-spacing:0.01em;}.cls-17{letter-spacing:0em;}.cls-18{letter-spacing:-0.01em;}.cls-19{letter-spacing:0em;}.cls-20,.cls-23,.cls-42{font-size:16px;}.cls-21{letter-spacing:0.01em;}.cls-22{letter-spacing:-0.01em;}.cls-24{letter-spacing:-0.01em;}.cls-25{letter-spacing:-0.01em;}.cls-26{letter-spacing:0em;}.cls-27{letter-spacing:-0.01em;}.cls-28{letter-spacing:0em;}.cls-29{letter-spacing:-0.01em;}.cls-30{letter-spacing:-0.01em;}.cls-31{letter-spacing:0em;}.cls-32{letter-spacing:0em;}.cls-33{letter-spacing:0em;}.cls-34{letter-spacing:-0.01em;}.cls-35{letter-spacing:-0.01em;}.cls-36{letter-spacing:-0.01em;}.cls-37{letter-spacing:0.02em;}.cls-38{letter-spacing:-0.01em;}.cls-39{letter-spacing:0.01em;}.cls-40{letter-spacing:0em;}.cls-41{letter-spacing:-0.01em;}.cls-42{letter-spacing:-0.01em;}.cls-43{letter-spacing:0em;}.cls-44{letter-spacing:-0.03em;}.cls-45{letter-spacing:0em;}.cls-46{letter-spacing:0.01em;}.cls-47{letter-spacing:0em;}</style></defs><title>cleverprocess-svg</title><g id="Layer_2" data-name="Layer 2"><g id="Layer_3" data-name="Layer 3"><line class="cls-1" y1="63" x2="52" y2="63"/><path class="cls-2" d="M14,69a6,6,0,1,1,6-6,6,6,0,0,1-6,6"/><path d="M14,59a4,4,0,1,1-4,4,4,4,0,0,1,4-4m0-4a8,8,0,1,0,8,8,8,8,0,0,0-8-8"/><path d="M41,84a7,7,0,0,1,0,14H24a7,7,0,0,1,0-14H41m0-4H24a11,11,0,0,0,0,22H41a11,11,0,0,0,0-22"/><line class="cls-1" x1="15" y1="91" x2="15" y2="75"/><line class="cls-3" x1="15" y1="75" x2="28" y2="82"/><circle class="cls-1" cx="18.5" cy="80.5" r="1.5"/><path d="M40.5,89A1.5,1.5,0,1,0,42,90.5,1.5,1.5,0,0,0,40.5,89"/><path d="M32.5,89A1.5,1.5,0,1,0,34,90.5,1.5,1.5,0,0,0,32.5,89"/><path d="M24.5,89A1.5,1.5,0,1,0,26,90.5,1.5,1.5,0,0,0,24.5,89"/><text class="cls-4" transform="translate(0.87 119.55)"><tspan class="cls-5">C</tspan><tspan x="8.55" y="0">ommit</tspan></text><path d="M239,97H135V60H239Zm5-42H130v47H244Z"/><line class="cls-6" x1="117.5" y1="78.5" x2="67.5" y2="78.5"/><line class="cls-6" x1="103.5" y1="69.5" x2="117.5" y2="78.5"/><line class="cls-6" x1="103.5" y1="87.5" x2="117.5" y2="78.5"/><text class="cls-4" transform="translate(81.72 104.55)">on </text><text class="cls-4" transform="translate(65.82 119.55)"><tspan class="cls-7">c</tspan><tspan x="6.63" y="0">ommit</tspan></text><text class="cls-4" transform="translate(149.25 75.64)"><tspan class="cls-8">P</tspan><tspan class="cls-9" x="7.74" y="0">r</tspan><tspan class="cls-10" x="12.51" y="0">e</tspan><tspan class="cls-11" x="20.44" y="0">-</tspan><tspan class="cls-12" x="25.26" y="0">C</tspan><tspan x="33.79" y="0">ommit </tspan></text><text class="cls-4" transform="translate(170.36 90.64)">Hook</text><path d="M435,95H331V58H435Zm5-42H326v47H440Z"/><line class="cls-6" x1="313.5" y1="76.5" x2="245.5" y2="77.5"/><line class="cls-6" x1="299.5" y1="67.5" x2="313.5" y2="76.5"/><line class="cls-6" x1="299.5" y1="85.5" x2="313.5" y2="76.5"/><text class="cls-4" transform="translate(259.32 101.55)"><tspan class="cls-13">c</tspan><tspan x="6.65" y="0">ommit </tspan></text><text class="cls-4" transform="translate(251.04 116.55)">changeset</text><text class="cls-4" transform="translate(336.97 80.65)">E<tspan class="cls-14" x="7.38" y="0">x</tspan><tspan x="14.5" y="0">t</tspan><tspan class="cls-15" x="19.47" y="0">r</tspan><tspan x="24.31" y="0">a</tspan><tspan class="cls-16" x="31.54" y="0">c</tspan><tspan class="cls-17" x="38.44" y="0">t </tspan><tspan class="cls-18" x="46.59" y="0">v</tspan><tspan class="cls-17" x="53.67" y="0">e</tspan><tspan class="cls-14" x="61.18" y="0">c</tspan><tspan class="cls-13" x="68.08" y="0">t</tspan><tspan class="cls-17" x="72.97" y="0">ors</tspan></text><path d="M626,95H522V58H626Zm5-42H517v47H631Z"/><line class="cls-6" x1="504.5" y1="76.5" x2="454.5" y2="76.5"/><line class="cls-6" x1="490.5" y1="67.5" x2="504.5" y2="76.5"/><line class="cls-6" x1="490.5" y1="85.5" x2="504.5" y2="76.5"/><text class="cls-4" transform="translate(454.28 99.55)"><tspan class="cls-18">v</tspan><tspan class="cls-17" x="7.08" y="0">e</tspan><tspan class="cls-16" x="14.59" y="0">c</tspan><tspan class="cls-19" x="21.49" y="0">t</tspan><tspan x="26.38" y="0">ors</tspan></text><path d="M540.45,80.38a4.87,4.87,0,0,1-2.08.42,3.46,3.46,0,0,1-3.62-3.71,3.69,3.69,0,0,1,3.9-3.85,4.42,4.42,0,0,1,1.83.37l-.3,1a3.08,3.08,0,0,0-1.53-.34,2.74,2.74,0,0,0,0,5.46,3.75,3.75,0,0,0,1.61-.36ZM542,70h1.32V80.65H542Zm7.55,10.65-.1-.92h-.05a2.69,2.69,0,0,1-2.22,1.08A2.06,2.06,0,0,1,545,78.73c0-1.76,1.55-2.72,4.36-2.7v-.15a1.5,1.5,0,0,0-1.65-1.68,3.6,3.6,0,0,0-1.89.54l-.3-.87a4.5,4.5,0,0,1,2.38-.65c2.22,0,2.76,1.52,2.76,3v2.72a10.26,10.26,0,0,0,.12,1.74Zm-.19-3.71c-1.44,0-3.08.23-3.08,1.64a1.17,1.17,0,0,0,1.25,1.26,1.8,1.8,0,0,0,1.75-1.22,1.2,1.2,0,0,0,.08-.42Zm3.22,2.36a3.51,3.51,0,0,0,1.74.52c1,0,1.41-.48,1.41-1.08s-.37-1-1.35-1.33c-1.3-.47-1.91-1.19-1.91-2.06a2.23,2.23,0,0,1,2.5-2.13,3.6,3.6,0,0,1,1.78.45l-.33,1a2.81,2.81,0,0,0-1.48-.42c-.78,0-1.22.45-1.22,1s.44.87,1.38,1.23c1.26.48,1.91,1.11,1.91,2.19,0,1.28-1,2.18-2.72,2.18a4.15,4.15,0,0,1-2-.5Zm5.94,0a3.51,3.51,0,0,0,1.74.52c1,0,1.41-.48,1.41-1.08s-.37-1-1.35-1.33c-1.3-.47-1.92-1.19-1.92-2.06a2.24,2.24,0,0,1,2.51-2.13,3.6,3.6,0,0,1,1.78.45l-.33,1a2.81,2.81,0,0,0-1.48-.42c-.78,0-1.22.45-1.22,1s.44.87,1.38,1.23c1.26.48,1.91,1.11,1.91,2.19,0,1.28-1,2.18-2.72,2.18a4.15,4.15,0,0,1-2-.5Zm7.59-8a.77.77,0,0,1-.84.81.78.78,0,0,1-.79-.81.8.8,0,0,1,.82-.83A.78.78,0,0,1,566.11,71.35Zm-1.47,9.3V73.39H566v7.26Zm3.65,0V74.39h-1v-1h1V73a2.91,2.91,0,0,1,3.16-3.17,3.65,3.65,0,0,1,1.85.48l-.38,1a2.71,2.71,0,0,0-1.53-.42c-1.39,0-1.8,1-1.8,2.13v.36h4.22v7.26H572.5V74.39h-2.91v6.26Zm12.88-.27a4.83,4.83,0,0,1-2.08.42,3.46,3.46,0,0,1-3.62-3.71,3.69,3.69,0,0,1,3.9-3.85,4.42,4.42,0,0,1,1.83.37l-.3,1a3.05,3.05,0,0,0-1.53-.34,2.74,2.74,0,0,0,0,5.46,3.84,3.84,0,0,0,1.62-.36Zm5.57.27-.11-.92h0a2.72,2.72,0,0,1-2.22,1.08,2.06,2.06,0,0,1-2.22-2.08c0-1.76,1.56-2.72,4.36-2.7v-.15a1.49,1.49,0,0,0-1.65-1.68,3.63,3.63,0,0,0-1.89.54l-.3-.87a4.51,4.51,0,0,1,2.39-.65c2.22,0,2.76,1.52,2.76,3v2.72a10.26,10.26,0,0,0,.12,1.74Zm-.2-3.71c-1.44,0-3.07.23-3.07,1.64a1.17,1.17,0,0,0,1.24,1.26,1.81,1.81,0,0,0,1.76-1.22,1.48,1.48,0,0,0,.07-.42Zm4.94-5.64v2.09h1.89v1h-1.89v3.92c0,.9.25,1.41,1,1.41a3.13,3.13,0,0,0,.76-.09l.06,1a3.32,3.32,0,0,1-1.17.18,1.82,1.82,0,0,1-1.42-.56,2.66,2.66,0,0,1-.51-1.89v-4h-1.13v-1h1.13V71.65Zm4.84,0a.77.77,0,0,1-.84.81.78.78,0,0,1-.79-.81.8.8,0,0,1,.82-.83A.78.78,0,0,1,596.32,71.35Zm-1.47,9.3V73.39h1.32v7.26ZM604.93,77a3.55,3.55,0,0,1-3.61,3.85,3.45,3.45,0,0,1-3.48-3.73,3.55,3.55,0,0,1,3.6-3.86A3.44,3.44,0,0,1,604.93,77Zm-5.76.07c0,1.59.92,2.79,2.21,2.79s2.2-1.18,2.2-2.82c0-1.23-.61-2.79-2.17-2.79S599.17,75.65,599.17,77Zm7.43-1.68c0-.75,0-1.36-.06-2h1.17l.07,1.2h0a2.67,2.67,0,0,1,2.4-1.37c1,0,2.57.6,2.57,3.09v4.34h-1.32V76.46c0-1.17-.44-2.14-1.68-2.14a1.94,1.94,0,0,0-1.86,2v4.37H606.6Z"/><line class="cls-6" x1="697.5" y1="76.5" x2="647.5" y2="76.5"/><line class="cls-6" x1="683.5" y1="67.5" x2="697.5" y2="76.5"/><line class="cls-6" x1="683.5" y1="85.5" x2="697.5" y2="76.5"/><text class="cls-20" transform="translate(651.02 100.26)">faul<tspan class="cls-21" x="24.98" y="0">t</tspan><tspan x="30.4" y="0">y </tspan></text><text class="cls-20" transform="translate(651.34 115.25)"><tspan class="cls-22">r</tspan><tspan x="5.09" y="0">esult</tspan></text><rect x="5" width="116" height="26"/><text class="cls-23" transform="translate(12.79 17.89)">CL<tspan class="cls-21" x="16.83" y="0">E</tspan><tspan x="24.83" y="0">VER </tspan><tspan class="cls-24" x="53.63" y="0">P</tspan><tspan class="cls-25" x="61.9" y="0">r</tspan><tspan class="cls-26" x="66.97" y="0">o</tspan><tspan class="cls-27" x="75.76" y="0">c</tspan><tspan class="cls-26" x="82.83" y="0">ess</tspan></text><path d="M820,94H716V57H820Zm5-42H711V99H825Z"/><text class="cls-4" transform="translate(722.56 73.65)">No<tspan class="cls-28" x="18.1" y="0">r</tspan><tspan x="23.05" y="0">mali</tspan><tspan class="cls-29" x="49.84" y="0">z</tspan><tspan x="56.16" y="0">e and </tspan></text><text class="cls-4" transform="translate(739 88.65)"><tspan class="cls-30">f</tspan><tspan class="cls-31" x="4.2" y="0">o</tspan><tspan class="cls-32" x="12.43" y="0">r</tspan><tspan class="cls-33" x="17.4" y="0">mali</tspan><tspan class="cls-34" x="44.19" y="0">z</tspan><tspan x="50.52" y="0">e</tspan></text><path d="M820,211H716V174H820Zm5-42H711v47H825Z"/><text class="cls-4" transform="translate(723.83 190.65)"><tspan class="cls-35">C</tspan><tspan x="8.55" y="0">ompa</tspan><tspan class="cls-36" x="45.06" y="0">r</tspan><tspan class="cls-33" x="49.83" y="0">e with </tspan></text><text class="cls-4" transform="translate(722.11 205.65)"><tspan class="cls-37">k</tspan><tspan x="7.29" y="0">n</tspan><tspan class="cls-38" x="15.62" y="0">o</tspan><tspan x="23.76" y="0">wn de</tspan><tspan class="cls-30" x="62.28" y="0">f</tspan><tspan x="66.48" y="0">e</tspan><tspan class="cls-39" x="73.99" y="0">c</tspan><tspan x="80.91" y="0">ts</tspan></text><line class="cls-6" x1="768.5" y1="158.5" x2="768.5" y2="108.5"/><line class="cls-6" x1="777.5" y1="144.5" x2="768.5" y2="158.5"/><line class="cls-6" x1="759.5" y1="144.5" x2="768.5" y2="158.5"/><text class="cls-20" transform="translate(788.1 128.26)">m<tspan class="cls-40" x="13.34" y="0">a</tspan><tspan class="cls-41" x="20.99" y="0">t</tspan><tspan x="26.21" y="0">ching </tspan></text><text class="cls-42" transform="translate(791.04 143.25)">c<tspan class="cls-43" x="7.07" y="0">ommits</tspan></text><path d="M626,211H522V174H626Zm5-42H517v47H631Z"/><text class="cls-4" transform="translate(528.9 189.65)"><tspan class="cls-44">F</tspan><tspan x="6.92" y="0">ind m</tspan><tspan class="cls-45" x="42.9" y="0">a</tspan><tspan class="cls-19" x="50.08" y="0">t</tspan><tspan x="54.97" y="0">ching </tspan></text><path d="M561.22,204.65v-6.26h-1v-1h1V197a2.92,2.92,0,0,1,3.17-3.17,3.61,3.61,0,0,1,1.84.48l-.37,1a2.76,2.76,0,0,0-1.53-.42c-1.4,0-1.8,1-1.8,2.13v.36h4.21v7.26h-1.3v-6.26h-2.91v6.26Zm8.33-7.26,1,1.56c.27.4.5.78.74,1.18h0c.24-.43.48-.81.72-1.2l1-1.54h1.43l-2.48,3.51,2.55,3.75h-1.5L572,203c-.29-.42-.53-.82-.78-1.26h0c-.24.44-.5.83-.77,1.26l-1.05,1.64H568l2.58-3.71-2.46-3.55Zm6.84,3.87a2.33,2.33,0,0,0,2.49,2.52,4.71,4.71,0,0,0,2-.38l.23.95a5.89,5.89,0,0,1-2.41.45,3.37,3.37,0,0,1-3.57-3.66c0-2.19,1.29-3.92,3.4-3.92,2.37,0,3,2.09,3,3.42a4.15,4.15,0,0,1,0,.62Zm3.87-.95a1.88,1.88,0,0,0-1.83-2.14,2.19,2.19,0,0,0-2,2.14Zm2.73,3a3.51,3.51,0,0,0,1.74.52c1,0,1.41-.48,1.41-1.08s-.38-1-1.35-1.33c-1.31-.47-1.92-1.19-1.92-2.06a2.23,2.23,0,0,1,2.5-2.13,3.64,3.64,0,0,1,1.79.45l-.33,1a2.85,2.85,0,0,0-1.49-.42c-.78,0-1.21.45-1.21,1s.43.87,1.38,1.23c1.26.48,1.9,1.11,1.9,2.19,0,1.28-1,2.18-2.71,2.18a4.13,4.13,0,0,1-2-.5Z"/><line class="cls-6" x1="645.5" y1="192.5" x2="695.5" y2="192.5"/><line class="cls-6" x1="659.5" y1="201.5" x2="645.5" y2="192.5"/><line class="cls-6" x1="659.5" y1="183.5" x2="645.5" y2="192.5"/><text class="cls-4" transform="translate(645.27 215.55)"><tspan class="cls-9">v</tspan><tspan x="7.08" y="0">e</tspan><tspan class="cls-46" x="14.59" y="0">c</tspan><tspan class="cls-13" x="21.5" y="0">t</tspan><tspan class="cls-31" x="26.38" y="0">ors</tspan></text><path d="M434,211H330V174H434Zm5-42H325v47H439Z"/><path d="M341.94,186.47l-1.05,3.18h-1.35L343,179.54h1.58L348,189.65h-1.4l-1.08-3.18Zm3.31-1-1-2.91c-.22-.66-.37-1.26-.52-1.85h0c-.15.6-.32,1.22-.51,1.83l-1,2.93ZM355.53,179v8.77c0,.65,0,1.38.06,1.88H354.4l-.06-1.26h0a2.67,2.67,0,0,1-2.47,1.42c-1.76,0-3.11-1.48-3.11-3.69,0-2.41,1.49-3.9,3.26-3.9a2.44,2.44,0,0,1,2.19,1.11h0V179Zm-1.32,6.34a2.57,2.57,0,0,0-.06-.55,2,2,0,0,0-1.91-1.53c-1.36,0-2.17,1.2-2.17,2.8s.72,2.69,2.14,2.69a2,2,0,0,0,1.94-1.58,2.56,2.56,0,0,0,.06-.57Zm7.53,4.31-.11-.92h0a2.72,2.72,0,0,1-2.22,1.08,2.06,2.06,0,0,1-2.22-2.08c0-1.76,1.56-2.72,4.36-2.7v-.15a1.49,1.49,0,0,0-1.65-1.68,3.63,3.63,0,0,0-1.89.54l-.3-.87a4.51,4.51,0,0,1,2.39-.65c2.22,0,2.76,1.52,2.76,3v2.72a10.26,10.26,0,0,0,.12,1.74Zm-.2-3.71c-1.44,0-3.07.23-3.07,1.64a1.17,1.17,0,0,0,1.24,1.26,1.81,1.81,0,0,0,1.76-1.22,1.48,1.48,0,0,0,.07-.42Zm3.41-1.18c0-.93,0-1.68-.06-2.37h1.18l.06,1.24h0a2.87,2.87,0,0,1,2.58-1.41c1.76,0,3.08,1.49,3.08,3.69,0,2.61-1.59,3.9-3.3,3.9a2.56,2.56,0,0,1-2.24-1.14h0v4H365Zm1.3,1.93a2.87,2.87,0,0,0,.06.54,2,2,0,0,0,2,1.55c1.4,0,2.21-1.14,2.21-2.81,0-1.45-.77-2.7-2.16-2.7a2.12,2.12,0,0,0-2,1.64,2.34,2.34,0,0,0-.09.54Zm8.82-6.39v2.09H377v1h-1.89v3.92c0,.9.26,1.41,1,1.41a3.22,3.22,0,0,0,.77-.09l.06,1a3.37,3.37,0,0,1-1.17.18,1.84,1.84,0,0,1-1.43-.56,2.71,2.71,0,0,1-.51-1.89v-4h-1.12v-1h1.12v-1.74Zm6.69,9.35v-6.26h-1v-1h1V182a2.92,2.92,0,0,1,3.17-3.17,3.61,3.61,0,0,1,1.84.48l-.37,1a2.76,2.76,0,0,0-1.53-.42c-1.4,0-1.8,1-1.8,2.13v.36h4.21v7.26H386v-6.26h-2.91v6.26Zm8.33-7.26,1,1.56c.27.4.5.78.74,1.18h0c.24-.43.48-.81.72-1.2l1-1.54h1.42l-2.47,3.51,2.55,3.75h-1.5L392.58,188c-.29-.42-.53-.82-.78-1.26h0c-.24.44-.5.83-.77,1.26L390,189.65H388.5l2.58-3.71-2.46-3.55Zm6.83,3.87a2.33,2.33,0,0,0,2.49,2.52,4.73,4.73,0,0,0,2-.38l.23.95a5.91,5.91,0,0,1-2.42.45,3.37,3.37,0,0,1-3.57-3.66c0-2.19,1.29-3.92,3.41-3.92,2.37,0,3,2.09,3,3.42a4.15,4.15,0,0,1-.05.62Zm3.87-.95a1.87,1.87,0,0,0-1.83-2.14,2.18,2.18,0,0,0-2,2.14Zm2.73,3a3.51,3.51,0,0,0,1.74.52c1,0,1.41-.48,1.41-1.08s-.37-1-1.35-1.33c-1.3-.47-1.92-1.19-1.92-2.06a2.24,2.24,0,0,1,2.51-2.13,3.6,3.6,0,0,1,1.78.45l-.33,1a2.81,2.81,0,0,0-1.48-.42c-.78,0-1.22.45-1.22,1s.44.87,1.38,1.23c1.26.48,1.91,1.11,1.91,2.19,0,1.28-1,2.18-2.72,2.18a4.15,4.15,0,0,1-2-.5Zm10.89-8v2.09h1.89v1h-1.89v3.92c0,.9.26,1.41,1,1.41a3.22,3.22,0,0,0,.77-.09l.06,1a3.37,3.37,0,0,1-1.17.18,1.84,1.84,0,0,1-1.43-.56,2.71,2.71,0,0,1-.51-1.89v-4H412v-1h1.12v-1.74Zm9.86,5.66a3.55,3.55,0,0,1-3.62,3.85,3.45,3.45,0,0,1-3.48-3.73,3.55,3.55,0,0,1,3.6-3.86A3.44,3.44,0,0,1,424.27,186Zm-5.76.07c0,1.59.91,2.79,2.2,2.79s2.21-1.18,2.21-2.82c0-1.23-.62-2.79-2.18-2.79S418.51,184.65,418.51,186Z"/><text class="cls-4" transform="translate(343.18 204.65)">new <tspan class="cls-19" x="30.06" y="0">c</tspan><tspan x="36.7" y="0">o</tspan><tspan class="cls-15" x="44.94" y="0">n</tspan><tspan class="cls-19" x="53.2" y="0">t</tspan><tspan class="cls-47" x="58.09" y="0">e</tspan><tspan class="cls-39" x="65.58" y="0">x</tspan><tspan x="72.72" y="0">t</tspan></text><line class="cls-6" x1="453.5" y1="192.5" x2="503.5" y2="192.5"/><line class="cls-6" x1="467.5" y1="201.5" x2="453.5" y2="192.5"/><line class="cls-6" x1="467.5" y1="183.5" x2="453.5" y2="192.5"/><text class="cls-4" transform="translate(453.28 215.55)"><tspan class="cls-18">v</tspan><tspan class="cls-17" x="7.08" y="0">e</tspan><tspan class="cls-16" x="14.59" y="0">c</tspan><tspan class="cls-19" x="21.49" y="0">t</tspan><tspan x="26.38" y="0">ors</tspan></text><line class="cls-6" x1="260.5" y1="193.5" x2="310.5" y2="193.5"/><line class="cls-6" x1="274.5" y1="202.5" x2="260.5" y2="193.5"/><line class="cls-6" x1="274.5" y1="184.5" x2="260.5" y2="193.5"/><text class="cls-4" transform="translate(194.35 191.55)">adap<tspan class="cls-13" x="31.45" y="0">t</tspan><tspan class="cls-17" x="36.34" y="0">ed </tspan></text><path d="M207.73,206.55v-6.26h-1v-1h1v-.39a2.91,2.91,0,0,1,3.16-3.17,3.65,3.65,0,0,1,1.85.48l-.38,1a2.71,2.71,0,0,0-1.53-.42c-1.39,0-1.8,1-1.8,2.13v.36h4.22v7.26h-1.31v-6.26H209v6.26Zm8.32-7.26,1,1.56c.27.4.49.78.73,1.18h.05c.24-.43.48-.81.72-1.2l1-1.54H221l-2.47,3.51,2.55,3.75h-1.5l-1.07-1.64c-.28-.42-.52-.82-.78-1.26h0c-.24.44-.49.83-.76,1.26l-1.05,1.64h-1.46l2.58-3.71-2.46-3.55Zm6.84,3.87a2.33,2.33,0,0,0,2.49,2.52,4.73,4.73,0,0,0,2-.38l.23.95a5.91,5.91,0,0,1-2.42.45,3.37,3.37,0,0,1-3.57-3.66c0-2.19,1.29-3.92,3.41-3.92,2.37,0,3,2.09,3,3.42a4.15,4.15,0,0,1,0,.62Zm3.87-.95a1.87,1.87,0,0,0-1.83-2.14,2.18,2.18,0,0,0-2,2.14Zm2.73,3a3.51,3.51,0,0,0,1.74.52c1,0,1.41-.48,1.41-1.08s-.37-1-1.35-1.33c-1.3-.47-1.92-1.19-1.92-2.06a2.24,2.24,0,0,1,2.51-2.13,3.6,3.6,0,0,1,1.78.45l-.33,1a2.81,2.81,0,0,0-1.48-.42c-.78,0-1.22.45-1.22,1s.44.87,1.38,1.23c1.26.48,1.91,1.11,1.91,2.19,0,1.28-1,2.18-2.72,2.18a4.15,4.15,0,0,1-2-.5Z"/></g></g></svg>