<svg xmlns="http://www.w3.org/2000/svg" viewBox="0 0 950.51 173.22"><defs><style>.cls-1{font-size:17px;}.cls-1,.cls-7{fill:#fff;}.cls-1,.cls-12,.cls-23,.cls-9{font-family:MyriadPro-Regular, Myriad Pro;}.cls-2{letter-spacing:-0.01em;}.cls-3{letter-spacing:-0.02em;}.cls-4{letter-spacing:-0.01em;}.cls-5{letter-spacing:-0.01em;}.cls-11,.cls-6,.cls-8{fill:none;stroke:#000;stroke-miterlimit:10;}.cls-6,.cls-8{stroke-width:4px;}.cls-11,.cls-8{stroke-linecap:round;}.cls-12,.cls-9{font-size:15px;}.cls-9{letter-spacing:-0.01em;}.cls-10{letter-spacing:0em;}.cls-11{stroke-width:5px;}.cls-13{letter-spacing:-0.01em;}.cls-14{letter-spacing:0.03em;}.cls-15{letter-spacing:-0.02em;}.cls-16{letter-spacing:-0.01em;}.cls-17{letter-spacing:0.03em;}.cls-18{letter-spacing:-0.02em;}.cls-19{letter-spacing:0.01em;}.cls-20{letter-spacing:0em;}.cls-21{letter-spacing:0.01em;}.cls-22{letter-spacing:0em;}.cls-23{font-size:16px;}.cls-24{letter-spacing:0.01em;}.cls-25{letter-spacing:-0.01em;}.cls-26{letter-spacing:0em;}.cls-27{letter-spacing:0.02em;}.cls-28{letter-spacing:-0.01em;}.cls-29{letter-spacing:0em;}.cls-30{letter-spacing:0em;}.cls-31{letter-spacing:0.01em;}</style></defs><title>commitguruprocess-svg</title><g id="Layer_2" data-name="Layer 2"><g id="Layer_1-2" data-name="Layer 1"><rect width="168" height="26"/><text class="cls-1" transform="translate(7.04 18.82)"><tspan class="cls-2">C</tspan><tspan x="9.67" y="0">ommit Guru </tspan><tspan class="cls-3" x="99.45" y="0">P</tspan><tspan class="cls-4" x="108.22" y="0">r</tspan><tspan x="113.61" y="0">o</tspan><tspan class="cls-5" x="122.94" y="0">c</tspan><tspan x="130.46" y="0">ess</tspan></text><line class="cls-6" x1="1.51" y1="59.94" x2="53.51" y2="59.94"/><circle class="cls-7" cx="15.51" cy="59.94" r="6"/><path d="M15.51,55.94a4,4,0,1,1-4,4,4,4,0,0,1,4-4m0-4a8,8,0,1,0,8,8,8,8,0,0,0-8-8Z"/><path d="M42.51,80.94a7,7,0,0,1,0,14h-17a7,7,0,0,1,0-14h17m0-4h-17a11,11,0,0,0,0,22h17a11,11,0,0,0,0-22Z"/><line class="cls-6" x1="16.51" y1="87.94" x2="16.51" y2="71.94"/><line class="cls-8" x1="16.51" y1="71.94" x2="29.51" y2="78.94"/><circle class="cls-6" cx="20.01" cy="77.44" r="1.5"/><path d="M42,85.94a1.5,1.5,0,1,0,1.5,1.5,1.5,1.5,0,0,0-1.5-1.5Z"/><path d="M34,85.94a1.5,1.5,0,1,0,1.5,1.5,1.5,1.5,0,0,0-1.5-1.5Z"/><path d="M26,85.94a1.5,1.5,0,1,0,1.5,1.5,1.5,1.5,0,0,0-1.5-1.5Z"/><text class="cls-9" transform="translate(2.38 113.49)">C<tspan class="cls-10" x="8.53" y="0">ommit</tspan></text><line class="cls-11" x1="116.01" y1="75.44" x2="66.01" y2="75.44"/><line class="cls-11" x1="102.01" y1="66.44" x2="116.01" y2="75.44"/><line class="cls-11" x1="102.01" y1="84.44" x2="116.01" y2="75.44"/><text class="cls-12" transform="translate(80.23 98.49)">on <tspan class="cls-13" x="-15.9" y="9">c</tspan><tspan x="-9.27" y="9">ommit</tspan></text><line class="cls-6" x1="136.51" y1="41.94" x2="136.51" y2="109.94"/><circle class="cls-7" cx="136.51" cy="55.94" r="6"/><path d="M136.51,51.94a4,4,0,1,1-4,4,4,4,0,0,1,4-4m0-4a8,8,0,1,0,8,8,8,8,0,0,0-8-8Z"/><circle class="cls-7" cx="136.51" cy="75.94" r="6"/><path d="M136.51,71.94a4,4,0,1,1-4,4,4,4,0,0,1,4-4m0-4a8,8,0,1,0,8,8,8,8,0,0,0-8-8Z"/><circle class="cls-7" cx="136.51" cy="95.94" r="6"/><path d="M136.51,91.94a4,4,0,1,1-4,4,4,4,0,0,1,4-4m0-4a8,8,0,1,0,8,8,8,8,0,0,0-8-8Z"/><text class="cls-12" transform="translate(146.51 64.49)">local<tspan class="cls-13" x="0" y="18">c</tspan><tspan x="6.63" y="18">ommit</tspan><tspan x="0" y="36">his</tspan><tspan class="cls-13" x="17.77" y="36">t</tspan><tspan x="22.65" y="36">o</tspan><tspan class="cls-14" x="30.88" y="36">r</tspan><tspan x="36.16" y="36">y</tspan></text><line class="cls-11" x1="249.01" y1="75.44" x2="199.01" y2="75.44"/><line class="cls-11" x1="235.01" y1="66.44" x2="249.01" y2="75.44"/><line class="cls-11" x1="235.01" y1="84.44" x2="249.01" y2="75.44"/><text class="cls-12" transform="translate(213.23 98.49)">on<tspan x="-7.25" y="15">push</tspan></text><path d="M371.51,56.94v37h-104v-37h104m5-5h-114v47h114v-47Z"/><text class="cls-12" transform="translate(273.62 79.59)"><tspan class="cls-15">P</tspan><tspan class="cls-16" x="7.74" y="0">r</tspan><tspan class="cls-17" x="12.5" y="0">e</tspan><tspan x="20.43" y="0">-</tspan><tspan class="cls-18" x="25.03" y="0">P</tspan><tspan x="32.79" y="0">ush Hook</tspan></text><path d="M579.51,56.94v37h-104v-37h104m5-5h-114v47h114v-47Z"/><line class="cls-11" x1="458.01" y1="75.44" x2="390.01" y2="76.44"/><line class="cls-11" x1="444.01" y1="66.44" x2="458.01" y2="75.44"/><line class="cls-11" x1="444.01" y1="84.44" x2="458.01" y2="75.44"/><text class="cls-12" transform="translate(400.83 100.49)"><tspan class="cls-13">c</tspan><tspan x="6.63" y="0">ommit </tspan><tspan x="-8.28" y="15">changeset</tspan></text><text class="cls-12" transform="translate(481.48 79.59)">E<tspan class="cls-19" x="7.38" y="0">x</tspan><tspan x="14.52" y="0">t</tspan><tspan class="cls-20" x="19.48" y="0">r</tspan><tspan x="24.31" y="0">a</tspan><tspan class="cls-19" x="31.54" y="0">c</tspan><tspan x="38.46" y="0">t </tspan><tspan class="cls-16" x="46.6" y="0">v</tspan><tspan x="53.67" y="0">e</tspan><tspan class="cls-21" x="61.18" y="0">c</tspan><tspan class="cls-13" x="68.1" y="0">t</tspan><tspan x="72.97" y="0">ors</tspan></text><path d="M770.51,56.94v37h-104v-37h104m5-5h-114v47h114v-47Z"/><line class="cls-11" x1="649.01" y1="75.44" x2="599.01" y2="75.44"/><line class="cls-11" x1="635.01" y1="66.44" x2="649.01" y2="75.44"/><line class="cls-11" x1="635.01" y1="84.44" x2="649.01" y2="75.44"/><text class="cls-12" transform="translate(598.79 98.49)"><tspan class="cls-16">v</tspan><tspan x="7.06" y="0">e</tspan><tspan class="cls-19" x="14.58" y="0">c</tspan><tspan class="cls-13" x="21.49" y="0">t</tspan><tspan x="26.37" y="0">ors</tspan></text><text class="cls-12" transform="translate(678.69 79.59)">classific<tspan class="cls-22" x="47.44" y="0">a</tspan><tspan x="54.61" y="0">tion</tspan></text><line class="cls-11" x1="842.01" y1="75.44" x2="792.01" y2="75.44"/><line class="cls-11" x1="828.01" y1="66.44" x2="842.01" y2="75.44"/><line class="cls-11" x1="828.01" y1="84.44" x2="842.01" y2="75.44"/><text class="cls-23" transform="translate(777.82 99.2)">faul<tspan class="cls-24" x="24.98" y="0">t</tspan><tspan x="30.42" y="0">y/ non </tspan><tspan x="17.71" y="15">faul</tspan><tspan class="cls-24" x="42.69" y="15">t</tspan><tspan x="48.13" y="15">y</tspan></text><text class="cls-23" transform="translate(866.78 73.3)"><tspan class="cls-25">r</tspan><tspan class="cls-26" x="5.07" y="0">epo</tspan><tspan class="cls-27" x="30.98" y="0">r</tspan><tspan x="36.59" y="0">t on </tspan><tspan class="cls-28" x="-11.86" y="15">c</tspan><tspan class="cls-29" x="-4.78" y="15">ommi</tspan><tspan class="cls-30" x="34.43" y="15">t</tspan><tspan x="39.68" y="15">.guru</tspan></text><line class="cls-11" x1="841.5" y1="155.5" x2="749.5" y2="155.5"/><line class="cls-11" x1="827.5" y1="146.5" x2="841.5" y2="155.5"/><line class="cls-11" x1="827.5" y1="164.5" x2="841.5" y2="155.5"/><text class="cls-12" transform="translate(879.31 151.65)">E-<tspan class="cls-31" x="11.98" y="0">M</tspan><tspan x="24.13" y="0">ail</tspan><tspan x="-17.47" y="15">Notific</tspan><tspan class="cls-22" x="23.68" y="15">a</tspan><tspan x="30.85" y="15">tion</tspan></text><line class="cls-11" x1="748.5" y1="155.5" x2="748.5" y2="97.5"/></g></g></svg>