<svg xmlns="http://www.w3.org/2000/svg" viewBox="0 0 742 187.06"><defs><style>.cls-1,.cls-3,.cls-6{fill:none;stroke:#000;stroke-miterlimit:10;}.cls-1,.cls-3{stroke-width:4px;}.cls-2{fill:#fff;}.cls-3,.cls-6{stroke-linecap:round;}.cls-4,.cls-7{font-size:15px;}.cls-18,.cls-4,.cls-7{font-family:MyriadPro-Regular, Myriad Pro;}.cls-4{letter-spacing:-0.01em;}.cls-5{letter-spacing:0em;}.cls-6{stroke-width:5px;}.cls-8{letter-spacing:-0.01em;}.cls-9{letter-spacing:0.03em;}.cls-10{letter-spacing:-0.02em;}.cls-11{letter-spacing:-0.01em;}.cls-12{letter-spacing:0.03em;}.cls-13{letter-spacing:-0.02em;}.cls-14{letter-spacing:0.01em;}.cls-15{letter-spacing:0em;}.cls-16{letter-spacing:0.01em;}.cls-17{letter-spacing:0em;}.cls-18{font-size:16px;}.cls-19{letter-spacing:0.01em;}.cls-20{letter-spacing:-0.01em;}.cls-21{letter-spacing:0em;}.cls-22{letter-spacing:0.02em;}.cls-23{letter-spacing:-0.01em;}.cls-24{letter-spacing:0em;}.cls-25{letter-spacing:0em;}.cls-26{letter-spacing:0.01em;}</style></defs><title>commitguruprocess-svg</title><g id="Layer_2" data-name="Layer 2"><g id="Layer_1-2" data-name="Layer 1"><line class="cls-1" y1="18" x2="52" y2="18"/><circle class="cls-2" cx="14" cy="18" r="6"/><path d="M14,14a4,4,0,1,1-4,4,4,4,0,0,1,4-4m0-4a8,8,0,1,0,8,8,8,8,0,0,0-8-8Z"/><path d="M41,39a7,7,0,0,1,0,14H24a7,7,0,0,1,0-14H41m0-4H24a11,11,0,0,0,0,22H41a11,11,0,0,0,0-22Z"/><line class="cls-1" x1="15" y1="46" x2="15" y2="30"/><line class="cls-3" x1="15" y1="30" x2="28" y2="37"/><circle class="cls-1" cx="18.5" cy="35.5" r="1.5"/><path d="M40.5,44A1.5,1.5,0,1,0,42,45.5,1.5,1.5,0,0,0,40.5,44Z"/><path d="M32.5,44A1.5,1.5,0,1,0,34,45.5,1.5,1.5,0,0,0,32.5,44Z"/><path d="M24.5,44A1.5,1.5,0,1,0,26,45.5,1.5,1.5,0,0,0,24.5,44Z"/><text class="cls-4" transform="translate(0.87 71.55)">C<tspan class="cls-5" x="8.53" y="0">ommit</tspan></text><line class="cls-6" x1="114.5" y1="33.5" x2="64.5" y2="33.5"/><line class="cls-6" x1="100.5" y1="24.5" x2="114.5" y2="33.5"/><line class="cls-6" x1="100.5" y1="42.5" x2="114.5" y2="33.5"/><text class="cls-7" transform="translate(78.72 56.55)">on <tspan class="cls-8" x="-15.9" y="9">c</tspan><tspan x="-9.27" y="9">ommit</tspan></text><line class="cls-1" x1="135" x2="135" y2="68"/><circle class="cls-2" cx="135" cy="14" r="6"/><path d="M135,10a4,4,0,1,1-4,4,4,4,0,0,1,4-4m0-4a8,8,0,1,0,8,8,8,8,0,0,0-8-8Z"/><circle class="cls-2" cx="135" cy="34" r="6"/><path d="M135,30a4,4,0,1,1-4,4,4,4,0,0,1,4-4m0-4a8,8,0,1,0,8,8,8,8,0,0,0-8-8Z"/><circle class="cls-2" cx="135" cy="54" r="6"/><path d="M135,50a4,4,0,1,1-4,4,4,4,0,0,1,4-4m0-4a8,8,0,1,0,8,8,8,8,0,0,0-8-8Z"/><text class="cls-7" transform="translate(145 22.55)">local<tspan class="cls-8" x="0" y="18">c</tspan><tspan x="6.63" y="18">ommit</tspan><tspan x="0" y="36">his</tspan><tspan class="cls-8" x="17.77" y="36">t</tspan><tspan x="22.65" y="36">o</tspan><tspan class="cls-9" x="30.88" y="36">r</tspan><tspan x="36.16" y="36">y</tspan></text><line class="cls-6" x1="247.5" y1="33.5" x2="197.5" y2="33.5"/><line class="cls-6" x1="233.5" y1="24.5" x2="247.5" y2="33.5"/><line class="cls-6" x1="233.5" y1="42.5" x2="247.5" y2="33.5"/><text class="cls-7" transform="translate(211.72 56.55)">on<tspan x="-7.25" y="15">push</tspan></text><path d="M370,15V52H266V15H370m5-5H261V57H375V10Z"/><text class="cls-7" transform="translate(272.11 37.65)"><tspan class="cls-10">P</tspan><tspan class="cls-11" x="7.74" y="0">r</tspan><tspan class="cls-12" x="12.5" y="0">e</tspan><tspan x="20.43" y="0">-</tspan><tspan class="cls-13" x="25.03" y="0">P</tspan><tspan x="32.79" y="0">ush Hook</tspan></text><path d="M578,15V52H474V15H578m5-5H469V57H583V10Z"/><line class="cls-6" x1="456.5" y1="33.5" x2="388.5" y2="34.5"/><line class="cls-6" x1="442.5" y1="24.5" x2="456.5" y2="33.5"/><line class="cls-6" x1="442.5" y1="42.5" x2="456.5" y2="33.5"/><text class="cls-7" transform="translate(399.32 58.55)"><tspan class="cls-8">c</tspan><tspan x="6.63" y="0">ommit </tspan><tspan x="-8.28" y="15">changeset</tspan></text><text class="cls-7" transform="translate(479.97 37.65)">E<tspan class="cls-14" x="7.38" y="0">x</tspan><tspan x="14.52" y="0">t</tspan><tspan class="cls-15" x="19.48" y="0">r</tspan><tspan x="24.31" y="0">a</tspan><tspan class="cls-14" x="31.54" y="0">c</tspan><tspan x="38.46" y="0">t </tspan><tspan class="cls-11" x="46.6" y="0">v</tspan><tspan x="53.67" y="0">e</tspan><tspan class="cls-16" x="61.18" y="0">c</tspan><tspan class="cls-8" x="68.1" y="0">t</tspan><tspan x="72.97" y="0">ors</tspan></text><path d="M577.49,122.06v37h-104v-37h104m5-5h-114v47h114v-47Z"/><line class="cls-6" x1="522.99" y1="104.56" x2="522.99" y2="69.56"/><line class="cls-6" x1="531.99" y1="90.56" x2="522.99" y2="104.56"/><line class="cls-6" x1="513.99" y1="90.56" x2="522.99" y2="104.56"/><text class="cls-7" transform="translate(542.28 91.55)"><tspan class="cls-11">v</tspan><tspan x="7.06" y="0">e</tspan><tspan class="cls-14" x="14.58" y="0">c</tspan><tspan class="cls-8" x="21.49" y="0">t</tspan><tspan x="26.37" y="0">ors</tspan></text><text class="cls-7" transform="translate(485.66 144.71)">classific<tspan class="cls-17" x="47.44" y="0">a</tspan><tspan x="54.61" y="0">tion</tspan></text><line class="cls-6" x1="395.99" y1="141.56" x2="445.99" y2="141.56"/><line class="cls-6" x1="409.99" y1="150.56" x2="395.99" y2="141.56"/><line class="cls-6" x1="409.99" y1="132.56" x2="395.99" y2="141.56"/><text class="cls-18" transform="translate(381.8 165.32)">faul<tspan class="cls-19" x="24.98" y="0">t</tspan><tspan x="30.42" y="0">y/ non </tspan><tspan x="17.71" y="15">faul</tspan><tspan class="cls-19" x="42.69" y="15">t</tspan><tspan x="48.13" y="15">y</tspan></text><text class="cls-18" transform="translate(293.27 139.36)"><tspan class="cls-20">r</tspan><tspan class="cls-21" x="5.07" y="0">epo</tspan><tspan class="cls-22" x="30.98" y="0">r</tspan><tspan x="36.59" y="0">t on </tspan><tspan class="cls-23" x="-11.86" y="15">c</tspan><tspan class="cls-24" x="-4.78" y="15">ommi</tspan><tspan class="cls-25" x="34.43" y="15">t</tspan><tspan x="39.68" y="15">.guru</tspan></text><text class="cls-7" transform="translate(670.8 139.71)">E-<tspan class="cls-26" x="11.98" y="0">M</tspan><tspan x="24.13" y="0">ail</tspan><tspan x="-17.47" y="15">Notific</tspan><tspan class="cls-17" x="23.68" y="15">a</tspan><tspan x="30.85" y="15">tion</tspan></text><line class="cls-6" x1="641.99" y1="141.56" x2="591.99" y2="141.56"/><line class="cls-6" x1="627.99" y1="132.56" x2="641.99" y2="141.56"/><line class="cls-6" x1="627.99" y1="150.56" x2="641.99" y2="141.56"/></g></g></svg>