<?xml version="1.0" encoding="utf-8"?>
<!-- Generator: Adobe Illustrator 22.0.1, SVG Export Plug-In . SVG Version: 6.00 Build 0)  -->
<svg version="1.1" id="Layer_1" xmlns="http://www.w3.org/2000/svg" xmlns:xlink="http://www.w3.org/1999/xlink" x="0px" y="0px"
	 viewBox="0 0 939.4 169" style="enable-background:new 0 0 939.4 169;" xml:space="preserve">
<style type="text/css">
	.st0{fill:none;stroke:#000000;stroke-width:4;stroke-miterlimit:10;}
	.st1{fill:#FFFFFF;}
	.st2{fill:none;stroke:#000000;stroke-width:4;stroke-linecap:round;stroke-miterlimit:10;}
	.st3{fill-rule:evenodd;clip-rule:evenodd;fill:none;stroke:#000000;stroke-width:4;stroke-miterlimit:10;}
	.st4{fill-rule:evenodd;clip-rule:evenodd;fill:none;}
	.st5{font-family:'MyriadPro-Regular';}
	.st6{font-size:12px;}
	.st7{fill:none;stroke:#000000;stroke-width:5;stroke-linecap:round;stroke-miterlimit:10;}
	.st8{font-size:16px;}
</style>
<g>
	<line class="st0" x1="143.5" y1="25.9" x2="195.5" y2="25.9"/>
</g>
<g>
	<circle class="st1" cx="157.5" cy="25.9" r="6"/>
	<path d="M157.5,21.9c2.2,0,4,1.8,4,4s-1.8,4-4,4s-4-1.8-4-4S155.3,21.9,157.5,21.9 M157.5,17.9c-4.4,0-8,3.6-8,8c0,4.4,3.6,8,8,8
		s8-3.6,8-8C165.5,21.5,161.9,17.9,157.5,17.9L157.5,17.9z"/>
</g>
<g>
	<path d="M184.5,46.9c3.9,0,7,3.1,7,7c0,3.9-3.1,7-7,7h-17c-3.9,0-7-3.1-7-7c0-3.9,3.1-7,7-7H184.5 M184.5,42.9h-17
		c-6.1,0-11,4.9-11,11v0c0,6,4.9,11,11,11h17c6.1,0,11-4.9,11-11v0C195.5,47.9,190.6,42.9,184.5,42.9L184.5,42.9z"/>
</g>
<g>
	<line class="st0" x1="158.5" y1="53.9" x2="158.5" y2="37.9"/>
</g>
<line class="st2" x1="158.5" y1="37.9" x2="171.5" y2="44.9"/>
<circle class="st3" cx="162" cy="43.4" r="1.5"/>
<g>
	<path d="M184,51.9c-0.8,0-1.5,0.7-1.5,1.5s0.7,1.5,1.5,1.5s1.5-0.7,1.5-1.5S184.8,51.9,184,51.9L184,51.9z"/>
</g>
<g>
	<path d="M176,51.9c-0.8,0-1.5,0.7-1.5,1.5s0.7,1.5,1.5,1.5s1.5-0.7,1.5-1.5S176.8,51.9,176,51.9L176,51.9z"/>
</g>
<g>
	<path d="M168,51.9c-0.8,0-1.5,0.7-1.5,1.5s0.7,1.5,1.5,1.5s1.5-0.7,1.5-1.5S168.8,51.9,168,51.9L168,51.9z"/>
</g>
<rect x="143.5" y="68.8" class="st4" width="52" height="17.1"/>
<text transform="matrix(1 0 0 1 149.3385 77.359)" class="st5 st6">Commit</text>
<g>
	<path d="M379.5,22.9v37h-104v-37H379.5 M384.5,17.9h-114v47h114V17.9L384.5,17.9z"/>
</g>
<g>
	<line class="st7" x1="258" y1="41.4" x2="208" y2="41.4"/>
</g>
<line class="st7" x1="244" y1="32.4" x2="258" y2="41.4"/>
<line class="st7" x1="244" y1="50.4" x2="258" y2="41.4"/>
<rect x="204.5" y="53.8" class="st4" width="52" height="23.1"/>
<text transform="matrix(1 0 0 1 223.8864 62.359)"><tspan x="0" y="0" class="st5 st6">on </tspan><tspan x="-12.8" y="9" class="st5 st6">commit</tspan></text>
<rect x="275.5" y="34.9" class="st4" width="104" height="25"/>
<text transform="matrix(1 0 0 1 282.7512 43.4586)" class="st5 st6">Pre-Commit Hook</text>
<g>
	<path d="M600.5,61.9v37h-104v-37H600.5 M605.5,56.9h-114v47h114V56.9L605.5,56.9z"/>
</g>
<g>
	<line class="st7" x1="479" y1="80.4" x2="411" y2="81.4"/>
</g>
<line class="st7" x1="465" y1="71.4" x2="479" y2="80.4"/>
<line class="st7" x1="465" y1="89.4" x2="479" y2="80.4"/>
<rect x="425.5" y="92.8" class="st4" width="52" height="23.1"/>
<text transform="matrix(1 0 0 1 432.1306 101.359)"><tspan x="0" y="0" class="st5 st6">commit </tspan><tspan x="-6.6" y="9" class="st5 st6">changeset</tspan></text>
<rect x="496.5" y="73.9" class="st4" width="104" height="25"/>
<text transform="matrix(1 0 0 1 511.7971 82.4586)" class="st5 st6">Extract vectors</text>
<g>
	<path d="M791.5,61.9v37h-104v-37H791.5 M796.5,56.9h-114v47h114V56.9L796.5,56.9z"/>
</g>
<g>
	<line class="st7" x1="670" y1="80.4" x2="620" y2="80.4"/>
</g>
<line class="st7" x1="656" y1="71.4" x2="670" y2="80.4"/>
<line class="st7" x1="656" y1="89.4" x2="670" y2="80.4"/>
<rect x="616.5" y="92.8" class="st4" width="52" height="23.1"/>
<text transform="matrix(1 0 0 1 624.3127 101.359)" class="st5 st6">vectors</text>
<rect x="687.5" y="73.9" class="st4" width="104" height="25"/>
<text transform="matrix(1 0 0 1 706.8347 82.4586)" class="st5 st6">Classification</text>
<g>
	<line class="st7" x1="863" y1="80.4" x2="813" y2="80.4"/>
</g>
<line class="st7" x1="849" y1="71.4" x2="863" y2="80.4"/>
<line class="st7" x1="849" y1="89.4" x2="863" y2="80.4"/>
<rect x="809.5" y="92.8" class="st4" width="52" height="23.1"/>
<text transform="matrix(1 0 0 1 819.2746 101.359)"><tspan x="0" y="0" class="st5 st6">faulty/ </tspan><tspan x="-9.2" y="9" class="st5 st6">non faulty</tspan></text>
<rect x="874.5" y="68.9" class="st4" width="55" height="25"/>
<text transform="matrix(1 0 0 1 876.571 80.2984)"><tspan x="0" y="0" class="st5 st8">present </tspan><tspan x="6.7" y="13" class="st5 st8">result</tspan></text>
<g>
	<line class="st0" x1="10.5" y1="104.9" x2="62.5" y2="104.9"/>
</g>
<g>
	<circle class="st1" cx="24.5" cy="104.9" r="6"/>
	<path d="M24.5,100.9c2.2,0,4,1.8,4,4s-1.8,4-4,4s-4-1.8-4-4S22.3,100.9,24.5,100.9 M24.5,96.9c-4.4,0-8,3.6-8,8s3.6,8,8,8
		s8-3.6,8-8S28.9,96.9,24.5,96.9L24.5,96.9z"/>
</g>
<g>
	<path d="M51.5,125.9c3.9,0,7,3.1,7,7c0,3.9-3.1,7-7,7h-17c-3.9,0-7-3.1-7-7c0-3.9,3.1-7,7-7H51.5 M51.5,121.9h-17
		c-6,0-11,4.9-11,11v0c0,6,4.9,11,11,11h17c6,0,11-4.9,11-11v0C62.5,126.9,57.6,121.9,51.5,121.9L51.5,121.9z"/>
</g>
<g>
	<line class="st0" x1="25.5" y1="132.9" x2="25.5" y2="116.9"/>
</g>
<line class="st2" x1="25.5" y1="116.9" x2="38.5" y2="123.9"/>
<circle class="st3" cx="29" cy="122.4" r="1.5"/>
<g>
	<path d="M51,130.9c-0.8,0-1.5,0.7-1.5,1.5s0.7,1.5,1.5,1.5s1.5-0.7,1.5-1.5S51.8,130.9,51,130.9L51,130.9z"/>
</g>
<g>
	<path d="M43,130.9c-0.8,0-1.5,0.7-1.5,1.5s0.7,1.5,1.5,1.5s1.5-0.7,1.5-1.5S43.8,130.9,43,130.9L43,130.9z"/>
</g>
<g>
	<path d="M35,130.9c-0.8,0-1.5,0.7-1.5,1.5s0.7,1.5,1.5,1.5s1.5-0.7,1.5-1.5S35.8,130.9,35,130.9L35,130.9z"/>
</g>
<rect x="10.5" y="147.8" class="st4" width="52" height="17.1"/>
<text transform="matrix(1 0 0 1 16.3386 156.359)" class="st5 st6">Commit</text>
<g>
	<line class="st7" x1="125" y1="120.4" x2="75" y2="120.4"/>
</g>
<line class="st7" x1="111" y1="111.4" x2="125" y2="120.4"/>
<line class="st7" x1="111" y1="129.4" x2="125" y2="120.4"/>
<rect x="71.5" y="132.8" class="st4" width="52" height="23.1"/>
<text transform="matrix(1 0 0 1 90.8864 141.359)"><tspan x="0" y="0" class="st5 st6">on </tspan><tspan x="-12.8" y="9" class="st5 st6">commit</tspan></text>
<g>
	<line class="st0" x1="145.5" y1="86.9" x2="145.5" y2="154.9"/>
</g>
<g>
	<circle class="st1" cx="145.5" cy="100.9" r="6"/>
	<path d="M145.5,96.9c2.2,0,4,1.8,4,4s-1.8,4-4,4s-4-1.8-4-4S143.3,96.9,145.5,96.9 M145.5,92.9c-4.4,0-8,3.6-8,8s3.6,8,8,8
		s8-3.6,8-8S149.9,92.9,145.5,92.9L145.5,92.9z"/>
</g>
<g>
	<circle class="st1" cx="145.5" cy="120.9" r="6"/>
	<path d="M145.5,116.9c2.2,0,4,1.8,4,4s-1.8,4-4,4s-4-1.8-4-4S143.3,116.9,145.5,116.9 M145.5,112.9c-4.4,0-8,3.6-8,8s3.6,8,8,8
		s8-3.6,8-8S149.9,112.9,145.5,112.9L145.5,112.9z"/>
</g>
<g>
	<circle class="st1" cx="145.5" cy="140.9" r="6"/>
	<path d="M145.5,136.9c2.2,0,4,1.8,4,4s-1.8,4-4,4s-4-1.8-4-4S143.3,136.9,145.5,136.9 M145.5,132.9c-4.4,0-8,3.6-8,8s3.6,8,8,8
		s8-3.6,8-8S149.9,132.9,145.5,132.9L145.5,132.9z"/>
</g>
<rect x="158.5" y="98.8" class="st4" width="52" height="52.1"/>
<text transform="matrix(1 0 0 1 158.5104 107.359)"><tspan x="0" y="0" class="st5 st6">local</tspan><tspan x="0" y="14.4" class="st5 st6">commit</tspan><tspan x="0" y="28.8" class="st5 st6">history</tspan></text>
<g>
	<line class="st7" x1="258" y1="120.4" x2="208" y2="120.4"/>
</g>
<line class="st7" x1="244" y1="111.4" x2="258" y2="120.4"/>
<line class="st7" x1="244" y1="129.4" x2="258" y2="120.4"/>
<rect x="204.5" y="132.8" class="st4" width="52" height="23.1"/>
<text transform="matrix(1 0 0 1 223.8864 141.359)"><tspan x="0" y="0" class="st5 st6">on</tspan><tspan x="-5.8" y="9" class="st5 st6">push</tspan></text>
<g>
	<path d="M380.5,101.9v37h-104v-37H380.5 M385.5,96.9h-114v47h114V96.9L385.5,96.9z"/>
</g>
<rect x="276.5" y="113.9" class="st4" width="104" height="25"/>
<text transform="matrix(1 0 0 1 301.7209 122.4586)" class="st5 st6">Push Hook</text>
<line class="st7" x1="384.5" y1="41.9" x2="410.5" y2="41.9"/>
<line class="st7" x1="385.5" y1="120.9" x2="410.5" y2="120.9"/>
<line class="st7" x1="411" y1="42.4" x2="411" y2="120.4"/>
</svg>
