<svg xmlns="http://www.w3.org/2000/svg" viewBox="0 0 754.17 77.25"><defs><style>.cls-1,.cls-15{fill:none;}.cls-1,.cls-15,.cls-18{stroke:#000;stroke-miterlimit:10;}.cls-1{stroke-linecap:round;}.cls-1,.cls-18{stroke-width:5px;}.cls-2{font-size:15px;}.cls-12,.cls-19,.cls-2{font-family:MyriadPro-Regular, Myriad Pro;}.cls-3{letter-spacing:-0.01em;}.cls-4{letter-spacing:0.01em;}.cls-5{letter-spacing:-0.01em;}.cls-6{letter-spacing:-0.01em;}.cls-7{letter-spacing:0.01em;}.cls-8{letter-spacing:0em;}.cls-9{letter-spacing:0.01em;}.cls-10{letter-spacing:0em;}.cls-11{letter-spacing:-0.01em;}.cls-12{font-size:16px;}.cls-13{letter-spacing:0.01em;}.cls-14{letter-spacing:-0.01em;}.cls-15{stroke-width:4px;}.cls-16,.cls-18{fill:#fff;}.cls-17{letter-spacing:0.03em;}.cls-19{font-size:18px;}.cls-20{letter-spacing:-0.01em;}.cls-21{letter-spacing:-0.01em;}.cls-22{letter-spacing:0em;}</style></defs><title>kameideeperprocess-svg</title><g id="Layer_2" data-name="Layer 2"><g id="Layer_1-2" data-name="Layer 1"><line class="cls-1" x1="497.5" y1="30.5" x2="447.5" y2="30.5"/><line class="cls-1" x1="483.5" y1="21.5" x2="497.5" y2="30.5"/><line class="cls-1" x1="483.5" y1="39.5" x2="497.5" y2="30.5"/><text class="cls-2" transform="translate(447.28 53.55)"><tspan class="cls-3">v</tspan><tspan x="7.06" y="0">e</tspan><tspan class="cls-4" x="14.58" y="0">c</tspan><tspan class="cls-5" x="21.49" y="0">t</tspan><tspan x="26.37" y="0">ors</tspan></text></g><g id="Layer_3" data-name="Layer 3"><path d="M430,49H326V12H430Zm5-42H321V54H435Z"/><line class="cls-1" x1="308.5" y1="30.5" x2="240.5" y2="31.5"/><line class="cls-1" x1="294.5" y1="21.5" x2="308.5" y2="30.5"/><line class="cls-1" x1="294.5" y1="39.5" x2="308.5" y2="30.5"/><text class="cls-2" transform="translate(254.32 55.55)"><tspan class="cls-6">c</tspan><tspan x="6.65" y="0">ommit </tspan></text><text class="cls-2" transform="translate(246.04 70.55)">changeset</text><text class="cls-2" transform="translate(331.97 34.65)">E<tspan class="cls-7" x="7.38" y="0">x</tspan><tspan x="14.5" y="0">t</tspan><tspan class="cls-8" x="19.47" y="0">r</tspan><tspan x="24.31" y="0">a</tspan><tspan class="cls-9" x="31.54" y="0">c</tspan><tspan class="cls-10" x="38.44" y="0">t </tspan><tspan class="cls-11" x="46.59" y="0">v</tspan><tspan class="cls-10" x="53.67" y="0">e</tspan><tspan class="cls-7" x="61.18" y="0">c</tspan><tspan class="cls-5" x="68.08" y="0">t</tspan><tspan x="72.96" y="0">ors</tspan></text><path d="M621,49H517V12H621Zm5-42H512V54H626Z"/><path d="M535.45,34.38a4.89,4.89,0,0,1-2.09.42,3.45,3.45,0,0,1-3.61-3.7,3.69,3.69,0,0,1,3.9-3.86,4.4,4.4,0,0,1,1.83.38l-.3,1a3.07,3.07,0,0,0-1.53-.35A2.51,2.51,0,0,0,531.09,31a2.49,2.49,0,0,0,2.51,2.71,3.81,3.81,0,0,0,1.62-.36ZM537,24h1.32V34.65H537Zm7.55,10.65-.1-.92h-.05a2.69,2.69,0,0,1-2.22,1.08A2.06,2.06,0,0,1,540,32.73c0-1.75,1.56-2.71,4.37-2.7v-.15a1.5,1.5,0,0,0-1.65-1.68,3.6,3.6,0,0,0-1.89.54l-.3-.87a4.5,4.5,0,0,1,2.38-.64c2.22,0,2.76,1.51,2.76,3v2.71a10.26,10.26,0,0,0,.12,1.74Zm-.19-3.7c-1.44,0-3.08.22-3.08,1.63a1.17,1.17,0,0,0,1.25,1.26,1.81,1.81,0,0,0,1.75-1.21,1.3,1.3,0,0,0,.08-.42Zm3.22,2.35a3.51,3.51,0,0,0,1.74.52c1,0,1.41-.48,1.41-1.08s-.37-1-1.35-1.33c-1.3-.46-1.92-1.18-1.92-2.05A2.24,2.24,0,0,1,550,27.23a3.6,3.6,0,0,1,1.78.45l-.33,1a2.81,2.81,0,0,0-1.48-.42c-.78,0-1.22.45-1.22,1s.44.87,1.38,1.23c1.26.48,1.91,1.11,1.91,2.19,0,1.27-1,2.17-2.72,2.17a4.15,4.15,0,0,1-2-.5Zm5.94,0a3.51,3.51,0,0,0,1.74.52c1,0,1.41-.48,1.41-1.08s-.37-1-1.35-1.33c-1.3-.46-1.92-1.18-1.92-2.05a2.24,2.24,0,0,1,2.51-2.13,3.6,3.6,0,0,1,1.78.45l-.33,1a2.81,2.81,0,0,0-1.48-.42c-.78,0-1.22.45-1.22,1s.44.87,1.38,1.23c1.26.48,1.91,1.11,1.91,2.19,0,1.27-1,2.17-2.72,2.17a4.15,4.15,0,0,1-2-.5Zm7.59-7.95a.77.77,0,0,1-.84.81.78.78,0,0,1-.79-.81.8.8,0,0,1,.82-.82A.78.78,0,0,1,561.11,25.35Zm-1.47,9.3V27.39H561v7.26Zm3.65,0V28.4h-1v-1h1V27a2.9,2.9,0,0,1,3.16-3.16,3.65,3.65,0,0,1,1.85.48l-.38,1a2.79,2.79,0,0,0-1.53-.42c-1.39,0-1.8,1-1.8,2.13v.36h4.22v7.26H567.5V28.4h-2.91v6.25Zm12.88-.27a4.83,4.83,0,0,1-2.08.42,3.45,3.45,0,0,1-3.62-3.7,3.69,3.69,0,0,1,3.9-3.86,4.4,4.4,0,0,1,1.83.38l-.3,1a3,3,0,0,0-1.53-.35A2.51,2.51,0,0,0,571.81,31a2.49,2.49,0,0,0,2.52,2.71,3.84,3.84,0,0,0,1.62-.36Zm5.57.27-.11-.92h0a2.72,2.72,0,0,1-2.22,1.08,2.06,2.06,0,0,1-2.22-2.08c0-1.75,1.56-2.71,4.36-2.7v-.15a1.49,1.49,0,0,0-1.65-1.68,3.63,3.63,0,0,0-1.89.54l-.3-.87a4.51,4.51,0,0,1,2.39-.64c2.22,0,2.76,1.51,2.76,3v2.71a10.26,10.26,0,0,0,.12,1.74Zm-.2-3.7c-1.44,0-3.07.22-3.07,1.63a1.17,1.17,0,0,0,1.24,1.26,1.81,1.81,0,0,0,1.76-1.21,1.6,1.6,0,0,0,.07-.42Zm4.94-5.64v2.08h1.89v1h-1.89v3.91c0,.9.25,1.41,1,1.41a3.13,3.13,0,0,0,.76-.09l.06,1a3.32,3.32,0,0,1-1.17.18,1.82,1.82,0,0,1-1.42-.56,2.66,2.66,0,0,1-.51-1.89v-4h-1.13v-1h1.13V25.65Zm4.84,0a.77.77,0,0,1-.84.81.78.78,0,0,1-.79-.81.8.8,0,0,1,.82-.82A.78.78,0,0,1,591.32,25.35Zm-1.47,9.3V27.39h1.32v7.26ZM599.93,31a3.55,3.55,0,0,1-3.61,3.85,3.45,3.45,0,0,1-3.48-3.73,3.54,3.54,0,0,1,3.6-3.85A3.43,3.43,0,0,1,599.93,31Zm-5.76.08c0,1.59.92,2.78,2.21,2.78s2.2-1.18,2.2-2.81c0-1.23-.61-2.79-2.17-2.79S594.17,29.66,594.17,31Zm7.43-1.68c0-.75,0-1.37-.06-2h1.17l.07,1.2h0a2.67,2.67,0,0,1,2.4-1.36c1,0,2.57.6,2.57,3.09v4.33h-1.32V30.47c0-1.17-.44-2.15-1.68-2.15A1.88,1.88,0,0,0,603,29.67a1.93,1.93,0,0,0-.09.62v4.36H601.6Z"/><line class="cls-1" x1="693.5" y1="30.5" x2="654" y2="30.5"/><line class="cls-1" x1="682.44" y1="23.39" x2="693.5" y2="30.5"/><line class="cls-1" x1="682.44" y1="37.61" x2="693.5" y2="30.5"/><text class="cls-12" transform="translate(637.31 58.26)">faul<tspan class="cls-13" x="24.98" y="0">t</tspan><tspan x="30.4" y="0">y/ non </tspan></text><text class="cls-12" transform="translate(655.02 73.25)">faul<tspan class="cls-13" x="24.98" y="0">t</tspan><tspan x="30.4" y="0">y</tspan></text><text class="cls-12" transform="translate(723.91 30.35)">use</text><text class="cls-12" transform="translate(716.84 43.34)"><tspan class="cls-14">r</tspan><tspan x="5.09" y="0">esult</tspan></text><line class="cls-15" x1="8" x2="8" y2="68"/><path class="cls-16" d="M8,20a6,6,0,1,1,6-6,6,6,0,0,1-6,6"/><path d="M8,10a4,4,0,1,1-4,4,4,4,0,0,1,4-4M8,6a8,8,0,1,0,8,8A8,8,0,0,0,8,6"/><path class="cls-16" d="M8,40a6,6,0,1,1,6-6,6,6,0,0,1-6,6"/><path d="M8,30a4,4,0,1,1-4,4,4,4,0,0,1,4-4m0-4a8,8,0,1,0,8,8,8,8,0,0,0-8-8"/><path class="cls-16" d="M8,60a6,6,0,1,1,6-6,6,6,0,0,1-6,6"/><path d="M8,50a4,4,0,1,1-4,4,4,4,0,0,1,4-4m0-4a8,8,0,1,0,8,8,8,8,0,0,0-8-8"/><text class="cls-2" transform="translate(18 22.55)">local</text><text class="cls-2" transform="translate(18 40.55)"><tspan class="cls-6">c</tspan><tspan x="6.65" y="0">ommit</tspan></text><text class="cls-2" transform="translate(18 58.55)">his<tspan class="cls-6" x="17.77" y="0">t</tspan><tspan x="22.66" y="0">o</tspan><tspan class="cls-17" x="30.9" y="0">r</tspan><tspan x="36.18" y="0">y</tspan></text><line class="cls-1" x1="126.5" y1="33.5" x2="76.5" y2="33.5"/><line class="cls-1" x1="112.5" y1="24.5" x2="126.5" y2="33.5"/><line class="cls-1" x1="112.5" y1="42.5" x2="126.5" y2="33.5"/><text class="cls-2" transform="translate(83.72 56.55)">event</text><text></text><rect class="cls-18" x="139.5" y="8.5" width="86" height="49" rx="12" ry="12"/><text class="cls-19" transform="translate(161.56 30.65)"><tspan class="cls-20">E</tspan><tspan class="cls-21" x="8.73" y="0">v</tspan><tspan x="17.21" y="0">e</tspan><tspan class="cls-22" x="26.23" y="0">n</tspan><tspan x="36.14" y="0">t </tspan><tspan x="1.08" y="18">Hook</tspan></text></g></g></svg>