<svg xmlns="http://www.w3.org/2000/svg" viewBox="0 0 911.17 209.3"><defs><style>.cls-1,.cls-3,.cls-6{fill:none;stroke:#000;stroke-miterlimit:10;}.cls-1,.cls-3{stroke-width:4px;}.cls-2,.cls-28{fill:#fff;}.cls-3,.cls-6{stroke-linecap:round;}.cls-4{font-size:15px;}.cls-21,.cls-28,.cls-4{font-family:MyriadPro-Regular, Myriad Pro;}.cls-5{letter-spacing:-0.01em;}.cls-6{stroke-width:5px;}.cls-7{letter-spacing:-0.01em;}.cls-8{letter-spacing:-0.02em;}.cls-9{letter-spacing:-0.01em;}.cls-10{letter-spacing:0.03em;}.cls-11{letter-spacing:0.01em;}.cls-12{letter-spacing:-0.01em;}.cls-13{letter-spacing:0.01em;}.cls-14{letter-spacing:0em;}.cls-15{letter-spacing:0.01em;}.cls-16{letter-spacing:0em;}.cls-17{letter-spacing:-0.01em;}.cls-18{letter-spacing:-0.01em;}.cls-19{letter-spacing:0.01em;}.cls-20{letter-spacing:0em;}.cls-21,.cls-28{font-size:16px;}.cls-22{letter-spacing:0.01em;}.cls-23{letter-spacing:-0.01em;}.cls-24{letter-spacing:-0.01em;}.cls-25{letter-spacing:0.03em;}.cls-26{letter-spacing:-0.02em;}.cls-27{letter-spacing:0em;}.cls-29{letter-spacing:-0.04em;}.cls-30{letter-spacing:0em;}.cls-31{letter-spacing:-0.01em;}.cls-32{letter-spacing:-0.04em;}.cls-33{letter-spacing:-0.03em;}.cls-34{letter-spacing:0em;}.cls-35{letter-spacing:-0.01em;}.cls-36{letter-spacing:-0.01em;}.cls-37{letter-spacing:-0.01em;}.cls-38{letter-spacing:0em;}</style></defs><title>typicalprocess-svg</title><g id="Layer_2" data-name="Layer 2"><g id="Layer_2-2" data-name="Layer 2"><line class="cls-1" x1="138" y1="46" x2="190" y2="46"/><path class="cls-2" d="M152,52a6,6,0,1,1,6-6,6,6,0,0,1-6,6"/><path d="M152,42a4,4,0,1,1-4,4,4,4,0,0,1,4-4m0-4a8,8,0,1,0,8,8,8,8,0,0,0-8-8"/><path d="M179,67a7,7,0,0,1,0,14H162a7,7,0,0,1,0-14h17m0-4H162a11,11,0,0,0,0,22h17a11,11,0,0,0,0-22"/><line class="cls-1" x1="153" y1="74" x2="153" y2="58"/><line class="cls-3" x1="153" y1="58" x2="166" y2="65"/><circle class="cls-1" cx="156.5" cy="63.5" r="1.5"/><path d="M178.5,72a1.5,1.5,0,1,0,1.5,1.5,1.5,1.5,0,0,0-1.5-1.5"/><path d="M170.5,72a1.5,1.5,0,1,0,1.5,1.5,1.5,1.5,0,0,0-1.5-1.5"/><path d="M162.5,72a1.5,1.5,0,1,0,1.5,1.5,1.5,1.5,0,0,0-1.5-1.5"/><text class="cls-4" transform="translate(138.87 102.55)"><tspan class="cls-5">C</tspan><tspan x="8.55" y="0">ommit</tspan></text><path d="M380,80H276V43H380Zm5-42H271V85H385Z"/><line class="cls-6" x1="258.5" y1="61.5" x2="208.5" y2="61.5"/><line class="cls-6" x1="244.5" y1="52.5" x2="258.5" y2="61.5"/><line class="cls-6" x1="244.5" y1="70.5" x2="258.5" y2="61.5"/><text class="cls-4" transform="translate(222.72 87.55)">on </text><text class="cls-4" transform="translate(206.82 102.55)"><tspan class="cls-7">c</tspan><tspan x="6.65" y="0">ommit</tspan></text><text class="cls-4" transform="translate(290.25 58.64)"><tspan class="cls-8">P</tspan><tspan class="cls-9" x="7.74" y="0">r</tspan><tspan class="cls-10" x="12.51" y="0">e</tspan><tspan class="cls-11" x="20.44" y="0">-</tspan><tspan class="cls-12" x="25.26" y="0">C</tspan><tspan x="33.79" y="0">ommit </tspan></text><text class="cls-4" transform="translate(311.36 73.64)">Hook</text><path d="M601,132H497V95H601Zm5-42H492v47H606Z"/><line class="cls-6" x1="479.5" y1="113.5" x2="411.5" y2="114.5"/><line class="cls-6" x1="465.5" y1="104.5" x2="479.5" y2="113.5"/><line class="cls-6" x1="465.5" y1="122.5" x2="479.5" y2="113.5"/><text class="cls-4" transform="translate(425.32 138.55)"><tspan class="cls-7">c</tspan><tspan x="6.65" y="0">ommit </tspan></text><text class="cls-4" transform="translate(417.04 153.55)">changeset</text><text class="cls-4" transform="translate(502.98 117.65)">E<tspan class="cls-13" x="7.38" y="0">x</tspan><tspan x="14.5" y="0">t</tspan><tspan class="cls-14" x="19.47" y="0">r</tspan><tspan x="24.31" y="0">a</tspan><tspan class="cls-15" x="31.54" y="0">c</tspan><tspan class="cls-16" x="38.44" y="0">t </tspan><tspan class="cls-17" x="46.59" y="0">v</tspan><tspan class="cls-16" x="53.67" y="0">e</tspan><tspan class="cls-13" x="61.18" y="0">c</tspan><tspan class="cls-18" x="68.08" y="0">t</tspan><tspan x="72.96" y="0">ors</tspan></text><path d="M792,132H688V95H792Zm5-42H683v47H797Z"/><line class="cls-6" x1="670.5" y1="113.5" x2="620.5" y2="113.5"/><line class="cls-6" x1="656.5" y1="104.5" x2="670.5" y2="113.5"/><line class="cls-6" x1="656.5" y1="122.5" x2="670.5" y2="113.5"/><text class="cls-4" transform="translate(620.28 136.55)"><tspan class="cls-9">v</tspan><tspan x="7.08" y="0">e</tspan><tspan class="cls-19" x="14.59" y="0">c</tspan><tspan class="cls-7" x="21.5" y="0">t</tspan><tspan class="cls-20" x="26.38" y="0">ors</tspan></text><path d="M706.45,117.38a4.83,4.83,0,0,1-2.08.42,3.46,3.46,0,0,1-3.62-3.71,3.69,3.69,0,0,1,3.9-3.85,4.42,4.42,0,0,1,1.83.37l-.3,1a3.05,3.05,0,0,0-1.53-.34,2.74,2.74,0,0,0,0,5.46,3.84,3.84,0,0,0,1.62-.36ZM708,107h1.32v10.65H708Zm7.56,10.65-.11-.92h0a2.72,2.72,0,0,1-2.22,1.08,2.06,2.06,0,0,1-2.22-2.08c0-1.76,1.56-2.72,4.36-2.7v-.15a1.49,1.49,0,0,0-1.65-1.68,3.63,3.63,0,0,0-1.89.54l-.3-.87a4.51,4.51,0,0,1,2.39-.65c2.22,0,2.76,1.52,2.76,3v2.72a10.26,10.26,0,0,0,.12,1.74Zm-.2-3.71c-1.44,0-3.07.23-3.07,1.64a1.17,1.17,0,0,0,1.24,1.26,1.81,1.81,0,0,0,1.76-1.22,1.48,1.48,0,0,0,.07-.42Zm3.23,2.36a3.51,3.51,0,0,0,1.74.52c1,0,1.41-.48,1.41-1.08s-.38-1-1.35-1.33c-1.31-.47-1.92-1.19-1.92-2.06a2.23,2.23,0,0,1,2.5-2.13,3.64,3.64,0,0,1,1.79.45l-.33,1a2.85,2.85,0,0,0-1.49-.42c-.78,0-1.21.45-1.21,1s.43.87,1.38,1.23c1.26.48,1.9,1.11,1.9,2.19,0,1.28-1,2.18-2.71,2.18a4.13,4.13,0,0,1-2-.5Zm5.94,0a3.51,3.51,0,0,0,1.74.52c1,0,1.41-.48,1.41-1.08s-.38-1-1.35-1.33c-1.31-.47-1.92-1.19-1.92-2.06a2.23,2.23,0,0,1,2.5-2.13,3.64,3.64,0,0,1,1.79.45l-.33,1a2.85,2.85,0,0,0-1.49-.42c-.78,0-1.21.45-1.21,1s.43.87,1.38,1.23c1.26.48,1.9,1.11,1.9,2.19,0,1.28-1,2.18-2.71,2.18a4.13,4.13,0,0,1-2-.5Zm7.59-8a.82.82,0,0,1-1.64,0,.81.81,0,0,1,.83-.83A.79.79,0,0,1,732.12,108.35Zm-1.47,9.3v-7.26H732v7.26Zm3.64,0v-6.26h-1v-1h1V110a2.91,2.91,0,0,1,3.16-3.17,3.65,3.65,0,0,1,1.85.48l-.38,1a2.71,2.71,0,0,0-1.53-.42c-1.39,0-1.79,1-1.79,2.13v.36h4.21v7.26H738.5v-6.26h-2.9v6.26Zm12.88-.27a4.83,4.83,0,0,1-2.08.42,3.46,3.46,0,0,1-3.62-3.71,3.69,3.69,0,0,1,3.9-3.85,4.42,4.42,0,0,1,1.83.37l-.3,1a3.05,3.05,0,0,0-1.53-.34,2.74,2.74,0,0,0,0,5.46,3.84,3.84,0,0,0,1.62-.36Zm5.57.27-.11-.92h0a2.72,2.72,0,0,1-2.22,1.08,2.06,2.06,0,0,1-2.22-2.08c0-1.76,1.56-2.72,4.36-2.7v-.15a1.49,1.49,0,0,0-1.65-1.68,3.63,3.63,0,0,0-1.89.54l-.3-.87a4.51,4.51,0,0,1,2.39-.65c2.22,0,2.76,1.52,2.76,3v2.72a10.26,10.26,0,0,0,.12,1.74Zm-.2-3.71c-1.44,0-3.07.23-3.07,1.64a1.17,1.17,0,0,0,1.24,1.26,1.81,1.81,0,0,0,1.76-1.22,1.48,1.48,0,0,0,.07-.42Zm4.94-5.64v2.09h1.89v1h-1.89v3.92c0,.9.25,1.41,1,1.41a3.13,3.13,0,0,0,.76-.09l.06,1a3.32,3.32,0,0,1-1.17.18,1.82,1.82,0,0,1-1.42-.56,2.66,2.66,0,0,1-.51-1.89v-4h-1.13v-1h1.13v-1.74Zm4.84,0a.77.77,0,0,1-.84.81.78.78,0,0,1-.79-.81.8.8,0,0,1,.82-.83A.78.78,0,0,1,762.32,108.35Zm-1.47,9.3v-7.26h1.32v7.26ZM770.93,114a3.55,3.55,0,0,1-3.61,3.85,3.45,3.45,0,0,1-3.48-3.73,3.55,3.55,0,0,1,3.6-3.86A3.44,3.44,0,0,1,770.93,114Zm-5.76.07c0,1.59.92,2.79,2.21,2.79s2.2-1.18,2.2-2.82c0-1.23-.61-2.79-2.17-2.79S765.17,112.65,765.17,114Zm7.43-1.68c0-.75,0-1.36-.06-2h1.17l.07,1.2h0a2.67,2.67,0,0,1,2.4-1.37c1,0,2.57.6,2.57,3.09v4.34h-1.32v-4.19c0-1.17-.44-2.14-1.68-2.14a1.94,1.94,0,0,0-1.86,2v4.37H772.6Z"/><line class="cls-6" x1="863.5" y1="113.5" x2="813.5" y2="113.5"/><line class="cls-6" x1="849.5" y1="104.5" x2="863.5" y2="113.5"/><line class="cls-6" x1="849.5" y1="122.5" x2="863.5" y2="113.5"/><text class="cls-21" transform="translate(799.31 137.26)">faul<tspan class="cls-22" x="24.98" y="0">t</tspan><tspan x="30.4" y="0">y/ non </tspan></text><text class="cls-21" transform="translate(817.03 152.25)">faul<tspan class="cls-22" x="24.98" y="0">t</tspan><tspan x="30.4" y="0">y</tspan></text><text class="cls-21" transform="translate(880.91 112.35)">use</text><text class="cls-21" transform="translate(873.84 125.34)"><tspan class="cls-23">r</tspan><tspan x="5.09" y="0">esult</tspan></text><line class="cls-1" x1="1" y1="152" x2="53" y2="152"/><path class="cls-2" d="M15,158a6,6,0,1,1,6-6,6,6,0,0,1-6,6"/><path d="M15,148a4,4,0,1,1-4,4,4,4,0,0,1,4-4m0-4a8,8,0,1,0,8,8,8,8,0,0,0-8-8"/><path d="M42,173a7,7,0,0,1,0,14H25a7,7,0,0,1,0-14H42m0-4H25a11,11,0,0,0,0,22H42a11,11,0,0,0,0-22"/><line class="cls-1" x1="16" y1="180" x2="16" y2="164"/><line class="cls-3" x1="16" y1="164" x2="29" y2="171"/><circle class="cls-1" cx="19.5" cy="169.5" r="1.5"/><path d="M41.5,178a1.5,1.5,0,1,0,1.5,1.5,1.5,1.5,0,0,0-1.5-1.5"/><path d="M33.5,178a1.5,1.5,0,1,0,1.5,1.5,1.5,1.5,0,0,0-1.5-1.5"/><path d="M25.5,178a1.5,1.5,0,1,0,1.5,1.5,1.5,1.5,0,0,0-1.5-1.5"/><text class="cls-4" transform="translate(1.87 205.55)"><tspan class="cls-5">C</tspan><tspan x="8.55" y="0">ommit</tspan></text><line class="cls-6" x1="118.5" y1="167.5" x2="68.5" y2="167.5"/><line class="cls-6" x1="104.5" y1="158.5" x2="118.5" y2="167.5"/><line class="cls-6" x1="104.5" y1="176.5" x2="118.5" y2="167.5"/><text class="cls-4" transform="translate(82.72 190.55)">on </text><text class="cls-4" transform="translate(66.82 199.55)"><tspan class="cls-24">c</tspan><tspan x="6.63" y="0">ommit</tspan></text><line class="cls-1" x1="140" y1="134" x2="140" y2="202"/><path class="cls-2" d="M140,154a6,6,0,1,1,6-6,6,6,0,0,1-6,6"/><path d="M140,144a4,4,0,1,1-4,4,4,4,0,0,1,4-4m0-4a8,8,0,1,0,8,8,8,8,0,0,0-8-8"/><path class="cls-2" d="M140,174a6,6,0,1,1,6-6,6,6,0,0,1-6,6"/><path d="M140,164a4,4,0,1,1-4,4,4,4,0,0,1,4-4m0-4a8,8,0,1,0,8,8,8,8,0,0,0-8-8"/><path class="cls-2" d="M140,194a6,6,0,1,1,6-6,6,6,0,0,1-6,6"/><path d="M140,184a4,4,0,1,1-4,4,4,4,0,0,1,4-4m0-4a8,8,0,1,0,8,8,8,8,0,0,0-8-8"/><text class="cls-4" transform="translate(150 156.55)">local</text><text class="cls-4" transform="translate(150 174.55)"><tspan class="cls-7">c</tspan><tspan x="6.65" y="0">ommit</tspan></text><text class="cls-4" transform="translate(150 192.55)">his<tspan class="cls-7" x="17.77" y="0">t</tspan><tspan x="22.66" y="0">o</tspan><tspan class="cls-25" x="30.9" y="0">r</tspan><tspan x="36.18" y="0">y</tspan></text><line class="cls-6" x1="258.5" y1="167.5" x2="208.5" y2="167.5"/><line class="cls-6" x1="244.5" y1="158.5" x2="258.5" y2="167.5"/><line class="cls-6" x1="244.5" y1="176.5" x2="258.5" y2="167.5"/><text class="cls-4" transform="translate(222.72 190.55)">on</text><text class="cls-4" transform="translate(215.48 205.55)">push</text><path d="M381,186H277V149H381Zm5-42H272v47H386Z"/><text class="cls-4" transform="translate(283.11 171.65)"><tspan class="cls-8">P</tspan><tspan class="cls-9" x="7.74" y="0">r</tspan><tspan class="cls-10" x="12.51" y="0">e</tspan><tspan x="20.44" y="0">-</tspan><tspan class="cls-26" x="25.05" y="0">P</tspan><tspan class="cls-27" x="32.8" y="0">ush Hook</tspan></text><line class="cls-6" x1="385" y1="62" x2="411" y2="62"/><line class="cls-6" x1="386" y1="168" x2="411" y2="168"/><line class="cls-6" x1="411.5" y1="62.5" x2="411.5" y2="167.5"/><rect width="241" height="26"/><text class="cls-28" transform="translate(7.79 17.89)"><tspan class="cls-29">T</tspan><tspan class="cls-30" x="7.33" y="0">ypical </tspan><tspan class="cls-31" x="49.76" y="0">C</tspan><tspan x="58.88" y="0">ommit</tspan><tspan class="cls-32" x="103.39" y="0"> </tspan><tspan class="cls-33" x="106.21" y="0">V</tspan><tspan x="114.62" y="0">alid</tspan><tspan class="cls-34" x="138.88" y="0">a</tspan><tspan x="146.54" y="0">tion </tspan><tspan class="cls-35" x="176.64" y="0">P</tspan><tspan class="cls-36" x="184.91" y="0">r</tspan><tspan x="189.98" y="0">o</tspan><tspan class="cls-37" x="198.77" y="0">c</tspan><tspan class="cls-38" x="205.85" y="0">ess</tspan></text></g></g></svg>