<svg xmlns="http://www.w3.org/2000/svg" viewBox="0 0 733.17 176.25"><defs><style>.cls-1,.cls-3,.cls-6{fill:none;stroke:#000;stroke-miterlimit:10;}.cls-1,.cls-3{stroke-width:4px;}.cls-2{fill:#fff;}.cls-3,.cls-6{stroke-linecap:round;}.cls-4{font-size:15px;}.cls-21,.cls-4{font-family:MyriadPro-Regular, Myriad Pro;}.cls-5{letter-spacing:-0.01em;}.cls-6{stroke-width:5px;}.cls-7{letter-spacing:-0.01em;}.cls-8{letter-spacing:-0.02em;}.cls-9{letter-spacing:-0.01em;}.cls-10{letter-spacing:0.03em;}.cls-11{letter-spacing:0.01em;}.cls-12{letter-spacing:-0.01em;}.cls-13{letter-spacing:0.01em;}.cls-14{letter-spacing:0em;}.cls-15{letter-spacing:0.01em;}.cls-16{letter-spacing:0em;}.cls-17{letter-spacing:-0.01em;}.cls-18{letter-spacing:-0.01em;}.cls-19{letter-spacing:0.01em;}.cls-20{letter-spacing:0em;}.cls-21{font-size:16px;}.cls-22{letter-spacing:0.01em;}.cls-23{letter-spacing:-0.01em;}.cls-24{letter-spacing:-0.01em;}.cls-25{letter-spacing:0.03em;}.cls-26{letter-spacing:-0.02em;}.cls-27{letter-spacing:0em;}</style></defs><title>typicalprocess-svg</title><g id="Layer_2" data-name="Layer 2"><g id="Layer_2-2" data-name="Layer 2"><line class="cls-1" x1="137" y1="8" x2="189" y2="8"/><path class="cls-2" d="M151,14a6,6,0,1,1,6-6,6,6,0,0,1-6,6"/><path d="M151,4a4,4,0,1,1-4,4,4,4,0,0,1,4-4m0-4a8,8,0,1,0,8,8,8,8,0,0,0-8-8"/><path d="M178,29a7,7,0,0,1,0,14H161a7,7,0,0,1,0-14h17m0-4H161a11,11,0,0,0,0,22h17a11,11,0,0,0,0-22"/><line class="cls-1" x1="152" y1="36" x2="152" y2="20"/><line class="cls-3" x1="152" y1="20" x2="165" y2="27"/><circle class="cls-1" cx="155.5" cy="25.5" r="1.5"/><path d="M177.5,34a1.5,1.5,0,1,0,1.5,1.5,1.5,1.5,0,0,0-1.5-1.5"/><path d="M169.5,34a1.5,1.5,0,1,0,1.5,1.5,1.5,1.5,0,0,0-1.5-1.5"/><path d="M161.5,34a1.5,1.5,0,1,0,1.5,1.5,1.5,1.5,0,0,0-1.5-1.5"/><text class="cls-4" transform="translate(137.87 64.55)"><tspan class="cls-5">C</tspan><tspan x="8.55" y="0">ommit</tspan></text><path d="M379,42H275V5H379Zm5-42H270V47H384Z"/><line class="cls-6" x1="257.5" y1="23.5" x2="207.5" y2="23.5"/><line class="cls-6" x1="243.5" y1="14.5" x2="257.5" y2="23.5"/><line class="cls-6" x1="243.5" y1="32.5" x2="257.5" y2="23.5"/><text class="cls-4" transform="translate(221.72 49.55)">on </text><text class="cls-4" transform="translate(205.82 64.55)"><tspan class="cls-7">c</tspan><tspan x="6.65" y="0">ommit</tspan></text><text class="cls-4" transform="translate(289.25 20.65)"><tspan class="cls-8">P</tspan><tspan class="cls-9" x="7.74" y="0">r</tspan><tspan class="cls-10" x="12.51" y="0">e</tspan><tspan class="cls-11" x="20.44" y="0">-</tspan><tspan class="cls-12" x="25.26" y="0">C</tspan><tspan x="33.79" y="0">ommit </tspan></text><text class="cls-4" transform="translate(310.36 35.65)">Hook</text><path d="M600,50H496V13H600Zm5-42H491V55H605Z"/><line class="cls-6" x1="478.5" y1="31.5" x2="410.5" y2="32.5"/><line class="cls-6" x1="464.5" y1="22.5" x2="478.5" y2="31.5"/><line class="cls-6" x1="464.5" y1="40.5" x2="478.5" y2="31.5"/><text class="cls-4" transform="translate(424.32 56.55)"><tspan class="cls-7">c</tspan><tspan x="6.65" y="0">ommit </tspan></text><text class="cls-4" transform="translate(416.04 71.55)">changeset</text><text class="cls-4" transform="translate(501.97 35.65)">E<tspan class="cls-13" x="7.38" y="0">x</tspan><tspan x="14.5" y="0">t</tspan><tspan class="cls-14" x="19.47" y="0">r</tspan><tspan x="24.31" y="0">a</tspan><tspan class="cls-15" x="31.54" y="0">c</tspan><tspan class="cls-16" x="38.44" y="0">t </tspan><tspan class="cls-17" x="46.59" y="0">v</tspan><tspan class="cls-16" x="53.67" y="0">e</tspan><tspan class="cls-13" x="61.18" y="0">c</tspan><tspan class="cls-18" x="68.08" y="0">t</tspan><tspan x="72.96" y="0">ors</tspan></text><path d="M600,148H496V111H600Zm5-42H491v47H605Z"/><line class="cls-6" x1="548.5" y1="97.5" x2="548.5" y2="65"/><line class="cls-6" x1="557.5" y1="83.5" x2="548.5" y2="97.5"/><line class="cls-6" x1="539.5" y1="83.5" x2="548.5" y2="97.5"/><text class="cls-4" transform="translate(568.27 84.55)"><tspan class="cls-9">v</tspan><tspan x="7.08" y="0">e</tspan><tspan class="cls-19" x="14.59" y="0">c</tspan><tspan class="cls-7" x="21.5" y="0">t</tspan><tspan class="cls-20" x="26.38" y="0">ors</tspan></text><path d="M514.45,133.38a4.89,4.89,0,0,1-2.09.42,3.45,3.45,0,0,1-3.61-3.7,3.69,3.69,0,0,1,3.9-3.86,4.4,4.4,0,0,1,1.83.38l-.3,1a3.07,3.07,0,0,0-1.53-.35,2.74,2.74,0,0,0,0,5.46,3.81,3.81,0,0,0,1.62-.36ZM516,123h1.32v10.65H516Zm7.55,10.65-.1-.92h-.05a2.69,2.69,0,0,1-2.22,1.08,2.06,2.06,0,0,1-2.21-2.08c0-1.75,1.55-2.71,4.36-2.7v-.15a1.5,1.5,0,0,0-1.65-1.68,3.6,3.6,0,0,0-1.89.54l-.3-.87a4.5,4.5,0,0,1,2.38-.64c2.22,0,2.76,1.51,2.76,3v2.71a10.26,10.26,0,0,0,.12,1.74Zm-.19-3.7c-1.44,0-3.08.22-3.08,1.63a1.17,1.17,0,0,0,1.25,1.26,1.81,1.81,0,0,0,1.75-1.21,1.3,1.3,0,0,0,.08-.42Zm3.22,2.35a3.51,3.51,0,0,0,1.74.52c1,0,1.41-.48,1.41-1.08s-.37-1-1.35-1.33c-1.3-.46-1.92-1.18-1.92-2a2.24,2.24,0,0,1,2.51-2.13,3.6,3.6,0,0,1,1.78.45l-.33,1a2.81,2.81,0,0,0-1.48-.42c-.78,0-1.22.45-1.22,1s.44.87,1.38,1.23c1.26.48,1.91,1.11,1.91,2.19,0,1.27-1,2.17-2.72,2.17a4.15,4.15,0,0,1-2-.5Zm5.94,0a3.51,3.51,0,0,0,1.74.52c1,0,1.41-.48,1.41-1.08s-.37-1-1.35-1.33c-1.3-.46-1.92-1.18-1.92-2a2.24,2.24,0,0,1,2.51-2.13,3.6,3.6,0,0,1,1.78.45l-.33,1a2.81,2.81,0,0,0-1.48-.42c-.78,0-1.22.45-1.22,1s.44.87,1.38,1.23c1.26.48,1.91,1.11,1.91,2.19,0,1.27-1,2.17-2.72,2.17a4.15,4.15,0,0,1-2-.5Zm7.59-8a.77.77,0,0,1-.84.81.78.78,0,0,1-.79-.81.8.8,0,0,1,.82-.82A.78.78,0,0,1,540.11,124.35Zm-1.47,9.3v-7.26H540v7.26Zm3.65,0V127.4h-1v-1h1V126a2.9,2.9,0,0,1,3.16-3.16,3.65,3.65,0,0,1,1.85.48l-.38,1a2.79,2.79,0,0,0-1.53-.42c-1.39,0-1.8,1-1.8,2.13v.36h4.22v7.26H546.5V127.4h-2.91v6.25Zm12.88-.27a4.83,4.83,0,0,1-2.08.42,3.45,3.45,0,0,1-3.62-3.7,3.69,3.69,0,0,1,3.9-3.86,4.4,4.4,0,0,1,1.83.38l-.3,1a3,3,0,0,0-1.53-.35,2.74,2.74,0,0,0,0,5.46,3.84,3.84,0,0,0,1.62-.36Zm5.57.27-.11-.92h0a2.72,2.72,0,0,1-2.22,1.08,2.06,2.06,0,0,1-2.22-2.08c0-1.75,1.56-2.71,4.36-2.7v-.15a1.49,1.49,0,0,0-1.65-1.68,3.63,3.63,0,0,0-1.89.54l-.3-.87a4.51,4.51,0,0,1,2.39-.64c2.22,0,2.76,1.51,2.76,3v2.71a10.26,10.26,0,0,0,.12,1.74Zm-.2-3.7c-1.44,0-3.07.22-3.07,1.63a1.17,1.17,0,0,0,1.24,1.26,1.81,1.81,0,0,0,1.76-1.21,1.6,1.6,0,0,0,.07-.42Zm4.94-5.64v2.08h1.89v1h-1.89v3.91c0,.9.25,1.41,1,1.41a3.13,3.13,0,0,0,.76-.09l.06,1a3.32,3.32,0,0,1-1.17.18,1.82,1.82,0,0,1-1.42-.56,2.66,2.66,0,0,1-.51-1.89V127.4h-1.13v-1h1.13v-1.74Zm4.84,0a.77.77,0,0,1-.84.81.78.78,0,0,1-.79-.81.8.8,0,0,1,.82-.82A.78.78,0,0,1,570.32,124.35Zm-1.47,9.3v-7.26h1.32v7.26ZM578.93,130a3.55,3.55,0,0,1-3.61,3.85,3.45,3.45,0,0,1-3.48-3.73,3.54,3.54,0,0,1,3.6-3.85A3.43,3.43,0,0,1,578.93,130Zm-5.76.08c0,1.59.92,2.78,2.21,2.78s2.2-1.18,2.2-2.81c0-1.23-.61-2.79-2.17-2.79S573.17,128.66,573.17,130Zm7.43-1.68c0-.75,0-1.37-.06-2h1.17l.07,1.2h0a2.67,2.67,0,0,1,2.4-1.36c1,0,2.57.6,2.57,3.09v4.33h-1.32v-4.18c0-1.17-.44-2.15-1.68-2.15a1.88,1.88,0,0,0-1.77,1.35,1.93,1.93,0,0,0-.09.62v4.36H580.6Z"/><line class="cls-6" x1="672.5" y1="129.5" x2="633" y2="129.5"/><line class="cls-6" x1="661.44" y1="122.39" x2="672.5" y2="129.5"/><line class="cls-6" x1="661.44" y1="136.61" x2="672.5" y2="129.5"/><text class="cls-21" transform="translate(616.31 157.26)">faul<tspan class="cls-22" x="24.98" y="0">t</tspan><tspan x="30.4" y="0">y/ non </tspan></text><text class="cls-21" transform="translate(634.02 172.25)">faul<tspan class="cls-22" x="24.98" y="0">t</tspan><tspan x="30.4" y="0">y</tspan></text><text class="cls-21" transform="translate(702.91 129.35)">use</text><text class="cls-21" transform="translate(695.84 142.34)"><tspan class="cls-23">r</tspan><tspan x="5.09" y="0">esult</tspan></text><line class="cls-1" y1="114" x2="52" y2="114"/><path class="cls-2" d="M14,120a6,6,0,1,1,6-6,6,6,0,0,1-6,6"/><path d="M14,110a4,4,0,1,1-4,4,4,4,0,0,1,4-4m0-4a8,8,0,1,0,8,8,8,8,0,0,0-8-8"/><path d="M41,135a7,7,0,0,1,0,14H24a7,7,0,0,1,0-14H41m0-4H24a11,11,0,0,0,0,22H41a11,11,0,0,0,0-22"/><line class="cls-1" x1="15" y1="142" x2="15" y2="126"/><line class="cls-3" x1="15" y1="126" x2="28" y2="133"/><circle class="cls-1" cx="18.5" cy="131.5" r="1.5"/><path d="M40.5,140a1.5,1.5,0,1,0,1.5,1.5,1.5,1.5,0,0,0-1.5-1.5"/><path d="M32.5,140a1.5,1.5,0,1,0,1.5,1.5,1.5,1.5,0,0,0-1.5-1.5"/><path d="M24.5,140a1.5,1.5,0,1,0,1.5,1.5,1.5,1.5,0,0,0-1.5-1.5"/><text class="cls-4" transform="translate(0.87 167.55)"><tspan class="cls-5">C</tspan><tspan x="8.55" y="0">ommit</tspan></text><line class="cls-6" x1="117.5" y1="129.5" x2="67.5" y2="129.5"/><line class="cls-6" x1="103.5" y1="120.5" x2="117.5" y2="129.5"/><line class="cls-6" x1="103.5" y1="138.5" x2="117.5" y2="129.5"/><text class="cls-4" transform="translate(81.72 152.55)">on </text><text class="cls-4" transform="translate(65.82 161.55)"><tspan class="cls-24">c</tspan><tspan x="6.63" y="0">ommit</tspan></text><line class="cls-1" x1="139" y1="96" x2="139" y2="164"/><path class="cls-2" d="M139,116a6,6,0,1,1,6-6,6,6,0,0,1-6,6"/><path d="M139,106a4,4,0,1,1-4,4,4,4,0,0,1,4-4m0-4a8,8,0,1,0,8,8,8,8,0,0,0-8-8"/><path class="cls-2" d="M139,136a6,6,0,1,1,6-6,6,6,0,0,1-6,6"/><path d="M139,126a4,4,0,1,1-4,4,4,4,0,0,1,4-4m0-4a8,8,0,1,0,8,8,8,8,0,0,0-8-8"/><path class="cls-2" d="M139,156a6,6,0,1,1,6-6,6,6,0,0,1-6,6"/><path d="M139,146a4,4,0,1,1-4,4,4,4,0,0,1,4-4m0-4a8,8,0,1,0,8,8,8,8,0,0,0-8-8"/><text class="cls-4" transform="translate(149 118.55)">local</text><text class="cls-4" transform="translate(149 136.55)"><tspan class="cls-7">c</tspan><tspan x="6.65" y="0">ommit</tspan></text><text class="cls-4" transform="translate(149 154.55)">his<tspan class="cls-7" x="17.77" y="0">t</tspan><tspan x="22.66" y="0">o</tspan><tspan class="cls-25" x="30.9" y="0">r</tspan><tspan x="36.18" y="0">y</tspan></text><line class="cls-6" x1="257.5" y1="129.5" x2="207.5" y2="129.5"/><line class="cls-6" x1="243.5" y1="120.5" x2="257.5" y2="129.5"/><line class="cls-6" x1="243.5" y1="138.5" x2="257.5" y2="129.5"/><text class="cls-4" transform="translate(221.72 152.55)">on</text><text class="cls-4" transform="translate(214.47 167.55)">push</text><path d="M380,148H276V111H380Zm5-42H271v47H385Z"/><text class="cls-4" transform="translate(282.11 133.65)"><tspan class="cls-8">P</tspan><tspan class="cls-9" x="7.74" y="0">r</tspan><tspan class="cls-10" x="12.51" y="0">e</tspan><tspan x="20.44" y="0">-</tspan><tspan class="cls-26" x="25.05" y="0">P</tspan><tspan class="cls-27" x="32.8" y="0">ush Hook</tspan></text><line class="cls-6" x1="384" y1="24" x2="410" y2="24"/><line class="cls-6" x1="385" y1="130" x2="410" y2="130"/><line class="cls-6" x1="410.5" y1="24.5" x2="410.5" y2="129.5"/></g></g></svg>