<svg xmlns="http://www.w3.org/2000/svg" viewBox="0 0 870.49 144.94"><defs><style>.cls-1{font-size:17px;}.cls-1,.cls-7{fill:#fff;}.cls-1,.cls-23,.cls-8{font-family:MyriadPro-Regular, Myriad Pro;}.cls-2{letter-spacing:-0.01em;}.cls-3{letter-spacing:-0.02em;}.cls-4{letter-spacing:-0.01em;}.cls-5{letter-spacing:-0.01em;}.cls-13,.cls-6{fill:none;stroke:#000;stroke-miterlimit:10;}.cls-6{stroke-width:4px;}.cls-8{font-size:15px;}.cls-9{letter-spacing:0em;}.cls-10{letter-spacing:-0.01em;}.cls-11{letter-spacing:0.01em;}.cls-12{letter-spacing:0.03em;}.cls-13{stroke-linecap:round;stroke-width:5px;}.cls-14{letter-spacing:-0.01em;}.cls-15{letter-spacing:-0.01em;}.cls-16{letter-spacing:0em;}.cls-17{letter-spacing:0.02em;}.cls-18{letter-spacing:0.01em;}.cls-19{letter-spacing:0em;}.cls-20{letter-spacing:0.01em;}.cls-21{letter-spacing:0.01em;}.cls-22{letter-spacing:0em;}.cls-23{font-size:16px;}.cls-24{letter-spacing:0em;}.cls-25{letter-spacing:0.01em;}.cls-26{letter-spacing:-0.01em;}.cls-27{letter-spacing:-0.01em;}.cls-28{letter-spacing:-0.01em;}.cls-29{letter-spacing:0em;}.cls-30{letter-spacing:0.02em;}.cls-31{letter-spacing:-0.01em;}.cls-32{letter-spacing:0.02em;}</style></defs><title>unusualcommitsprocess-svg</title><g id="Layer_2" data-name="Layer 2"><g id="Layer_1-2" data-name="Layer 1"><rect x="4.49" width="196" height="26"/><text class="cls-1" transform="translate(11.53 18.82)">Unusual <tspan class="cls-2" x="61.71" y="0">C</tspan><tspan x="71.38" y="0">ommits </tspan><tspan class="cls-3" x="129.01" y="0">P</tspan><tspan class="cls-4" x="137.78" y="0">r</tspan><tspan x="143.17" y="0">o</tspan><tspan class="cls-5" x="152.51" y="0">c</tspan><tspan x="160.02" y="0">ess</tspan></text><line class="cls-6" x1="8" y1="41.94" x2="8" y2="109.94"/><circle class="cls-7" cx="8" cy="55.94" r="6"/><path d="M8,51.94a4,4,0,1,1-4,4,4,4,0,0,1,4-4m0-4a8,8,0,1,0,8,8,8,8,0,0,0-8-8Z"/><circle class="cls-7" cx="8" cy="75.94" r="6"/><path d="M8,71.94a4,4,0,1,1-4,4,4,4,0,0,1,4-4m0-4a8,8,0,1,0,8,8,8,8,0,0,0-8-8Z"/><circle class="cls-7" cx="8" cy="95.94" r="6"/><path d="M8,91.94a4,4,0,1,1-4,4,4,4,0,0,1,4-4m0-4a8,8,0,1,0,8,8,8,8,0,0,0-8-8Z"/><text class="cls-8" transform="translate(18 64.49)">GitHub <tspan class="cls-9" x="0" y="18">R</tspan><tspan x="8.13" y="18">emo</tspan><tspan class="cls-10" x="36.39" y="18">t</tspan><tspan x="41.26" y="18">e </tspan><tspan class="cls-11" x="0" y="36">H</tspan><tspan x="9.93" y="36">is</tspan><tspan class="cls-10" x="19.38" y="36">t</tspan><tspan x="24.25" y="36">o</tspan><tspan class="cls-12" x="32.49" y="36">r</tspan><tspan x="37.77" y="36">y</tspan></text><line class="cls-13" x1="129.5" y1="75.44" x2="79.5" y2="75.44"/><line class="cls-13" x1="115.5" y1="66.44" x2="129.5" y2="75.44"/><line class="cls-13" x1="115.5" y1="84.44" x2="129.5" y2="75.44"/><text class="cls-8" transform="translate(76.58 98.49)">opening <tspan x="-6.25" y="15">in B</tspan><tspan class="cls-14" x="16.89" y="15">r</tspan><tspan class="cls-15" x="21.64" y="15">o</tspan><tspan class="cls-10" x="29.77" y="15">w</tspan><tspan x="40.72" y="15">ser</tspan></text><path d="M256,56.94v37H152v-37H256m5-5H147v47H261v-47Z"/><text class="cls-8" transform="translate(162.23 79.59)"><tspan class="cls-16">A</tspan><tspan x="9.14" y="0">nal</tspan><tspan class="cls-10" x="28.23" y="0">y</tspan><tspan x="35.21" y="0">sis </tspan><tspan class="cls-16" x="53.77" y="0">S</tspan><tspan x="61.12" y="0">ta</tspan><tspan class="cls-17" x="73.32" y="0">r</tspan><tspan x="78.58" y="0">t</tspan></text><path d="M464,56.94v37H360v-37H464m5-5H355v47H469v-47Z"/><line class="cls-13" x1="342.5" y1="75.44" x2="274.5" y2="76.44"/><line class="cls-13" x1="328.5" y1="66.44" x2="342.5" y2="75.44"/><line class="cls-13" x1="328.5" y1="84.44" x2="342.5" y2="75.44"/><text class="cls-8" transform="translate(285.32 100.49)"><tspan class="cls-10">c</tspan><tspan x="6.63" y="0">ommit </tspan><tspan x="-8.28" y="15">changeset</tspan></text><text class="cls-8" transform="translate(365.97 79.59)">E<tspan class="cls-18" x="7.38" y="0">x</tspan><tspan x="14.52" y="0">t</tspan><tspan class="cls-19" x="19.48" y="0">r</tspan><tspan x="24.31" y="0">a</tspan><tspan class="cls-18" x="31.54" y="0">c</tspan><tspan x="38.46" y="0">t </tspan><tspan class="cls-14" x="46.6" y="0">v</tspan><tspan x="53.67" y="0">e</tspan><tspan class="cls-20" x="61.18" y="0">c</tspan><tspan class="cls-10" x="68.1" y="0">t</tspan><tspan x="72.97" y="0">ors</tspan></text><path d="M655,56.94v37H551v-37H655m5-5H546v47H660v-47Z"/><line class="cls-13" x1="533.5" y1="75.44" x2="483.5" y2="75.44"/><line class="cls-13" x1="519.5" y1="66.44" x2="533.5" y2="75.44"/><line class="cls-13" x1="519.5" y1="84.44" x2="533.5" y2="75.44"/><text class="cls-8" transform="translate(483.28 98.49)"><tspan class="cls-14">v</tspan><tspan x="7.06" y="0">e</tspan><tspan class="cls-18" x="14.58" y="0">c</tspan><tspan class="cls-10" x="21.49" y="0">t</tspan><tspan x="26.37" y="0">ors</tspan></text><text class="cls-8" transform="translate(563.93 72.65)"><tspan class="cls-16">A</tspan><tspan x="9.14" y="0">bno</tspan><tspan class="cls-9" x="34.23" y="0">r</tspan><tspan x="39.19" y="0">mali</tspan><tspan class="cls-21" x="65.98" y="0">t</tspan><tspan x="71.08" y="0">y </tspan><tspan class="cls-15" x="4.03" y="15">C</tspan><tspan x="12.62" y="15">alcul</tspan><tspan class="cls-22" x="41.92" y="15">a</tspan><tspan x="49.09" y="15">tion</tspan></text><line class="cls-13" x1="739.5" y1="75.44" x2="689.5" y2="75.44"/><line class="cls-13" x1="725.5" y1="66.44" x2="739.5" y2="75.44"/><line class="cls-13" x1="725.5" y1="84.44" x2="739.5" y2="75.44"/><text class="cls-23" transform="translate(677.58 99.2)">abno<tspan class="cls-24" x="34.48" y="0">r</tspan><tspan x="39.78" y="0">mali</tspan><tspan class="cls-25" x="68.35" y="0">t</tspan><tspan x="73.79" y="0">y </tspan><tspan x="23.02" y="15">s</tspan><tspan class="cls-26" x="29.36" y="15">c</tspan><tspan x="36.43" y="15">o</tspan><tspan class="cls-27" x="45.22" y="15">r</tspan><tspan x="50.29" y="15">e</tspan></text><text class="cls-23" transform="translate(789.04 73.3)"><tspan class="cls-28">r</tspan><tspan class="cls-29" x="5.07" y="0">epo</tspan><tspan class="cls-30" x="30.98" y="0">r</tspan><tspan x="36.59" y="0">t in </tspan><tspan class="cls-26" x="-21.59" y="15">c</tspan><tspan x="-14.52" y="15">ommit his</tspan><tspan class="cls-31" x="52.34" y="15">t</tspan><tspan x="57.54" y="15">o</tspan><tspan class="cls-32" x="66.33" y="15">r</tspan><tspan x="71.96" y="15">y</tspan></text></g></g></svg>