<svg xmlns="http://www.w3.org/2000/svg" viewBox="0 0 711.49 146.36"><defs><style>.cls-1,.cls-8{fill:none;stroke:#000;stroke-miterlimit:10;}.cls-1{stroke-width:4px;}.cls-2{fill:#fff;}.cls-3{font-size:15px;}.cls-18,.cls-3{font-family:MyriadPro-Regular, Myriad Pro;}.cls-4{letter-spacing:0em;}.cls-5{letter-spacing:-0.01em;}.cls-6{letter-spacing:0.01em;}.cls-7{letter-spacing:0.03em;}.cls-8{stroke-linecap:round;stroke-width:5px;}.cls-9{letter-spacing:-0.01em;}.cls-10{letter-spacing:-0.01em;}.cls-11{letter-spacing:0em;}.cls-12{letter-spacing:0.02em;}.cls-13{letter-spacing:0.01em;}.cls-14{letter-spacing:0em;}.cls-15{letter-spacing:0.01em;}.cls-16{letter-spacing:0.01em;}.cls-17{letter-spacing:0em;}.cls-18{font-size:16px;}.cls-19{letter-spacing:0em;}.cls-20{letter-spacing:0.01em;}.cls-21{letter-spacing:-0.01em;}.cls-22{letter-spacing:-0.01em;}.cls-23{letter-spacing:-0.01em;}.cls-24{letter-spacing:0em;}.cls-25{letter-spacing:0.02em;}.cls-26{letter-spacing:-0.01em;}.cls-27{letter-spacing:0.02em;}</style></defs><title>unusualcommitsprocess-svg</title><g id="Layer_2" data-name="Layer 2"><g id="Layer_1-2" data-name="Layer 1"><line class="cls-1" x1="8" x2="8" y2="68"/><circle class="cls-2" cx="8" cy="14" r="6"/><path d="M8,10a4,4,0,1,1-4,4,4,4,0,0,1,4-4M8,6a8,8,0,1,0,8,8A8,8,0,0,0,8,6Z"/><circle class="cls-2" cx="8" cy="34" r="6"/><path d="M8,30a4,4,0,1,1-4,4,4,4,0,0,1,4-4m0-4a8,8,0,1,0,8,8,8,8,0,0,0-8-8Z"/><circle class="cls-2" cx="8" cy="54" r="6"/><path d="M8,50a4,4,0,1,1-4,4,4,4,0,0,1,4-4m0-4a8,8,0,1,0,8,8,8,8,0,0,0-8-8Z"/><text class="cls-3" transform="translate(18 22.55)">GitHub <tspan class="cls-4" x="0" y="18">R</tspan><tspan x="8.13" y="18">emo</tspan><tspan class="cls-5" x="36.39" y="18">t</tspan><tspan x="41.26" y="18">e </tspan><tspan class="cls-6" x="0" y="36">H</tspan><tspan x="9.93" y="36">is</tspan><tspan class="cls-5" x="19.38" y="36">t</tspan><tspan x="24.25" y="36">o</tspan><tspan class="cls-7" x="32.49" y="36">r</tspan><tspan x="37.77" y="36">y</tspan></text><line class="cls-8" x1="129.5" y1="33.5" x2="79.5" y2="33.5"/><line class="cls-8" x1="115.5" y1="24.5" x2="129.5" y2="33.5"/><line class="cls-8" x1="115.5" y1="42.5" x2="129.5" y2="33.5"/><text class="cls-3" transform="translate(76.58 56.55)">opening <tspan x="-6.25" y="15">in B</tspan><tspan class="cls-9" x="16.89" y="15">r</tspan><tspan class="cls-10" x="21.64" y="15">o</tspan><tspan class="cls-5" x="29.77" y="15">w</tspan><tspan x="40.72" y="15">ser</tspan></text><path d="M256,15V52H152V15H256m5-5H147V57H261V10Z"/><text class="cls-3" transform="translate(162.23 37.65)"><tspan class="cls-11">A</tspan><tspan x="9.14" y="0">nal</tspan><tspan class="cls-5" x="28.23" y="0">y</tspan><tspan x="35.21" y="0">sis </tspan><tspan class="cls-11" x="53.77" y="0">S</tspan><tspan x="61.12" y="0">ta</tspan><tspan class="cls-12" x="73.32" y="0">r</tspan><tspan x="78.58" y="0">t</tspan></text><path d="M464,15V52H360V15H464m5-5H355V57H469V10Z"/><line class="cls-8" x1="342.5" y1="33.5" x2="274.5" y2="34.5"/><line class="cls-8" x1="328.5" y1="24.5" x2="342.5" y2="33.5"/><line class="cls-8" x1="328.5" y1="42.5" x2="342.5" y2="33.5"/><text class="cls-3" transform="translate(285.32 58.55)"><tspan class="cls-5">c</tspan><tspan x="6.63" y="0">ommit </tspan><tspan x="-8.28" y="15">changeset</tspan></text><text class="cls-3" transform="translate(365.97 37.65)">E<tspan class="cls-13" x="7.38" y="0">x</tspan><tspan x="14.52" y="0">t</tspan><tspan class="cls-14" x="19.48" y="0">r</tspan><tspan x="24.31" y="0">a</tspan><tspan class="cls-13" x="31.54" y="0">c</tspan><tspan x="38.46" y="0">t </tspan><tspan class="cls-9" x="46.6" y="0">v</tspan><tspan x="53.67" y="0">e</tspan><tspan class="cls-15" x="61.18" y="0">c</tspan><tspan class="cls-5" x="68.1" y="0">t</tspan><tspan x="72.97" y="0">ors</tspan></text><path d="M655,15V52H551V15H655m5-5H546V57H660V10Z"/><line class="cls-8" x1="533.5" y1="33.5" x2="483.5" y2="33.5"/><line class="cls-8" x1="519.5" y1="24.5" x2="533.5" y2="33.5"/><line class="cls-8" x1="519.5" y1="42.5" x2="533.5" y2="33.5"/><text class="cls-3" transform="translate(483.28 56.55)"><tspan class="cls-9">v</tspan><tspan x="7.06" y="0">e</tspan><tspan class="cls-13" x="14.58" y="0">c</tspan><tspan class="cls-5" x="21.49" y="0">t</tspan><tspan x="26.37" y="0">ors</tspan></text><text class="cls-3" transform="translate(563.93 30.71)"><tspan class="cls-11">A</tspan><tspan x="9.14" y="0">bno</tspan><tspan class="cls-4" x="34.23" y="0">r</tspan><tspan x="39.19" y="0">mali</tspan><tspan class="cls-16" x="65.98" y="0">t</tspan><tspan x="71.08" y="0">y </tspan><tspan class="cls-10" x="4.03" y="15">C</tspan><tspan x="12.62" y="15">alcul</tspan><tspan class="cls-17" x="41.92" y="15">a</tspan><tspan x="49.09" y="15">tion</tspan></text><line class="cls-8" x1="602.99" y1="106.56" x2="602.99" y2="67.56"/><line class="cls-8" x1="611.99" y1="92.56" x2="602.99" y2="106.56"/><line class="cls-8" x1="593.99" y1="92.56" x2="602.99" y2="106.56"/><text class="cls-18" transform="translate(625.58 84.26)">abno<tspan class="cls-19" x="34.48" y="0">r</tspan><tspan x="39.78" y="0">mali</tspan><tspan class="cls-20" x="68.35" y="0">t</tspan><tspan x="73.79" y="0">y </tspan><tspan x="23.02" y="15">s</tspan><tspan class="cls-21" x="29.36" y="15">c</tspan><tspan x="36.43" y="15">o</tspan><tspan class="cls-22" x="45.22" y="15">r</tspan><tspan x="50.29" y="15">e</tspan></text><text class="cls-18" transform="translate(573.04 127.36)"><tspan class="cls-23">r</tspan><tspan class="cls-24" x="5.07" y="0">epo</tspan><tspan class="cls-25" x="30.98" y="0">r</tspan><tspan x="36.59" y="0">t in </tspan><tspan class="cls-21" x="-21.59" y="15">c</tspan><tspan x="-14.52" y="15">ommit his</tspan><tspan class="cls-26" x="52.34" y="15">t</tspan><tspan x="57.54" y="15">o</tspan><tspan class="cls-27" x="66.33" y="15">r</tspan><tspan x="71.96" y="15">y</tspan></text></g></g></svg>